<mxfile host="app.diagrams.net" modified="2024-04-25T11:05:42.687Z" agent="Mozilla/5.0 (Windows NT 10.0; Win64; x64) AppleWebKit/537.36 (KHTML, like Gecko) Chrome/124.0.0.0 Safari/537.36" etag="yY7MRKXKJD1d1YhlcguJ" version="24.2.8" type="github">
  <diagram name="第 1 页" id="jgk6TLI41gFWQYQwitnz">
    <mxGraphModel dx="3716" dy="661" grid="1" gridSize="10" guides="1" tooltips="1" connect="1" arrows="1" fold="1" page="1" pageScale="1" pageWidth="827" pageHeight="1169" math="0" shadow="0">
      <root>
        <mxCell id="0" />
        <mxCell id="1" parent="0" />
        <mxCell id="Wk8eWu7CTbSuLLYJRfCE-114" value="" style="rounded=0;whiteSpace=wrap;html=1;" parent="1" vertex="1">
          <mxGeometry x="-1640" y="2625" width="100" height="155" as="geometry" />
        </mxCell>
        <mxCell id="RasElPOEb2YVtqg3I1Uv-14" value="海" style="rounded=0;whiteSpace=wrap;html=1;fillColor=#dae8fc;strokeColor=#6c8ebf;" parent="1" vertex="1">
          <mxGeometry x="-1635" y="1700" width="630" height="220" as="geometry" />
        </mxCell>
        <mxCell id="RasElPOEb2YVtqg3I1Uv-13" value="" style="rounded=0;whiteSpace=wrap;html=1;" parent="1" vertex="1">
          <mxGeometry x="-1640" y="1420" width="630" height="220" as="geometry" />
        </mxCell>
        <mxCell id="etBnur1a59X3ccwOe4CS-115" value="" style="rounded=0;whiteSpace=wrap;html=1;" parent="1" vertex="1">
          <mxGeometry x="19" y="10" width="790" height="470" as="geometry" />
        </mxCell>
        <mxCell id="etBnur1a59X3ccwOe4CS-107" style="edgeStyle=orthogonalEdgeStyle;rounded=0;orthogonalLoop=1;jettySize=auto;html=1;entryX=0.5;entryY=0;entryDx=0;entryDy=0;" parent="1" source="etBnur1a59X3ccwOe4CS-16" target="etBnur1a59X3ccwOe4CS-101" edge="1">
          <mxGeometry relative="1" as="geometry" />
        </mxCell>
        <mxCell id="etBnur1a59X3ccwOe4CS-114" style="edgeStyle=orthogonalEdgeStyle;rounded=0;orthogonalLoop=1;jettySize=auto;html=1;exitX=0.5;exitY=1;exitDx=0;exitDy=0;" parent="1" source="etBnur1a59X3ccwOe4CS-16" target="etBnur1a59X3ccwOe4CS-97" edge="1">
          <mxGeometry relative="1" as="geometry">
            <Array as="points">
              <mxPoint x="235" y="400" />
              <mxPoint x="540" y="400" />
            </Array>
          </mxGeometry>
        </mxCell>
        <mxCell id="etBnur1a59X3ccwOe4CS-16" value="图优化位姿结果" style="rounded=0;whiteSpace=wrap;html=1;fillColor=#d5e8d4;strokeColor=#82b366;" parent="1" vertex="1">
          <mxGeometry x="183" y="330" width="104" height="40" as="geometry" />
        </mxCell>
        <mxCell id="etBnur1a59X3ccwOe4CS-112" style="edgeStyle=orthogonalEdgeStyle;rounded=0;orthogonalLoop=1;jettySize=auto;html=1;exitX=0.5;exitY=1;exitDx=0;exitDy=0;entryX=1;entryY=0.5;entryDx=0;entryDy=0;" parent="1" source="etBnur1a59X3ccwOe4CS-18" target="etBnur1a59X3ccwOe4CS-71" edge="1">
          <mxGeometry relative="1" as="geometry">
            <Array as="points">
              <mxPoint x="680" y="395" />
              <mxPoint x="760" y="395" />
              <mxPoint x="760" y="215" />
            </Array>
          </mxGeometry>
        </mxCell>
        <mxCell id="etBnur1a59X3ccwOe4CS-18" value="ECD" style="ellipse;whiteSpace=wrap;html=1;fillColor=#f8cecc;strokeColor=#b85450;dashed=1;strokeWidth=3;" parent="1" vertex="1">
          <mxGeometry x="635" y="335" width="90" height="40" as="geometry" />
        </mxCell>
        <mxCell id="etBnur1a59X3ccwOe4CS-30" style="edgeStyle=orthogonalEdgeStyle;rounded=0;orthogonalLoop=1;jettySize=auto;html=1;entryX=0;entryY=0.5;entryDx=0;entryDy=0;" parent="1" source="etBnur1a59X3ccwOe4CS-23" target="etBnur1a59X3ccwOe4CS-24" edge="1">
          <mxGeometry relative="1" as="geometry" />
        </mxCell>
        <mxCell id="etBnur1a59X3ccwOe4CS-88" style="edgeStyle=orthogonalEdgeStyle;rounded=0;orthogonalLoop=1;jettySize=auto;html=1;entryX=0;entryY=0;entryDx=0;entryDy=0;" parent="1" source="etBnur1a59X3ccwOe4CS-23" target="etBnur1a59X3ccwOe4CS-36" edge="1">
          <mxGeometry relative="1" as="geometry">
            <Array as="points">
              <mxPoint x="105" y="110" />
              <mxPoint x="240" y="110" />
              <mxPoint x="240" y="200" />
            </Array>
          </mxGeometry>
        </mxCell>
        <mxCell id="etBnur1a59X3ccwOe4CS-94" style="edgeStyle=orthogonalEdgeStyle;rounded=0;orthogonalLoop=1;jettySize=auto;html=1;entryX=0;entryY=0.5;entryDx=0;entryDy=0;" parent="1" source="etBnur1a59X3ccwOe4CS-23" target="etBnur1a59X3ccwOe4CS-31" edge="1">
          <mxGeometry relative="1" as="geometry">
            <Array as="points">
              <mxPoint x="105" y="110" />
            </Array>
          </mxGeometry>
        </mxCell>
        <mxCell id="etBnur1a59X3ccwOe4CS-23" value="IMU" style="rounded=0;whiteSpace=wrap;html=1;fillColor=#fff2cc;strokeColor=#d6b656;" parent="1" vertex="1">
          <mxGeometry x="60" y="30" width="90" height="40" as="geometry" />
        </mxCell>
        <mxCell id="etBnur1a59X3ccwOe4CS-72" style="edgeStyle=orthogonalEdgeStyle;rounded=0;orthogonalLoop=1;jettySize=auto;html=1;entryX=0.5;entryY=0;entryDx=0;entryDy=0;" parent="1" source="etBnur1a59X3ccwOe4CS-24" target="etBnur1a59X3ccwOe4CS-55" edge="1">
          <mxGeometry relative="1" as="geometry" />
        </mxCell>
        <mxCell id="etBnur1a59X3ccwOe4CS-109" style="edgeStyle=orthogonalEdgeStyle;rounded=0;orthogonalLoop=1;jettySize=auto;html=1;entryX=1;entryY=0.5;entryDx=0;entryDy=0;" parent="1" source="etBnur1a59X3ccwOe4CS-24" target="etBnur1a59X3ccwOe4CS-31" edge="1">
          <mxGeometry relative="1" as="geometry">
            <Array as="points">
              <mxPoint x="450" y="110" />
            </Array>
          </mxGeometry>
        </mxCell>
        <mxCell id="etBnur1a59X3ccwOe4CS-24" value="激光点云" style="rounded=0;whiteSpace=wrap;html=1;fillColor=#fff2cc;strokeColor=#d6b656;" parent="1" vertex="1">
          <mxGeometry x="410" y="31.25" width="80" height="37.5" as="geometry" />
        </mxCell>
        <mxCell id="etBnur1a59X3ccwOe4CS-42" style="edgeStyle=orthogonalEdgeStyle;rounded=0;orthogonalLoop=1;jettySize=auto;html=1;entryX=0;entryY=0.5;entryDx=0;entryDy=0;" parent="1" source="etBnur1a59X3ccwOe4CS-25" target="etBnur1a59X3ccwOe4CS-36" edge="1">
          <mxGeometry relative="1" as="geometry" />
        </mxCell>
        <mxCell id="etBnur1a59X3ccwOe4CS-25" value="轮速" style="rounded=0;whiteSpace=wrap;html=1;fillColor=#fff2cc;strokeColor=#d6b656;" parent="1" vertex="1">
          <mxGeometry x="60" y="130" width="90" height="40" as="geometry" />
        </mxCell>
        <mxCell id="etBnur1a59X3ccwOe4CS-46" style="edgeStyle=orthogonalEdgeStyle;rounded=0;orthogonalLoop=1;jettySize=auto;html=1;entryX=0;entryY=0.5;entryDx=0;entryDy=0;" parent="1" source="etBnur1a59X3ccwOe4CS-28" target="etBnur1a59X3ccwOe4CS-36" edge="1">
          <mxGeometry relative="1" as="geometry" />
        </mxCell>
        <mxCell id="etBnur1a59X3ccwOe4CS-28" value="GPS" style="rounded=0;whiteSpace=wrap;html=1;fillColor=#fff2cc;strokeColor=#d6b656;" parent="1" vertex="1">
          <mxGeometry x="60" y="220" width="90" height="40" as="geometry" />
        </mxCell>
        <mxCell id="etBnur1a59X3ccwOe4CS-38" value="" style="edgeStyle=orthogonalEdgeStyle;rounded=0;orthogonalLoop=1;jettySize=auto;html=1;" parent="1" source="etBnur1a59X3ccwOe4CS-31" target="etBnur1a59X3ccwOe4CS-36" edge="1">
          <mxGeometry relative="1" as="geometry" />
        </mxCell>
        <mxCell id="etBnur1a59X3ccwOe4CS-31" value="激光惯性里程计&lt;br&gt;与建图" style="ellipse;whiteSpace=wrap;html=1;fillColor=#d5e8d4;strokeColor=#82b366;" parent="1" vertex="1">
          <mxGeometry x="264" y="90" width="120" height="40" as="geometry" />
        </mxCell>
        <mxCell id="etBnur1a59X3ccwOe4CS-59" style="edgeStyle=orthogonalEdgeStyle;rounded=0;orthogonalLoop=1;jettySize=auto;html=1;entryX=0.5;entryY=0;entryDx=0;entryDy=0;" parent="1" source="etBnur1a59X3ccwOe4CS-36" target="etBnur1a59X3ccwOe4CS-16" edge="1">
          <mxGeometry relative="1" as="geometry" />
        </mxCell>
        <mxCell id="etBnur1a59X3ccwOe4CS-67" style="edgeStyle=orthogonalEdgeStyle;rounded=0;orthogonalLoop=1;jettySize=auto;html=1;" parent="1" source="etBnur1a59X3ccwOe4CS-36" target="etBnur1a59X3ccwOe4CS-104" edge="1">
          <mxGeometry relative="1" as="geometry">
            <mxPoint x="410" y="330" as="targetPoint" />
          </mxGeometry>
        </mxCell>
        <mxCell id="etBnur1a59X3ccwOe4CS-36" value="因子图" style="whiteSpace=wrap;html=1;aspect=fixed;fillColor=#dae8fc;strokeColor=#6c8ebf;strokeWidth=3;" parent="1" vertex="1">
          <mxGeometry x="284" y="200" width="80" height="80" as="geometry" />
        </mxCell>
        <mxCell id="etBnur1a59X3ccwOe4CS-47" value="去畸变" style="text;html=1;align=center;verticalAlign=middle;resizable=0;points=[];autosize=1;strokeColor=none;fillColor=none;" parent="1" vertex="1">
          <mxGeometry x="210" y="28" width="60" height="30" as="geometry" />
        </mxCell>
        <mxCell id="etBnur1a59X3ccwOe4CS-85" style="edgeStyle=orthogonalEdgeStyle;rounded=0;orthogonalLoop=1;jettySize=auto;html=1;exitX=0;exitY=0.5;exitDx=0;exitDy=0;entryX=1;entryY=0.5;entryDx=0;entryDy=0;" parent="1" source="etBnur1a59X3ccwOe4CS-55" target="etBnur1a59X3ccwOe4CS-36" edge="1">
          <mxGeometry relative="1" as="geometry">
            <Array as="points">
              <mxPoint x="510" y="100" />
              <mxPoint x="510" y="240" />
            </Array>
          </mxGeometry>
        </mxCell>
        <mxCell id="etBnur1a59X3ccwOe4CS-55" value="全局位姿估计" style="ellipse;whiteSpace=wrap;html=1;fillColor=#d5e8d4;strokeColor=#82b366;" parent="1" vertex="1">
          <mxGeometry x="620" y="80" width="120" height="40" as="geometry" />
        </mxCell>
        <mxCell id="etBnur1a59X3ccwOe4CS-73" value="" style="edgeStyle=orthogonalEdgeStyle;rounded=0;orthogonalLoop=1;jettySize=auto;html=1;" parent="1" source="etBnur1a59X3ccwOe4CS-71" target="etBnur1a59X3ccwOe4CS-55" edge="1">
          <mxGeometry relative="1" as="geometry" />
        </mxCell>
        <mxCell id="etBnur1a59X3ccwOe4CS-74" value="" style="edgeStyle=orthogonalEdgeStyle;rounded=0;orthogonalLoop=1;jettySize=auto;html=1;" parent="1" source="etBnur1a59X3ccwOe4CS-71" target="etBnur1a59X3ccwOe4CS-18" edge="1">
          <mxGeometry relative="1" as="geometry" />
        </mxCell>
        <mxCell id="etBnur1a59X3ccwOe4CS-71" value="全局地图(Global Map)&lt;br&gt;体素地图" style="rounded=0;whiteSpace=wrap;html=1;fillColor=#1ba1e2;fontColor=#ffffff;strokeColor=#006EAF;" parent="1" vertex="1">
          <mxGeometry x="620" y="185" width="120" height="60" as="geometry" />
        </mxCell>
        <mxCell id="etBnur1a59X3ccwOe4CS-89" value="预积分" style="text;html=1;align=center;verticalAlign=middle;resizable=0;points=[];autosize=1;strokeColor=none;fillColor=none;" parent="1" vertex="1">
          <mxGeometry x="150" y="90" width="60" height="30" as="geometry" />
        </mxCell>
        <mxCell id="etBnur1a59X3ccwOe4CS-108" value="" style="edgeStyle=orthogonalEdgeStyle;rounded=0;orthogonalLoop=1;jettySize=auto;html=1;" parent="1" source="etBnur1a59X3ccwOe4CS-97" target="etBnur1a59X3ccwOe4CS-18" edge="1">
          <mxGeometry relative="1" as="geometry" />
        </mxCell>
        <mxCell id="etBnur1a59X3ccwOe4CS-97" value="优化后子地图" style="ellipse;whiteSpace=wrap;html=1;fillColor=#d5e8d4;strokeColor=#82b366;" parent="1" vertex="1">
          <mxGeometry x="490" y="335" width="100" height="40" as="geometry" />
        </mxCell>
        <mxCell id="etBnur1a59X3ccwOe4CS-101" value="优化后全局位姿输出" style="ellipse;whiteSpace=wrap;html=1;fillColor=#f8cecc;strokeColor=#b85450;" parent="1" vertex="1">
          <mxGeometry x="175" y="420" width="120" height="40" as="geometry" />
        </mxCell>
        <mxCell id="etBnur1a59X3ccwOe4CS-105" value="" style="edgeStyle=orthogonalEdgeStyle;rounded=0;orthogonalLoop=1;jettySize=auto;html=1;" parent="1" source="etBnur1a59X3ccwOe4CS-104" target="etBnur1a59X3ccwOe4CS-97" edge="1">
          <mxGeometry relative="1" as="geometry" />
        </mxCell>
        <mxCell id="etBnur1a59X3ccwOe4CS-104" value="子地图(SubMap)&lt;br style=&quot;border-color: var(--border-color);&quot;&gt;体素地图" style="ellipse;whiteSpace=wrap;html=1;fillColor=#d5e8d4;strokeColor=#82b366;" parent="1" vertex="1">
          <mxGeometry x="350" y="330" width="90" height="50" as="geometry" />
        </mxCell>
        <mxCell id="etBnur1a59X3ccwOe4CS-113" value="更新" style="text;html=1;align=center;verticalAlign=middle;resizable=0;points=[];autosize=1;strokeColor=none;fillColor=none;" parent="1" vertex="1">
          <mxGeometry x="750" y="310" width="50" height="30" as="geometry" />
        </mxCell>
        <mxCell id="5-4YXnIoKgv9wWn8zzdK-1" value="" style="endArrow=none;html=1;rounded=0;dashed=1;strokeWidth=4;" parent="1" edge="1">
          <mxGeometry width="50" height="50" relative="1" as="geometry">
            <mxPoint x="-1420" y="830" as="sourcePoint" />
            <mxPoint x="-1420" y="510" as="targetPoint" />
          </mxGeometry>
        </mxCell>
        <mxCell id="5-4YXnIoKgv9wWn8zzdK-2" value="" style="endArrow=none;html=1;rounded=0;dashed=1;strokeWidth=4;" parent="1" edge="1">
          <mxGeometry width="50" height="50" relative="1" as="geometry">
            <mxPoint x="-1260" y="830" as="sourcePoint" />
            <mxPoint x="-1260" y="510" as="targetPoint" />
          </mxGeometry>
        </mxCell>
        <mxCell id="5-4YXnIoKgv9wWn8zzdK-6" value="" style="rounded=0;whiteSpace=wrap;html=1;strokeColor=#e633c5;strokeWidth=3;" parent="1" vertex="1">
          <mxGeometry x="-1235" y="460" width="50" height="130" as="geometry" />
        </mxCell>
        <mxCell id="5-4YXnIoKgv9wWn8zzdK-7" value="" style="rounded=0;whiteSpace=wrap;html=1;strokeColor=#e633c5;strokeWidth=3;" parent="1" vertex="1">
          <mxGeometry x="-1235" y="610" width="50" height="130" as="geometry" />
        </mxCell>
        <mxCell id="5-4YXnIoKgv9wWn8zzdK-11" value="" style="endArrow=none;html=1;rounded=0;fillColor=#f8cecc;strokeColor=#000000;strokeWidth=3;dashed=1;dashPattern=1 1;" parent="1" edge="1">
          <mxGeometry width="50" height="50" relative="1" as="geometry">
            <mxPoint x="-1350" y="870" as="sourcePoint" />
            <mxPoint x="-1350" y="460" as="targetPoint" />
          </mxGeometry>
        </mxCell>
        <mxCell id="5-4YXnIoKgv9wWn8zzdK-12" value="" style="endArrow=classic;html=1;rounded=0;" parent="1" edge="1">
          <mxGeometry width="50" height="50" relative="1" as="geometry">
            <mxPoint x="-1170" y="820" as="sourcePoint" />
            <mxPoint x="-1260" y="780" as="targetPoint" />
          </mxGeometry>
        </mxCell>
        <mxCell id="5-4YXnIoKgv9wWn8zzdK-13" value="车道线10hz" style="text;html=1;align=center;verticalAlign=middle;resizable=0;points=[];autosize=1;strokeColor=#666666;fillColor=#f5f5f5;gradientColor=#b3b3b3;" parent="1" vertex="1">
          <mxGeometry x="-1185" y="808" width="90" height="30" as="geometry" />
        </mxCell>
        <mxCell id="5-4YXnIoKgv9wWn8zzdK-16" value="" style="endArrow=classic;html=1;rounded=0;entryX=0;entryY=0.75;entryDx=0;entryDy=0;exitX=-0.08;exitY=0.487;exitDx=0;exitDy=0;exitPerimeter=0;" parent="1" source="5-4YXnIoKgv9wWn8zzdK-17" target="5-4YXnIoKgv9wWn8zzdK-6" edge="1">
          <mxGeometry width="50" height="50" relative="1" as="geometry">
            <mxPoint x="-1110" y="690" as="sourcePoint" />
            <mxPoint x="-1185" y="650" as="targetPoint" />
          </mxGeometry>
        </mxCell>
        <mxCell id="5-4YXnIoKgv9wWn8zzdK-17" value="集装箱10hz" style="text;html=1;align=center;verticalAlign=middle;resizable=0;points=[];autosize=1;strokeColor=#996185;fillColor=#e6d0de;gradientColor=#d5739d;" parent="1" vertex="1">
          <mxGeometry x="-1095" y="530" width="90" height="30" as="geometry" />
        </mxCell>
        <mxCell id="5-4YXnIoKgv9wWn8zzdK-18" value="" style="endArrow=classic;html=1;rounded=0;" parent="1" edge="1">
          <mxGeometry width="50" height="50" relative="1" as="geometry">
            <mxPoint x="-1510" y="820" as="sourcePoint" />
            <mxPoint x="-1420" y="767" as="targetPoint" />
          </mxGeometry>
        </mxCell>
        <mxCell id="sGbuPlXOaDXzsc3hVOuI-2" style="edgeStyle=orthogonalEdgeStyle;rounded=0;orthogonalLoop=1;jettySize=auto;html=1;" parent="1" source="5-4YXnIoKgv9wWn8zzdK-19" edge="1">
          <mxGeometry relative="1" as="geometry">
            <mxPoint x="-1350" y="860" as="targetPoint" />
          </mxGeometry>
        </mxCell>
        <mxCell id="5-4YXnIoKgv9wWn8zzdK-19" value="车道线gauss数据" style="text;html=1;align=center;verticalAlign=middle;resizable=0;points=[];autosize=1;fillColor=#fff2cc;strokeColor=#d6b656;" parent="1" vertex="1">
          <mxGeometry x="-1410" y="950" width="120" height="30" as="geometry" />
        </mxCell>
        <mxCell id="f52tlYeKASrHFX6aeG4I-2" value="车道线输出&lt;br&gt;util/" style="rounded=1;whiteSpace=wrap;html=1;" parent="1" vertex="1">
          <mxGeometry x="-1610" y="990" width="120" height="60" as="geometry" />
        </mxCell>
        <mxCell id="f52tlYeKASrHFX6aeG4I-3" value="集装箱边界输出&lt;br&gt;util/" style="rounded=1;whiteSpace=wrap;html=1;" parent="1" vertex="1">
          <mxGeometry x="-1611" y="1070" width="120" height="60" as="geometry" />
        </mxCell>
        <mxCell id="6N6XP0b4rWp4Xsu95acT-1" value="车道线" style="text;html=1;align=center;verticalAlign=middle;resizable=0;points=[];autosize=1;strokeColor=#666666;fillColor=#f5f5f5;gradientColor=#b3b3b3;" parent="1" vertex="1">
          <mxGeometry x="-1570" y="808" width="60" height="30" as="geometry" />
        </mxCell>
        <mxCell id="HGE7eAMPLWn9xhS_Eq1j-2" value="车道线数据队列(10hz)" style="rounded=1;whiteSpace=wrap;html=1;" parent="1" vertex="1">
          <mxGeometry x="-910" y="595" width="120" height="30" as="geometry" />
        </mxCell>
        <mxCell id="HGE7eAMPLWn9xhS_Eq1j-3" value="集装箱数据队列(10hz)" style="rounded=1;whiteSpace=wrap;html=1;" parent="1" vertex="1">
          <mxGeometry x="-910" y="645" width="120" height="30" as="geometry" />
        </mxCell>
        <mxCell id="HGE7eAMPLWn9xhS_Eq1j-4" value="定位数据队列（100hz）" style="rounded=1;whiteSpace=wrap;html=1;" parent="1" vertex="1">
          <mxGeometry x="-910" y="695" width="120" height="30" as="geometry" />
        </mxCell>
        <mxCell id="HGE7eAMPLWn9xhS_Eq1j-5" value="&lt;div style=&quot;color: rgb(204, 204, 204); background-color: rgb(31, 31, 31); font-family: Consolas, &amp;quot;Courier New&amp;quot;, monospace; font-size: 14px; line-height: 19px;&quot;&gt;std::&lt;span style=&quot;color: #4ec9b0;&quot;&gt;shared_ptr&lt;/span&gt;&amp;lt;&lt;span style=&quot;color: #4ec9b0;&quot;&gt;PTDataInfo&lt;/span&gt;&amp;gt; &lt;span style=&quot;color: #9cdcfe;&quot;&gt;ptdataInfo&lt;/span&gt;&lt;/div&gt;" style="whiteSpace=wrap;html=1;aspect=fixed;" parent="1" vertex="1">
          <mxGeometry x="-220" y="507.50000000000006" width="305" height="305" as="geometry" />
        </mxCell>
        <mxCell id="HGE7eAMPLWn9xhS_Eq1j-6" value="mapinfo数据队列(10hz)" style="rounded=1;whiteSpace=wrap;html=1;" parent="1" vertex="1">
          <mxGeometry x="-910" y="540" width="120" height="30" as="geometry" />
        </mxCell>
        <mxCell id="HGE7eAMPLWn9xhS_Eq1j-7" value="gudiance数据队列(频率较低)" style="rounded=1;whiteSpace=wrap;html=1;" parent="1" vertex="1">
          <mxGeometry x="-910" y="745" width="120" height="30" as="geometry" />
        </mxCell>
        <mxCell id="HGE7eAMPLWn9xhS_Eq1j-8" value="" style="shape=image;verticalLabelPosition=bottom;labelBackgroundColor=default;verticalAlign=top;aspect=fixed;imageAspect=0;image=data:image/png,iVBORw0KGgoAAAANSUhEUgAAApIAAAFPCAYAAAD+wC4KAAAgAElEQVR4Ae29z6sdR5rnfdaz6kUvetGQK4sGSRsXWCpRdNXb7dvQahByg4wEsqdU2N2X4uXCgLgUhXyxptwNbrTwYowpzR2KshcuIw9opqiFMJgWeOAVdT2rwgVu/RGuf0DxEj+eyCeefCIyMk+ec/Kc810cIjMiMuKJJ76R8TkRmecsmqYx+MAH0AA0AA1AA9AANAANQANDNbAYegHyQ2TQADQADUAD0AA0AA1AA1YDAEmsyGJFGhqABqABaAAagAaggVEaAEhCOKOEg2+i+CYKDUAD0AA0AA1AAwBJgCRAEhqABqABaAAagAaggVEaAEhCOKOEg2+h+BYKDUAD0AA0AA1AAwBJgCRAEhqABqABaAAagAaggVEaWBwc3jdHx/Q5NJfhyFGOxLcyfCuDBqABaAAagAaggX3TwOLo1kEEp8u3LFACJvdNBGgvbnzQADQADUAD0AA0MEYDi3QF8sDcOL5v7lx9OcLlmEJxDcQIDUAD0AA0AA1AA9DA7msgfUbyyqHf5j68aS5gixswDQ1AA9AANAANQAPQADRQ0EAEyQtX75qjw5vmsg2xvQ3RFESDb5i7/w0TfYw+hgagAWgAGqjRgANJ92xkeFbSASVAEiAJkIQGoAFoABqABqABaKBHA+6tbf5MJK1MYmsb30RqvokgD3QCDUAD0AA0AA3srwYWN66kjXerk3hGEt9Aer6B4KaRjhv4A/6ABqABaAAa2EcN4K1tABOgGRqABqABaAAagAaggVEawO9IQjijhLOP37rQZqw2QAPQADQADUADqQYW9ncj4z/bYEsbUAWwhgagAWgAGoAGoAFooFID8ed/QNgpYcMf8Ac0AA1AA7uhgUuXLgEKKqEAmt8Nza+zHwGSGFy4wUID0AA0sPMaAEwCkNYJV/tUF0ASE8jOTyD7NKDRVkyW0EBeAxYm6QM/5f0E38A3QzQAkARIAiShAWgAGthJDRA0UmgnR3s8ZJJEXkAVNFDWAEASEwhuqtAANAAN7KwGNHDU4gALZViAf+CfnAYAkphAdnYCyYke8bghQgP7o4HcaiRgcn80gPG+2r4GSAIkAZLQADQADeyMBggcKSSI0MBR5qG8CFcLHvDvbvkXIIkJZGcmENycduvmhP5Ef06lAYJICnm5WhxPxzF0CA2UNQCQBEgCJKEBaAAa2CkNcDikYxkCDspwAP/AP7UaAEhiAtmpCaRW+MiHmyQ0sLsa0KCR4kr9XpOndD3SdldT6Nt83wIkAZIASWgAGoAGdk4DEgrluQQDSqdQpuM8DxLwzX77BiCJCWRLJpC3zZVnj821+PnYfO+N/R68uHmj/6GBeg2UAFGmyXP4ud7P8NX++WrRNAfmxvF9c3R81xxc3EYH/Ni88uAb8/rPfzEjIFreppc+/JhBEwcof/zqhwemaSRc+bQrJ+P78fxnj821L94xLy0B2K6MCHzM9s/eHtlHB+Z7Xzw210ZfP94fuCnCd9DAbmggB4dD46GH3dAD+nG6flwcHR+ag6t3AZJLgFNXkMuDZFLmG++YV59pK3AeJBNwdHnHQ9cUIBltz9o9UMBTlTNpHw9sA+oe+SUCfo7jCRqaXEMcIvkx+VyLozSEGJvQgNeA29q+AJCc+Aa1QZC0k83JB241MwHMykloliDp2qOBNG5kuJFBA9DAcA1YQJSQSOcyjeLh5+F+hs/2w2fzBsnXfmteP/0m+fzwtdAx3/+1uSrSeN6Yr/FQd/WffmyapLzfm1e+T52sg9/Fn39jXn/wa3NOQJiLj3Wzcqptonorw+yKnLIi6WwNW97JVnB3G7wFzW5a+yziY+O30cnWsM3Mtq7TdMrXmCZrd2McsFr7AvT6+jKw2AuSXZvatjF7RD/iJgffQAP7pwECQwJGGXJNUF4eh+P90wz6vNzn8wXJAGUtEOYaokNg2/Eh3YHfb83FABMpJOplpHls/VRWW46L+7mETb281qZcWzLxWSDLgWQAq/isoz3/wJxnIOWfweyCW9+K5PnPxDWl1c+s3QEkLYwmNvLzMty2z0uGfByag01ZwGV+GN0nKGPiVfyM9uFn+HlNGpDQKM9xr8AYhQZ0DcwXJN3qIVvty95M+qAtpIuVxXP/9Hvz+ikBoV6GBEl/zRQ26Z2RFWkWyGpBUqnPlfnYyJW7PpDs2uhtUKEta3cAyQiR3j4PtynwuvoKK5K5a4a3Q/FRVnPI29UBfAKfbLcGODjyY/Trdvcr+m/1/TdfkIyrf35rO78yqUNgK56+dOtkPY8ESXne1iE7Si8vn19eL86zQNYDksoqHd+ytseDQTIAqCxnUyAZt8gl9Dn4VKBU5sM5VrygAWigaeIzk7UQWZtv9H0fuoQut0QDMwbJFqYcwIVnEt2zjolz+6CtL93Wo+eR4CjP8zcIvbx8/ratap7BIClWCbWt3gCEg0CSIJIDavgJIoBkTx8mmkVeVefwESbODWugDw4pnULoGPcyaKAxWwGS1FE6yPVBW1+6HQh6Hllfuh1eGkB6edSOweFAkJTPP6rbv2NAUt1iFtDKJ4Ks3djaHqwB7lccA7iggZVooASIlEYhxnBpDkTaPulji0AyD2cO+OLzjlLA+et4R0to9GXKt7Z/YX5oV0aT5y1/bF7pvGzTmLJN0sae8yyQdbe2PTSKN60lAAaI1La2JYRyH/m3sPl2uK/flrOpFUmyqX35ZrmfP0rai8l6JZM1fNwz3qG7jenOQmIJFCmNQmgZWoYGGrM4cv9qY//Zhn1u2X9N2axA/Opf+tM/+X+vCbAYf5LnG9M+U1kHkk0TIJFtoTsbEmi0PpF15V6+kfm4TQN92wOS6fOK+nOB7lnC+JM99s3rLoRSn6d5U0gkUKU6r5z4N8Q5SMrrKS+HPZdngpdtvM0t0Pq6xJvlG9Yy+RXhQN2j3zZ+H943zZYAkafZYzqncN98hfbifkYacCuSdIIQwoAGoAFoABqABlINSFikcwrJX/Kc4hGm/oQ/dssfAEmsemDVAxqABqABaCCjAQmH2rmNk/GApd2CJfRnvj8BkpmbB0STFw18A99AA9DAPmhAwmEOGGW+ffAN2oh7AGkAIAmQxEoENAANQAPQgNBADg41mMzlpYkWIaBrlzUAkBQ3j13ubLQNNzNoABqABuo0IIFRO7e+BETW+RO6210/RZDEYNjdTsYARt9CA9AANDBOAxIgrR9pvqRQ820pTcuPuHH9A79t3m8JSEL4m+8QDAr0ATQADUAD89VA7Txp89XmRX/Pt7/RN/1940CSC54fw4H9DoSP4CNoABqABvZDA7VgyOdRfgyd7IdO9q2fF3xg0DGF++YMtBeDHBqABqABaCCnAT438mOen8fTMYU8H46hs13RQFyRpAaR4CmkeIQQPTQADUAD0MC+a8DOjXx+1I774vbdh2j/bt1H4ookhL9bHYuBiv6EBqABaCDVAJ/npvQNL5eOKbT10DGFU9aNstI+hj/W749kRZKLnI4p3Gjn/OTPzZ/+uDDmjwvzp1/9JX7vDD9ZBA1AA9AANDBIA6uey3j5dEyhnT/pmMKNzqnQziDtoK/KcLo4Or5v7Of43r+Yo8Ob5v8Ry/abd+BfmP8AQEL0uPFBA9AANDBQA+uGNl4fHduQjjc/n5aBAPbBP2M0sLjxN17kly7dMD+xMHnrIHuz2shg+Nc/M+aPf2Z+M/AGMsYZuAaDCBqABqCB3dHAJiCO6qSwpKeNzKmYS7OMU+orpOXvC8nW9oWrd83xvf9iLheEtnbhAyQh+oIeMbjzgxu+gW/2WQN8ruLH5BMtjtKGhlSWDG05FJcrsy89dx3iMb7nogEHktYYK2YLkkfHd83BxbSDuNDtMX3W0giAJEASIAkNQAPQwAAN8DmL5ikex48pfdlQlinPefk8zR7Th+fBccoh8Md8/RFB0nbSP7z9L+bo+FBdkdyY0AGSmEAGTCC42cz3ZoO+Qd+sQwMc0mR9657H5mSL9AXOMR6n0kALklcO3Us3d66+rILLugcgNfA3v1sY87u/UG2iPAgxIKABaAAagAasBmiu0iCO0uaglTnZMgd/wIbtHb8eJC/eNHfs29uHN80FMRBJ7DQoKaQBu6rOdwD5x4X5j3/dXueuyjcoF5qABqABaGCYBuTcxc9X7Utbl/ax9XI7+PGqbUL5w/QDf+X9tWgIIgtb2lLs5FAuen5M6VOEDij/vz8372F7E6uy0AA0AA1AAyM0sKr5acwcR7ZQyMvgcfyY58FxHmjgm834ZnHD/Y5k/rlI6piSqEtpdP3oEM9IYuIYMXGM1hvqgt6ggZ3SQO38ZPPxzyruIdwWfizrKqXJvDjfDDzB763fF6WXa8hRNLjsuRS4PKdrJgsBkjt1U59MF5jsoQtoABro0cDY+WnsdaX7Gy/THtM5hXStPKd4hC24wBfz8kX8Zxv6hxsXZn6UXApcnq+kcwGSmCx6JouV6A51QnfQwN5pgOY0G9JnlfcXqo/qkOcUj3Be4IT+SPujfWu78qZJQqdw5Q4FSO7dzXzlmqrUOuxIbxbwB/yxyxqwcxp9qJ00z1FI8VOGVDaFU5aNsjBm16GBwSBpjbKCpw83kg8EfszzDD7+yZ+bP+G/tgGTgD9oABqABlakAT6f0THNYRQOnrsG2CrrpLp43fyY0hECFOeggcEg2SdmGhCTNs6tSi6MAVBiIhlwc55Ug6gX2oMGdkoDNJdRaO8XdCznMYpfxT2lr2xpyypsQJkA0mU0MAgk+wRvDYHoIchlBIlroR9oABpYlwZoTuPzloyjNIqf0raaMqn+KetFWRhjU2pgEEhqFXOR80HBj+118lwrC3EQNzQADUAD0MCqNUDzFoVUH81TMqT0dYTcJrLD1suPtfN12IY6MDY1DSwNklQoiZ+LnY4ppLwIIUZoABqABqCBuWiAz1F0TOGmbLT104dsIJsopHiEGEub1MAkIClFzc/58SYbirox0KABaAAagAZyGrBzFc1XFMq8PJ4fy3zLnsuy+Tk/XrYeXI/xMIUGRoMkiZlCbgzFyZDnKR3/6Ec/MufOndupB7tL7UUaBjM0AA1AA5vVgJ2vaM4q9UVtvlIZWhrVTSHPQ3Ey5HlwvFn97LP/lwJJEjV3IMXZkI5tOj/m+bVjgCQGhKYLxEEX0AA0sAoN8PmJH8u6bBp9KK2Un/LUhLJcuobKl+kUT/kQYmxsSgOjQTJnMBc3P87l1+IBkhgQmi4QB11AA9DAOjQg5y57Th9evxbH06c45rbw4ynKRhkYT1NoYGmQlAOJhE7xdM6N1eJ4OkAS4uZ6wDH0AA1AA+vWgJzD6JzbQXMZhTxt7LGsh8qmeDrn5WtxPB3HGD+r1MDSIEnGcZHXiLqUByA5QPQnH5hrzx63n8/e3uNnSw/M975gvnj22Fw5GeDLNf/g9KVPvjOnz1/Ez4NP3ltD371nDr/2dd57f5W++dTcY207ff6tub5m/9K9aVD4/rfm9Pl35vCtVfqmLdtrYEt8sw39tyIbab6i0GqKH2vng3Sn2G3L55++8qQ9ffmR3o5D+GI5XyyOju+b+Ll1sPRENkTMuUEyS5CUwMbhzR5HgHvbXJFp7vxj8703luusstgDREU7VlnX8mW/9OHHLfxyf33xjnlJuamW2+7tOf/ZY3Ntietr6lhNHg9dy4FkAMQnn/aM4XWBZKuRrYIlgGSPftp+Xc1YmF/5ck6jeYu3X+bhacseDymbbBtyzbL24fr5aXbdfcJWJA/MDQuVS8KkJmAubn5sG6vlnyVIJnDjYVFf7fJpr364PJQPE8N2gWTbtpIvhwzQqcoZUudUedcJklPZXF8OQDLvq63yTXIPzLepHdvbn0fOT/I8N4dN6YNcnTZeftZhz5RtQ1nbP0ZsHzKQbMyFq3fN0fGhubzEDUMTPRcLpVNo0/ixPQdIjhHXnoPkG++YV2e+lc3HQXoMkEz9MUb/E12DFUmsSIr5z85P9JE6lXOXTJ/ivK8OSqfQ1smPp7ABZUx0fxHa2hW/dkHy8Ka5sKLGWnFzgeeOdx4kVejRVzK7W8C5LfI+kPTl8+cpkxVVt3X/gTnfpPm0lVW3hcy2o5Nygnbq7S6sJA6wqVF9mg7+jk2jHgPw0GefL/SrSfSMY/c5t+tPKK3vmcQekHRww8tidb31lXmQPIvI870w7XOQ7Za2fy5TeQ4wB1GhjmTrXdb79VfmUua+UV51k3a9MEk9jU+3cX3+bgbYlL2BOx9Y//o+oWdYU5usrvrsJu3JfKzv7ITvnpPlcW293TpPzKOzM3N29sicZHydbRfyTw7IfP7alN9r59RN2Yd66T6w22ELkhdvmjvH982NK6tpMB90pWObBpAMfeBAKgeOsp9KIGnTLCS213ioYmXHZ0DbuE6eRqlDA7hBdveBpH15JmdTsIdBLQdl/rykh1/ugwDMg5+pbCf60whPARbi84nyvDEEOS3YtX3RBGjpgkO4LpZrrwllx7qpHKVO1t/JDT0HjARPSX0K7CjXO2ju2ORt68IS2dyY608E0LqyMwAc7Qp9EM8b0wy0KfEH91OoP3nhRi27z27bxmBn4pdPzT1md+obLX/rq6YBSGb7jffhGo75HLYpm7gNpWOetilbUS8fx7t3vHDPRdILN+z5yCnFR2VRaEWVO7ZpuwCSCdBY0OHAosFXWAnkK4Ae5Dj8lASoQF7phipt0OBPzdO1x0EaW90bZncfSLYQ6W5G0iZqYy7epufStDZTedlQgZjGAtELE8HSgQdfZfL95vIwiGhvrr5MFSQVO1L4IE1MAZIKNBK4Rrt9PR1b3WqggKtgu24v2S1D6Qu9XYm/2apl61OCd92mJB/3sQKNBO+dNvPrlC8Dzsaet9Wjb2g1NfpZ+gXn2T5L+mH1fuJz1xCbxl6n1UFlUWjz5I616xG3ep3sk48XVnz0+Ye3/8Uc3/sv5h8uXZpsG4CLWxO7TLd5dgEkORB2BKWCjQeq9LqwauZW3ARQdW6ePSAZVxwzP4+jQZWw0wNien0EZg7KyfZ4n91rAEnXti4AN8FObWu+02fR3xJ0ujckDwfpFjNtkUbYjOXZ68tleiCR5UlQ1YFLbYcKS6EdAWjiymkHEL2tsT1iWz1ex9oXYYnFRbsIoEQ5LbTp7UpBcrhNsX5pU8Y3rj4OeSPtlvUmWklWLru6ktfifDM+ojmLQtkPNl77yHxjz2W9/JzqHVs2rtuMprbd7+3WtvtGc8O9uf3/3vq7yUBScxAJn0KZh4NkLo+8Zr3nBfhRVhY7tglA8+kaSJKo0y1cHXwKIBkgMoFUaUM1SGpARnbKsMbugi8rbIq+le3hgLARkJSgJ33Dz/Mg6SEyXVXTwUwHrugf7o8MLFFeDk2urgRw8rbS9TLU7aUVwxfmlANaB6r1dmkg2cIn9+3AY9U3wgaCyBF2Z32jljnQdt7HOF7LHCb7U57T/EWhTJ/qnMqnsFRuTZ7S9UjDuJQaUEHSPie5arGVyieQpDwUSuM3d16An5WAJAm3AIva84thMlG3miV41UCblqdqwirZXfClVp+0m+rPxdv0XJpWPpWXDStASoUR6kMtzJUpACbYpIOZnlcdI332uXQLwr7MdJVxQD1Fe/XnGrurs3p9KUjqedS2Z/s19IvqG9E/NXnk4w6ZepO+dOXKl400vSBuVN9m+mCKsnJzFI/nx1PUKcuoKZ/yUCjLwDnG1hgNMJB82Rwc3jdH7K3tqcVG5VGYM9iC5A9+8IP4jdLm77smV9Zq4gvwUwOSnTy+PLtNnKwadm58Pp+epwBrEpgCWNn64uqmzGPr7gAYrTAOWZW0A7Nkd8GXVTaFgd+xld8QNLuDz9mznXVaEVDR6SNbbwCbnufj2vryZabARM8w2m3u7oqny6vEt/UEn6ggxP3l7bn3iX0jvFuPf7GlHngSWOL+CqtwLaj6eu22ebu6qEOi9MtQmzo+IbsU33T8WmV3YcWVrWRK3/hz3n7eL/SyzVPz8E0ej+Nsf1K/riGsmaemnseoPApLfuB57DE/L12HNIyvPg0sju/Z5yL9x25pk8B42FfIkPQa8b722mvm3Llz0RYqv+ZayrvasAA/RWhignSQRM8b2ucIPexwSJQ/s6OBZv65xfTZxLQsmybaUA1tBGVkuw8jkDaNSevy6bxdtm+ydvNnLatt0qCX+TpMItIuaVOdZvLQl15PMJk+29hCU3hBRzwb6J895PDWwpVLs9vMDnZ4Hmprt862PlEOr5eBDbWhDDS0mpi2LXn+k7ZqeT3huIVEDsa+rHvv+za0eSpB0vZxWNFLnt9MtuXJT4VQs1spg/xDdXXtpjqk39N+kyBp/e/BVW752/Jum4df2p//OTNPP7odv2hTnyEkn2825HNn7njKvqqZFykP2UP1UzydI9ysdrbV/3FFci6CsnbIFUnrXLKPwm11OOzGQIUGoIHRGnj3EUByDauLY/uHz0/8eGx5U1xHdlBIZdI5hRSPEPenoRqIIGkv3LSgqH4Jkjae0uZg51AnIz8GJjQADSyvAVqRxA+SL+/L6fXI5yiyT4ujtHWEvH55LM/XYQ/qmF53c/BpApLWIC6udRpo66W6OUhSnLSNx6/TTtS1mwMB/brL/Sq3l8WWfNhybx8DmJ8vTj73W9pnXz40t2e8Irfv40ibl7S4dfjJ1svrpmMKrQ2543XYhzrmd58Z2yfudyT5xVZYXFw8bVXHvD57nHtG0ta/CftW1W6UuzsDCX2JvoQGoAGrAT6f0bmMW7VWeH18zuTHZIMWR2kIoekaDbgVSRIdhTUXrjKPXJHkdvHjVdqAsjGAoAFoABqABsZogOYpCseUMfU1ZIsN6djWwY+nrhPl7cf4iVvbfWLqS59SMLQiyUVu61+nDVO2B2Xtx2BCP6OfoQFogDTQN1/1pVM5U4S8Ljq2IR1PUQfK2F/tR5CciwissAkkSegQ+/4KdC66hB3QIDQADWyjBmgetbbTMeZUaHlKLc8OJG3jaGubi50f5xxQkyd3LeIxsKABaAAagAZ2VQN2fuRzJD/OtbkmT+5axO/PWMqCpBTdOkVhQZJ+kLxUL9lIYSkv0vZH1Ohr9DU0AA3MTQNzmKesDSW/kI0UlvIiDWOMNJAFScqwibAGJEsDopS2ifagTgw4aAAagAaggU1roDQ3jk3bdJtQ/+bH1exBsiTunIDGXJMra/bxyV8tPjbXBv939OZFOJ2Pu3/fyP+6cbp6pvGZ/Ju99m8Bpylfb2/7N4qr/d1E+duN6V8D6ratst1jypZt+M4cvjWmHFyzHf29+/1k58Yx8+OYa9Dnu68n6uMAkgfmxvF9c3R839y4snzjlxUdrUiSkX0hr48f9103KF0C27P0v6ZbgPP/YW3/Fzv9pP99Pajuqh8gDhC1JSBZ9V/bVe1u9er+S5v/V/fA66fvk9a2ctkeWJYDSf0/qbv1rgsk27Zr/yfdtavNP4+0Wn+uy+652bOudqMeOx5WNq9l7pG8Pn48j7EJTcytHxxIXrh610HkFCBJoqNwTINLIGnLlR9exzL18nLKxx4W9dUun/bqhwfFZ1HK5Y8ZKNsFkm37S74c4oepyhlS51R51wmSU9lcX85WguRbX5kHz+e0AgmQbO8Z9drbhWtoTqNw6jbJ+VTWI8+nrh/lbb+eF83Fm+aOW4n0q5LLrEhywfHjoULRQNKWV1NmTZ6h9nTzl6AFINn1V2mglHxZuk6kvfGOefXZY6PDvcib+RY+zO4pywRIbs73mX58/1tzCpBc85fhTF/Mbryuz04+n/HjKcaLLa+mzJo8U9iDMtanq6l9vbh86745OrxpLjTLgaQUmzwfYrgGknR9X7l96VTOcmEJfipAUoUe/bruFnBui7xvRdKXz7fbE+hyW/cfmPNNmk9bWXVbyGzrPikn3PTr7fb1aWU0A2xqVJ+mA7Nj06jHADz02ecL02ccu88AXn+S/qdz/pnEHpB0UMPLYnW5lTOelh63dbZb2qfuv6WV1bYcPIU6kq13We/XX5lLmQm/vCIp7Xphknoan27j+vzdDLCpd/znfOHa2NrUJH3T9Wlq8wtz+uTTBM6cRmxcrhzZpvC/4L4PX5i2f0nrt83DL+3/cj81D9+kOIS9/Z3R7iavk3OZPJ/Ktr5y+9KnsgPlbO84XRwd3zUHF20DxoOkJjQtrlYoJZC0ZfCy+bFMk/XJvDK9/rwAPwHENACL5avQ48tMrnMglQNHKboSSNo0C4ntNR6qWNnxGdA2rpOnUerQ2jLI7oIve20K9jCo5aB8jT0v6eGX+8DXy/PE/mF+6sZ56HMTeYSnAEMREuR5YwhyuhO/7ZMCSFqQiOXavKHsWDf1qVJnrh1ZSAptS+ojYGbwqlzvgKhjk7etBJLXnwj4CkDV+im0ywJUtEuxc6BN3X5t+4EgrRPG+plNz1u/SB/4LxJtOvXzKfOTz/PCtHHL9i9AUu9bGifbEWpzlRY3VVt52fzYli/PeZ2lNJ4Px9uhu7H9tDi6Rc/yjQPJnJBkvDwvGdwHkvZaKo/CUnk8bWh+fm17XIAfsaIXwYZBjb561gVJD3IcfkpiVCAvBxI2XgKgBn9qnq49DtLY6t4wuwu+rLGJ2ihtpXitrZSmlU9p2VCBmKYxCUQ4qOEA4fvN5YkwwvuyAJKKHTqYTQGSCjQSuEa7fT3pqiGBsoDCYLtuL28/P5a+0NuV+JutWrZjtGxTkk/xsV8h1NuTg/mknWElsQXi0EYBvGk7fJ6knGib7ofedsTruY9xPGe/5eYoGS/Pl20TlUdhbXlD89eWi3zbM04Xl+ONZjhI5gQk4+mcwj6B1ICkLcOWV1OmzCPP++zpphfgZ8oVyQRK25XCrj1WcD0gGVf30rfJ45ayBlUCzjwgpteroDzI7oIvK2yKvhC2xnirb1dOF4CbYGf0QRwLpQEsQaeb14NAusUcV7fYalRrY7lMBxtiS/OUrYT5cgaAhhsgEvsAACAASURBVICZ1g6CL7Zl6oCIA5W3NbZH2NUBJztOP/nOdO0Nfsts3bagqrcrBbDhNiVt1vq95KMOXHc14EG0+2WCViXJT2k7fDm6v3Q/9LZDaxvikscL5uTD3Nwk4+mcwqnaYMurKVPmkedT2YNylHvLDMcv+x3J4SBpO1kKaOi5JpSpQbLGTs2OfFwBfiYFSRJRuoWrg08BJANEJtvmErwqoG3YSqO1vcbugi8rbIp9JNvDB9tGQFKDCOpPGeZB0kMkB7kcmA0AjSIkhdXVsALpoCaB37ytsS+470sgSRAZVzutX2T5ertSAJPXSP+OOC/6SLcpab+7XtOAtxUgOaJPhK4Sf+9Q2tA5VOZfxi+2rNryZD55vowduHa7xsfC/uSP9hny9jaJTwpJnltxaHFSNLUgKa/Tzsk2re4aW7QyyytZHowSaJM3ORV6Kq4jMGPbyK19eZBUAVDaUANtWh7ZNvU8b1vRl1p90m6qLxdv03NpWvlUXjasgJYihGg3iFyZOrAsvWLVZ1+EIF8/QY/Xmm5Tq8Nu+3R7m/CCSQrJ40ByuE0le11a0UcV9WFre7arfr19nx37XW2vqiyat+QcJc9t/Vrcquyi+qhOCqk+eU7xCNennU34eukVyZzRJCgKKZ88p3geTgWSvC46ppDqk+cUXw4Lq2g1K5KdPL48u01cBNDOdVycBViTwBTAytYXVzdlHhXAaIVR2ybmtsjjEiQXfFllU6grB4tuUtDsDj5XoVzaz89z0MfzBNDobD/zPPw4X2a68karkXbbvLva5Vcvu/EdLRchydrl7bn3if0tRaU8d718u5q3Jz3OgmQHtny9dtt82NY2QSm/LrWh44M+WCj6qAIkafs78V9oH1uBlf1r7cz5q65/6WWbM/Po3SV90OcjpK8VlmmuopA0Lc8pfhUhr4uOKaT65DnFI9zd8bgSkJRCsucyzopKi7PxU4CkVjbF2ZCOS3bkhV+AnyLsMSE5SKLnDe3zjx52OEjKn9nRQDP/3GL6TGValk0TbaiGNoIyst2HEUibxqR1+XTeLuvXrN38paRqmwqrjmyyk3ZJm/L9zfqts/XK0/gxwWT6rCRf3fNgkKb7Zw85vLVw5dLsNrODHJ6H6u3W2dYnyuHPNjKwIR94mCmAWYDJ5FlJvgVO29a8nnDcQiJBU+uDe+/7NrR5dGjTACz9CZ1QJreJaYHamQ2XBknfJ7KP23axdGFjDiTjSz7Mp23/kgYac/K5/fmfM3P2+claQSfryyF+R161z/h8Zf0s5zDyvcxH8VOEWtkUJ+2h+CnqRRnt2J6rLxhITmOsJqDaOHLSFCBpy5L18nM6ppDqRjiNDuBH+BEa2JAG3nxongIkVSDbRk1qc1Rt3NTtlfXyczqmcOq6Ud6G7icVX+4mB8nazi6JbSqQtLZQPRRy+7Q4no7j+QoXfYO+gQZ0DfgVSfwg+b7pY13zGdVDIfezFsfTcayP2W33y0ZAUopNnk8JkraDZPm5uG3vTNi/m4MU/bpsvxa29Xu2ibfJ97c/euq3tM8emZOKVYRtahtsLY8BOcfJ86n9p5WvxU1dL8or62BT/tkoSFrhaeKbGiSlc7U6ZR6cz1Ow6Bf0CzQADUADqQZoTsvNqav2F9W/6npQftrvc/HHxkBSEx7FrRIkqY65dADsmOfAQL+gX6ABaGBbNGDnNW1u0+KmbtM66pjaZpQ37dheO0jmRMfjpwZJKptCiGhaEcGf8Cc0AA1AA5vRQG5ey8VP0U9UNoVTlIkyNqOfKfy+NpC0giuJjtJs+Nprr5lz585N9tZdX91TOBJlbO8gQN+h76ABaGDbNNA3r/E5lY6namNf3VPVg3K2Y1yuDSStIHJiJlFS+tQrkhDjdogR/YR+ggagAWigXgM0Z0qfyTlVpuO83sfwVb+v1gqSskNyYgdI9nec9CXO4TNoABqABvZbA7k5FbrYb12suv83ApIkdmqcPadjGxJIUj6ZzvPiGAMEGoAGoAFoYJ81QHMl+SA3Z1K+XDpdjxDjaYgGNgKS3EBN0BYkf/CDHyRwqeXj5eAYwocGoAFoABrYdw3k5koZL8/33W9o//h7B0By23+4N/nP7sfm2mdvJwC+X4Oj+z/g/D/A98sXuZtC+3/c2v80w0eK38L/hsNfim+2/f65g/bnAFHGy3OMfeh7rAYWR8f3TfI5vGkurHFwcTHbY/uxb23PbkVSAtuzx+Ya/0SAe9tc4fHx+GPzvTdWKdQAUdGOVda1fNkvffhx6j/y0xfvmJdG6u/8Z4/NtSWuHzuIVn7dpCAzI5AM7Tpl/y5jj2cHbJP6f/mxs3K9jRx/sGsefavNqTS38j7i+Xg8jufRj9vUD4sbV+bhNC7q+T8j6WFRX+3yaa9+eLDmlcHtAsl2kJR8OUSbU5UzpM415d1VkFHademT78zp8+/M4Vtr8m0NNCl2tvqdkZ01bUGeNd+XN6cPPqeSXgkotTTKg3Bzfbatvp89SErHzmMglKAFICn7rHxe8uWAAf3GO+bVZ4+NDvcDypnjRLurIKO2y/8v9oNP3pvPhK/aueWamqPOYdOkmtdgMRdH82r5Xg3Nwz+6BmYDkraDSOR8RZJ3HKVTnDyn+NWHJfipAEkVevTrulvAuS3yvhVJXz7fjk+gy23df2DON2k+bWXVbSHTVnQG3urt9vUlttCEMsCmRvVpKvqOTcs8BvD+t4ZvyXbBp91Cpnzplq1Pt9f5VbgXobxvzfXQ/jSe0ils83m9ewCjurpbxNIebdWv36Y4tgJcxfq+/spcon5zobfHtjltB7NbBbT2uliXvTe4lUpq+wtz+uTTZNK9/uSFORU2+Gva+lwee13Sd3k/xLaFrXet/3geqQFXv7Mp7ZuYL9iRlms16/PHfNGvJ+bR2Zk5O3tkTmJcqnHuMxzDN3KOHHoODUFDNRpIn5Fc8/ORmoFW6Nozkrm8Wvzq4wrwE0BMA7Bolwo9vszkOgdSOXCUAi+BpE2zkNhe46GKlR2fAW3jOnkapQ6tLYPsLviy16ZgD4NaDsr8eUkPv9wHvl6eJ/YP85MWR1DDAeDSJ9+y7dgADhx2AjS0cMDALuZTrrO2qMDV9mXT2LJaYLI2exs1SGoCSGlplTa5tqTXd0GOwVMEvFA+tVdplyvnedqWblwoO5bbmG795IO2LF8OB85gDyuHIC4BVdXOtP0Ep6km7Da9h98Yn/hO+IN05/K0drcaBEi2vuD6x3HJL3ZOpU8pn02ToNmXH+nQntUAe2v7ZXNwaF+8OTSX6Ya2oZBWJEsi3azgC/AjVvQi2PCXQDT4UgDUgxyHn5JoFcgr9Z+0QYM/NU/XHgdpbHVvmN0FX9bYRG2UtlK8DXNpWvn8Ou04QEULhN0+kSthpOMUdnSISPOEshWQoTKzYemaBGa4/TU2+Tyd9rv6OFzpUJy0L9hIsOVDXkYBokUbknJDv8l+qMkjr3H+LfkyasS3l/tFhXlRVjeP3gfZfo71837EMfw1XAObnVOH24s+no/PGEg2prl409w5vm82/QIOB0n6JiXDzYqoAD8KEHZsVcHGl5msSCZQ2q4Udspzk0kPSMbVvfRt87ilrEGVsNMDYnq9CsqD7C74ssKm6Atha4y3vnHldAG4CXZGH9RMygJgknrC9Q5YaNWNl5msNOnAoMFO/4okrTKyrV+5EtaxQwCbS6+xia00iretLQjGlbfs9iy7+Qmocr50PnphIpAlPmPXhvKpPs1vEgqr88i+0+wMcSkEM7vjqrC2sthtR2yvK1frG34NjrVxh7g6Xci5lM7hvzr/wU9dP6kgeefqy8nzR+t2HIGkFXhN3esfCAX4mRQkqcPSLVwdfAogGSAygVQJXhXQNmyl0dpeY3fBlxU2RX3I9nBw2nWQlPBl267BD/nE5ddgpR4kI/hQmZ2wu0IX+4ryZmxMgG+OIEkQmQBnt70SZDvtD37g7XXXJOXSPQBhzn+Ir9fGfOfU+jagv+fnqxQkrxyao+O75uDiZg0lkLSC6RM+T+fHqxVbAX5WApLUHwVYJGhjW8zkAxUAJXjVQJuWh6CgGJbsLvhSq0/aTfXm4m16Lk0rn8rLhRn4IV87zboXQ7orURwY/HONdS+NFKEwt/JVsnMpkNRhk7ffH3fBqpMnY6PzE8FUJo9/JrGF4dS3frxIkBubp/P8o+q/bntl/Z32k8ZcG21brG/bNmXz03UIqxYa4EeaP8K46Fmg4fMoP4YfUz/CH60/WpAM29pHt9b9+4etMdQxHCRtHImZQspnz7U4Sl9dWICfGpDs5PHl2W3iZNWwM1H4fHqeAqxJYApgZeuLq5syj627A2C0wqhtE3f7sfV/ye6CL6tsCvV2bOX2aHYHnyvg3drNy2iPHZCI3zpMXrYJ8JO8sOHgg2/96kCmwY76AgjXhgQbqj/Zam7tlxDWtrfSptCW8qpkF6zaeoItGiTm/JS8gOPL5v6V0ObP7VZ/C/Sab+V1OjSKF2Y6dgd7no/Z2ra+CH63jwokL/6wPnP9TS/bPDUP35RpOO/oi48RHCfQTfMmheS7zc2p0C/1wTaG7K3tza9EkgMlSNp4KXjK25fG8013XICfDiRmBoiDJHre0D7/6GGHQ6L8mR0NNPPPLabPVKZl2TTRhmpoIygj230YgbRpTFqXT+ftsv2QtZu/lFRtkwa9Xb9Lu6RNQ/TRgoqHjC5UtXChvkRC8EArb2Gi02DH2cXg0JfXApJN93BLz0jaVS1fPz1DGGFUea6xBbJKkLS2BuBLnhFMIMjX3/UL65dOm6z9+opc2r4U2Hy/MRizbbR+dTa2ftJ82wHJuMIbfOnaJH1Jb4STv+0XBF8/b69WdlZjHYBmfooQdNs8/NL+/M+ZefrR7QQMsuXGa7XyELfPfpvXnAotbrMW2xXJGd1wNJDkTpYDQDu3cTKel4FjDFxoABqYjQYE9GbtevcRQHJGc1W2n7bMRjlXaueYU3G/zOl960BSCtw2jMfxY5mWcwLiMUCgAWhgYxrobJXn+oJWJPGD5Bvrqy0DxBo/yTnTXsPj+LFMqykfeXLjeXfitw4kNSFLoXPhltJ4PhzvjqjRl+jLbdAAfzyifQRB77uTz/2W9tmXD83tHYSZbeivXbZRzpPynLe9lMbz4Vgfy7vol60ESdsRVsz0yXUMBL8/Qs5pAPHQADQADUAD/Rqg+bQ0b5bS4ON+H++qj7YWJHmH8AHAj3keHO+vyNH36HtoABqABuo1wOdRfgwf1vtwn3y19SBpRV7TYRgMGAA1OkEe6AQagAb2WQOYU6H/ofrfepC0Da4VPjlnaH66DiEGGDQADUAD0MCua2DoHDk0/677b9/atxMgaTuNhExhqSNr8pSuRxomEmgAGoAGoIFd1gDNkxSW2lqTp3Q90rZ7LO0MSFoh5sTM4/kxxLvd4kX/of+gAWgAGlidBnLzJY/nx+iL1fXFnH27UyDJHS3Fbc9lHM+P4/0cAOh39Ds0AA1AA/0akPMn5tR+n+2LrnYSJKXgbWfm4rT4fel8tBM3AmgAGoAGoIE+DWjzZC5Oi+8rH+nbrcG9AMk+Yfelb1rk8X+pP3u76g11n/8Dc37vfri4+z/g/D/AN92PufrjD1OL/90u52//QzqXD/HbfXNG/6H/5qIBOUfKc2lnX7rMj/Pt1vqiaV42B4f3zdExfQ7N5Q0DSN9/bdeIzgqZf/qu6RX+yQfm2rPH+Y+EvE7+8WC3iyAZ2yR9+sU75qWR+jv/2WNzbYnr+zSyqnSA5HbfRFelC5QLXcxJA3w+7Z0vM7uAc2oPbJlufC3uHN83d66+XLXStS7HTwGStbbS4KjN7/O9ba48e2xyq10OaJ59bL73BuuoN94xr0rYHAlMfbZu14pk2Zd9bW3TpyqH9dmK+qe1eVxdHjyxIrmsH3H9OP3Bb/BbSQPj5lT4tOTTuact5gaR1mHrAElN7BRnw3LHFaDFrUQKiFwzkOwlSFpQL8B9uT+36yYGkNyu/tol7aEt0F5OAzR/8nSK659T4Vfut207Xmx6G1tz2CpBkoQt65VCl+dp/hxIhmf0+lYeVejxZb764UGEWLn9y9MSe0J56da73Er35fM8yYqqA2B7TZpPrVPWp7VXbu1reRxg53zZmGaETUmbBMBLf17L2tRzU3vrK/Pg+Qtz2vmEVcKQfu99Xs6n5t7zF+bBJ+/F/o1b2qEcnpb0r1qfXJH05XObkvpdGd+Zw7feM4dfM9vV5zJFnueyrsY00qavvzKXhL99G07Mo7Mzc3b2yJyo6dxHOE76Hf6KYwV+me/YmGZOnW/7oL3+vllcvnqXPR9539y40n/Rqh27KpDMCd62R4KjPE/bnIMfH6/CF58UKkGyrbNQbgA2DlDdFUkLuClY+jxs5TSCXxvXyWPbEPIlbTz5INnm1+t/bHRwy/myresae0wgtan7cg0HZf68pH/cgPvA18vztP4ujIEAUBz6rj+xYMZgK+RJQK7pgmRbXyHt/W8dsPKyuiuSFvxY/VbPn3xnTp9bcAxtYeAXy1LKboKdpwkYfmruceB017Gym8Y4HyTXkA8Bkm0/k08Qwie7oYHp5tTd8Me+6jrd2r5y6KBy0zC5KpCUnUyDgEKePgokAyC2kBVghV4ooRWwyUBSXwHtgpwySKUNDhBbiHS+kHlotZLaweE4HmfA0JXPQY5syuSP0NpnUyinYyuV35gml6a1ObaDXc/jFIhqZNxkIBlWBjnERUhMwZFr1x1LG+S5a1MXYDtQzNvujr1NHKTb+lK47NjUKSvjY+TDShw0sJUaoLmUQn4PKM+puBdwX23b8eJCMmDDG9y32u3VTTRoHSCpiZrEr6WlfsjBj49vQbIdHG5FjABMBZv8tU0AuG65uh0qSIaVxGTFjj9TqEGVtFOeJ9oJbQ15ZD3+XEChu15vg/N3jU1kQ8k2V85AiKVyZRiAjINUZzWuEtpaTXWBzqf5+LiCGGzprkg2xsMs27IO2+Xx2iqbdHBt7bR97G3iW+j8ONYn/YbzrQSDtO/b+xni4QupAW3erJ9T4U/pz206FyDZmMu37pujw5smBcz1dvImQbKu83Lwo68Q2jI3CpIBIhMQleBVA23yGg0OavIk1+V8SVvbAj5z5efibV1TgqQKUmJ1sAra+JhaEiTDFjWHW3qGMYJdlU31IJnUlfQnbxeO6+4n8BP8tP0ayIEk+nb7+7avD8XLNvuzImkdI4Uvz/POy8OPuhq4YpBMAJHqetauwKk2SfCqAcnsyigfKN430qYxvvQAOAFIyrYS+GhtprRM6FYD1WcBmQ+qoI3lzz4/qQOm3H5WVyilDfLcta9bfmd1teOHGtjkbcNxXvvwDXyzWxqQc6g8R3/vVn9Tfy6O2Db2BffizV1zcHGzjV3HiiQ5wAqdPhTXH+ZBkrahrzGQs+UlK5IdIPPl2e1fHcDycCZfIvHn9ofTW5DsAFkAK1tffElHgyoFwDyUsussaKgv24g8HSAhjRV8WWmT6y/F1rYf6aUc5pOq5z3JxjZUoa3TNglo/txuAesreTJ/W5+ERn8uXu7JPKNp6xu2Isnexk6ey9Retsm1pbXd+59etnlqHr4p03DeahS+gC92QwM0nwIid6M/a8bl4kb8Rxv7zzab/1cba/Q6QbLGSd08BfgJUNECXftvOBHaAny1zxHaVTcPOxwktTL8NRyICJJ8Pe56B2A8TwBZeunHvQUt2jAE2lzetl3a29gEnG0b07e21XRrH/9nmiE2FUHSD2jpT+7rbh/nbgJhRa7z0z8M2mz/hu1m//xg+7M7HCRbKJTPNvKt8rQ+d70rm+cJb01Hm2x9Hk4Hg6TTbwu+3v60LuerpH3BfnWl9rZ5+KX9+Z8z8/Sj23hOMNwf6vWW0yHi4UNoABqYhwZ28r+2Ia55iGsX+yG39StXDnex7aPb9O4jgCQAEl8ioAFoYEc1AJDc0Y4dPenDH4WbXVgd7Ky85eIB9E1DK5L4QXKMSYwHaAAa2EUNACQBTgVwwqDvDnq57Ru2dZNnCuE367eTz/2W9tmXD81tjDOMM2gAGoAGdlIDAEkIeyeF3QVAwB18Ag1AA9AANAANTK0BgCRAEiAJDUAD0AA0AA1AA9DAKA0AJCGcUcKZ+hsNysO3ZGgAGoAGoAFoYPs0AJAESAIkoQFoABqABqABaAAaGKUBgCSEM0o4+Na4fd8a0WfoM2gAGoAGoIGpNQCQBEgCJKEBaAAagAagAWgAGhilAYAkhDNKOFN/o0F5+JYMDUAD0AA0AA1snwYAkgBJgCQ0AA1AA9AANAANQAOjNACQhHAU4fj/4W7/J9v+F/j2fUvSvtle+uQ74/4/epIfEJc/Tm7/43o3/KT5DnHoW2gAGoAGoAGpgcXR8X3T+dw6UOBifc770Y9+ZM6dO7dRG6SjmpMPTAtWj7vHn73t7D3/mU0T4PXGO+bVZ4/NtS/eMS9NDK4vffhx15al6jow3/visbkW2tPxw8T2r7v86UAy/C3iJEC6vrG1bn+jPvQtNAANQAO7rQGxInlgbhzfN3euvrxRiJslSCYA5Vfsrpx0xeFB8rF59cMWxiPsrQAk2wGat6nN07W3k+agV4Bw0vaKMvYh/1tfmQfPsQLZ0c8+9D3auNH5AZrDPRgamJcGEpC8cPWuOTo+NJc3fKPcXpD0q3lXPnzHvBqh0cZ9YM7bFc0YtwoRTASSbuUVINl7o3r/W3MKkARQbPhe2atT2AeNQgPQwIo1wEByHquR9sa49SB5YuExwJgFM7tN7ADtA3M+dmjYQrbb0OHDVzGbxqfbuLii6fLxMjiQFkAy1u3z6PWFsnpBsmu3tjJbnOAchH1rrrvwhTl9/q253tDzhnKVj+JtPv+59z5rd1wZDFvNIc+p2HKOW9oh/cEn73VuLtefvDDuumiXrU/aE+ruBUlhz/MXJrE76qAxtz96as7OzszTj253bCr6kZWBfEwT8At0BA1AA9DA2jQQQdKvRt41Bxc3f0PefpBsHPxZCLRb3Q60Isx5/57/TKz6ufSQ1w0ABmxxJTPExXPeV30gmT676eGUbEgBk0AzhvF5yZAvnjcBkNOt/F6oIVD7+itzyQHkd+bB1xbY5HOH9txCZttOD4QM7hxIesCMcBji4jm7vgnAqqU5kLSg6eyydQZ74nkXaglu0xd4Qj4Os6HNWr0AybZ/e7WT9CWug7+gAWgAGti0BgJIvmwODu+bow2/ZEPO2F6QZDBnnzX84gNzxW5r28lPgCS1tQ39te2qZAYasyuGrG452WrXhBeAOquJWt5QnofP7oqoey5UhdvMAA9Q5VfoOHRJkFSuD5AYV/cy0OigMAIgL8fXpwGddo0H1xRmXZ8VViRz12jlt/3PbcQx/AINQAPQADSwHRrwIHnl0Bwdz2M10gpnJ0CyadxqZHz7WQIavcnNtrbtCmAHJPnqnwW6HAA2qwdJB4zSnipIFoMhgTAOdgpIBuhMVv74NrEEywC9OZjrXZEU8JktJ2lD2j4HjHw1MtjUuGsUKKV0hGvbisEElWoW/oA/oAFoYKwGFk0zr9VI25BdAcmkUxwAhq1kgsgEyjIrkkkeAknakubC30GQDBCZrB5KcJTnHCQFFPr+4ODK/dcYbcUQIJn6KNE0wBfgCw1AA9DA3mtg0bjVyPvmxpX5TBhbC5IcFuXg4mlyddLlrQRJd213e7lZw4rktFvb9JwjB7t0RVKFOAmO8jz4Pbsq2PeMpIBP1QZbR2FFMneNBqoAs/ncd9AX6AtoABqABoZrYOGejTy8aS5I8Nng+c6DZFiRbJ9P9BDZu7Udrmu3v3mHr35FkrbV43a91YgDW/6SELcpc5xAWB4kO7AWoNFuc8tnJON50xgPcgSq0gZeX5qmgV4OCju28fFCdvLt7bC6yu2kGxa9bHP2+cnef7MlnyBMtQl/wB/QADQwVw24f7aZ02qkddTugmQLXOlP+th4/3JNC4nsrW32HGULn35QyXLim9b85RdtBbQDs2GQank5JIWVz1iP/BefJG9m4NeCZBO2m+knfdxP8XgQjEBG0Bbz2De4u88hOkhM8vg3vXneyUDS+cDb2T7bmQPbxjTvPnI//3N29sic1PgPeQDc0AA0AA1AAzPRQPz5nzmR7vxBMgNIk3ZqAEn5jOSkdayjHSuuI7O1PSc999ty2zz88swAJFesFYwdTLzQADQADUyuAYDkbEUFkOwHsMY0uwCSYUUSP0gOkKzS/GzvWeg/9B80sI8aAEjO9qYMkKwakNsMkm8+NE/P7ErkmXn0Lm7AVf092/GK/kP/QQPQwH5qACCJiWnyZW7cTPbzZoJ+R79DA9AANLB/GgBIAiQBktAANAANQAPQADQADYzSAEASwhklHHzr3L9vnehz9Dk0AA1AA9CA1ABAEiAJkIQGoAFoABqABqABaGCUBgCSEM4o4chvJDjHt1RoABqABqABaGD/NACQBEgCJKEBaAAagAagAWgAGhilAYAkhDNKOPjWuX/fOtHn6HNoABqABqABqQGAJEASIAkNQAPQADQADUAD0MAoDQAkIRxFOG+bK+z/va+N+T9t+FXx6xLfZN3/k78wp19/ZS7Bt9P6Fv6EP6EBaAAaGK2BxY3j++aIfW5cWWKym6gjZvlf2ycfmGsJXD1Oz+V/Ynfyf2DOT+Qfvqz80ocfp3aQjV+8Y14aVR/+UYf7d+XHDhC/M4dv9Yw7gOTom9zK+3DUOOvpb5SJ/oYGoIEt0cDiztWX2866cuigctMwOUuQTDrUr9hdOdEng/OfWcj82HzvDZb+xjvmVQmbSZks76j4sk3Vk6m1U9o+yp5l27Mn19eCJPqgvU/BF/AFNAANQAOz0cDictIZB8auUCZwmaSvZ3LfapB0K5ECItfiw4lAcmP2r0db1UC9lj5rTAOQnM3NcHbaWJcGUQ80CA1AA0toYHFwkU3gF2+aO8f32NRaVQAAIABJREFUDVYkmU9U5+agrXJbOK76hfy0Ha2sWHa3rnOQmrOpMY2DQ7u17vPQFv2rHx50B08vSAqbnz02uZXZvon50iffmdPnL7qfJ596uxxkfWuuN5+aeyzfg0/eE3a/Zw6/FuUkzxL6dHtdWqctW/Q1bSFTfUk5BH7L23T9ibCX6rMhr1PaQ76RdgsfnT4X2+VvfWUeuDjhq0x5tz96as7OzszTj24LXwt/dexAep/ukQ6NQAPQwC5pYGGfj/Tg6Fcjjw5vmgsbnhy2d0XSg5oKaNynDiT9M5Yxb4iL5zZ/L9TxwdgHkul2uwdUgtIUMAk0YxgBN+SL52TjY5PYzduaOfZAx2EnwCIHGwZR994PbQ1x8bxpjIMyDl+dOhk8xXwhLp43ATK5TXQdA87JbOLt4XXyPuXHwRbuH2qng8QXhgM2AXP0U8hjwT3GKb6kmxtAkvsex6QLhNACNAANSA0sLly9G1+22fSWNhm3tSDZgUEBaARgnXxemO7ZSvaSjIe92pd0+kCSoDEMgmBDZzWxAK85e6Td1I+lUIO/TpwKOhKo5Lk2yEMeBo3ONlc+QZwHWQ5jLk8AsDJ8SRvkuWZTiEtsKORr8mV2/OYAU+SX7XB5Mm0mQEWI1VhoABqABqCBHg0sjo4PjXtOMmxrx/OeC0uQsGza1oJk2DrWVuccbAmQlBDXBTUOogIEO/2zepBM2sDrj1vnJRBK03IrkgnIZSCrA04BON02uYRFZ6eAKrKdw5U7Jqjktvpro12T2RTqyJTXHUOZNgTAjPZR25qwwkr+4G2NeQCSXT/zvscx/AMNQAPQQJ8G1Jdtjm4pz87FyWf1Tt1ekMw/I5lAWGY10IEkW5FsOy99LlECqM+3XSDpXzIRzwnKbdsMZDmQlHmtPgMs+ecu2XZ0bjWPwyM/TrQ+ACQH2RTGUaaNbd/TeANIdn1CvkEI30AD0AA0sCkNLNLnIV82B4f3DUCyT5B5aOuuKvqyakAyyZPADNmTB9UmrIaqkKltV2dgtvRcZrFtKgCT3TIUcKa2lV5skauEFdd2Vt8yEOYgjoAzszony1LBb4xNwSdqedJf9jzThuwzoiK/bIfzeabNuf5APLa4oAFoABqABoQG8DuSwiF1RJ8HSQK6a8/SZxsTSFQgzkNa3fa1tnVO9a4SJJtg9zXaore+c5A69M1tATm5PlAgy61GPif404BLA1ClvgBWfEvYl83BNVxH28PWzslsCrYrdugaVNpAfnM2aS/bsLYMBEl62ebs8xPcNMnPCKEFaAAagAY6GnBvbeOfbTJAkhVMCSR9WQ4c6Wd9Qhghj4AsSU/B08KEVoaESA+g4l92bLl8hXCiFUkPOL7t8Y3usT9eHsCm+/M/DBIDICV5ONS5/vGrakke+dM3tJrHf2KHv73M+pnedo7lye3qyWximpNlsjZ27IltYJBo7e/4k/mRpceXhpjvOExHiH33kfv5n7OzR+aE+SemI65zM4VvmKahD+gDGtgbDeC/tjchdmVFcr8modyWaoBCgjcHWAKYRvVXYTVvaHmT2TT3Sfe2efjlmQFIzr2fYN9+3TvR3+jv+WkAIDkUJKbIv+8gmdvOlfGTQRtAcvDNN6xI4gfJ53fTHtyXU9yzUMberC5BXxjzQzUAkNzEDXLfQdL6XG7nhi3bZOsVILn+yevNh+bpmV2JPDOP3sUNdegNFfmhGWgAGtg3DQAkNwGSqHP9gASfw+fQADQADUAD0MDkGgBIQlSTi2rfvo2hvViBgAagAWgAGthXDQAkAZIASWgAGoAGoAFoABqABkZpACAJ4YwSzr5+80K7seoADUAD0AA0AA20GgBIAiQBktAANAANQAPQADQADYzSAEASwhklHHwba7+NwRfwBTQADUAD0MC+agAgCZAESEID0AA0AA1AA9AANDBKAwDJMcJ57bfm9dNvzOsPfm3Ojbl+lteEH+3O/QXfqmym35Nkfwu4im918q8G1b8FXFUbUe6om9MqdIAysWoEDUAD0MC0GljcOL5v4n9tH940F2Yw6f3oRz8y586dm+/kMxFIXvz5TGF0ih8Cry1jTSDZ3jhyf8847cBq65ugXPk/2hK6NV+TX+nvJjcyrv/GvPvvvzG/+7/0ed/880bsmKAPYPd878foG/QNNLBRDSxuXKGb7Mvm4PC+OZoBTM4eJCcSLUCStLfOcMtAsgOJYeWYw2Qnj/jP8on0OgyOA0T+zzvxBvfP/9MCJWBymB/XOTZQF/oGGoAGhmsg3dq+eNPcOb5vWrgcXuAUnQCQ3IzfY991wGSEPVOUsRIA2iaQzNkq4oWvrz95YU45aK7Ej2VN/N0v/7sCjXfMf/u/vzGf/vJvIlxGzW3ARtRd7kP4B/6BBqCBGg2kINkcGLvVfefqyxu90c8WJGlL2z4faT8//0XXTy7Pb83F5hfmh5Tv9Btz9Z9+HPKm8a4cNV+lgB1EfGuuN+IZx86Wpkh//p05fCtThwATKST5vCGHFgcx8TnLF+aUH3O4cXWw9Jy9nfjG+Dpsm1v7Zb3Jf3azfE0jICxJ0/4DPK3H/0e4jfPlUPu0Zy7rbWrbkfi60A+ubPINz8ePZdvWeO5WH9lqpGvX/ff9Nve//8z8XWLLbfPwS/v/3k/NwzczvkjyI0+iE/imex+GT+ATaGBtGhAg6be3AZJ9E9WPzSsPSiBpQfP35pXv+3LO/dPvk3OaBCbZ2mZAFmEmPFPXwpQCTyXg6EmL9biBGoCKoIYGb6kMyuPCALjy+qYxHlgl8Mq2KNd32s/7U17P0ux1iR2hbBWAW7u6dg61idnAfOPLFSAb0h1Ikl3k6/e/Mg+evzBtv+vlkv5WF/ptbb7y6FYo//1n5p/VlUqA5Or6YlMaQL3oU2hgXzSwOLjYdvaFq3fdizcAydYnuhD6QLKFSHf9939trp5+Y374WlrulCCZwkMKSw5ICDoiqHjYSaEw2EdgkluxjGX4/AnUUFp1GQp0URna6qEs1513YStZsYvlWXtT3+j92/ZTB+Zk/bZsCa6DbWrr4/Z06mbtSPrU1edXd9X+ZNfx8rvH/9X8rz/8wfxB/Twzv7qj29ktJ93C5quT+pZ3bbnI1/U1fAKfQAPQwGY1sIhvbLst7QP3wg1Asq9T5gaS7eqYNqAcVPEtZn6crMCFdmuwFGEkgB8vwx5LUC2Wwf1bAsmwjc3KloDoYYttkXO72HWtX8ogqfuKgarWLgGSw23i/miPSyDp7KT2kU2zW5G8497a1lYm063tts1tPyEOvoAGoAFoYBs0ILa2/TOSeNmmT7xbCJIEHREIC20kMOmsSBJEMrBqurDnhJ8tQ9ZbBkm/2keg7CGQr76WYEsfgHmQ9BBJdXk7O+Vr7VJBMvWRbov0hTjX6nL9J3zG8nl70zaMqrtGJ4U8/g3t35j/dj9tk4vvPCOZ5tmEvagTfQANQAPQwDgNJCDptrbx8z8VD6huF0h2YKgAAG4gMTBJB5YOYcnqGJWdLUMKVUARXR9Dn+62bG2ZEoir66F69TY09LKSWKHt+E6rT4CkfyFnCpjL2NpTnwfiMSA71dZ2Y/Qt7HTLO9UW9Q9C+AUagAaggW3SQATJy7fsD5PfNfyZyU01ZLZvbUe4mQYkcy/hDPK7BjbRThqMHkg6ENbJF/Jny+xCn4cWZWs7wE7/M3vdMmX7Hcx9/ZU5fPLCdMsL1z+vBacMnCkrqx4i7bY5K1vzjQQ7glJ+Xc7XPfHeBg6lir86Ng3s7x4bZH/UnXto/B17c9uvUmq/I0kv25yZR++SZhHW+Rl+gp+gAWhgsxpon5G8dVCxErceY+cKkh78wk//sJ/s4W9oN+7nf+petrHidy/csLLanwmq9HUHInLXBbjgzxAmPwGkpYdnD/kqXYAm+tmb0yef+rer5UqhhRNnG3t+keVpIY2lO9s4NFFbyDYGdAn8EEymZfEt8Ai8Sfttfl4m1RPKsfa6NrA8mr87IGnt7rep9ubX8RXvj+hn4TfqJ+bz2vqmyxdgkv7ZprClffK5/fmfM3P2+cls7kPT+YF0jBA+hQaggd3TQFyRnFPnzhUk5+Qj2LJ7g3Gv+/TNh+YpQBIQnXxBxBjf63sCtLA19wOAJMS6NWLFTXV3J1a/IokfJIfGd1fj6Fv07a5qACAJkARIrlsDtO3c2WbnW/Niq3rdNq6pvtsfPfVb2mePzMma6tzVmznaBVCBBqCBTWgAIInJCyAJDUAD0AA0AA1AA9DAKA0AJCGcUcLZxLce1Ilv29AANAANQAPQwLw0AJAESAIkoQFoABqABqABaAAaGKUBgCSEM0o4+EY4r2+E6A/0BzQADUAD0MAmNACQBEgCJKEBaAAagAagAWgAGhilAYAkhDNKOJv41oM68W0bGlitBn76yxvxfsCP+/w+JG+pLFmOPO+71uYf8imVR2l9NvSlUzk2HJKXX4fj1eoe/l3OvwBJgGScODCYlhtM8B/8t2oNTAVJOaDh8fy4r108rz3OfYaUQ3l52RSnhTLf0HMqs3SdTLPXaHFUlhYOza+VgTjca+akAYAkQBIgCQ1AA1usgbFgol3H4/hxadKqzVcqg9K0srQ4ys9Dm2/oh1/Pj3mduWPKz9MpzoZDbaH8vAwcAxi3QQMAyQETiPtf7Ae/NucGXLOMCOR/ew/+H+412blMG2d5Lf1H+Eb/p3rfbqA/Nq88SP/H/oevDfCB+497dv3PfzFLOD7/9t+bn/7bK+Z8aWxefsW8+cu/N397OW0/gcbQMDfGbDmU1lcm5ZMhL0OmDT2fsixe95hy+TV0TKEtO3c8Zb28LBynYwH+mJc/FgeH983RMX0OzeXSDW5NaXP9r+11g2Q7WH5hfnj6jdkWkLz+hP9DCzt+8mmcuNq2VQyI+E8wa/q3lzWDZPTXWP+saVwO6rOBNk03tgKQzhIkL5p//OUN84/Xy5q/9LMb5qc/u9gZKxxeeF/k4m2eUhovg455fn5M6Tzk6fyY5xlyTGXYsO+jldt3jZaulSPj7HWluL50eW3uXCsnlxfx5TEE/6zXP4ujWwdxkFy+ZYFy8zAJkJQi2C6QjIPYAeDy8Hfpk+/M6ZOvzOHXL8yDT96Leo31DISWeV33qbn3/Dtz+Mm35vT5t+b6VrdF6rb23Ot70Apk1k8zBsnrf21++su/Npeytlt/6bDJIcMe08dqmdIojp8P1Tpdy8utKYNfV5Nf5iHbZfwU50NtI1tyobWJl8mPp7AXZdTeN5BvLlpZpCuQB+bG8X1z5+rLG52sAZJygOwzSL4XAdIB5a5tN7vVTwuQFihfmHvvy77fg/Pv/9pcPf3G7DZInjN/+283zJtvnyveW6u2vgWIDgEZCUdyIuJl8WOZj5/zfLJ87ZxfS8eUj85zIa+rlIfKy4W5a7V4rU4ex4/l9bn6tXh5Lc734N4nxvK29nn6jOSVQ7/NfXjTXNhgA2cNknbLLHke6/fmle9LwXvwe/2UntnS8gx5JmwKkPRAdvqctpq1lUIPM20ePa8DuljOC3Oa25ItrEi67Vx7HW0ju/IUm3gZ/Jj0GeNE+zSbkrpC2ziYynStDFdv109dABT2ZCAx+qFpDD+ON5QImqK8jm0i3a5yviV1KfPMZIW3AiTl88KvZ59V7luRlGPzG/O6sg3uttrj+M1D7u2PnpqzszPz9KPbRUBsMs89xn52uqqDTQ4h9noCGRmfli21oF/Hy5DHWnmUR0vjtuXSeR5bFuXjxxTH8/I4eZy7lvL1pVM+CrX8PI4f0zWlcGj+UllI6+oaPlm/TyJIXrh61xwd3jSXbbjh7e1Zg6SdXNgk1nm2K0yK/HlGmgTbFZcwmfEJLMApv64dEMuCpAefZFvYAQqHjQBHDFA8MPI8AXaSLdhwHQeyDuR1hR2fC4zXBciJ5/6adBXS50na4UDSQ2GEuQCE8bxpTLYtoj7v82AL80XbFzYt3YLult31JQFzYrtchYzQyPwV2mLhPl4b2ty2r6Z/bd+lfUk2teWweqkPVxZ2v0i1X7zSMWa/uKXjQhk/0c4SSJbSqO1KngLo1oKke+6x7yUbt/Xdfcmm1R7ZOE2oAQ2P48eaDZROYSmPlmbj+LW5Y34tz8Pj+bHN0/fh+fuOtTp5HD/uK8umD81fUybyTDMm4MdxfnQg6Z6NDM9KOqAESMZvxlxYHWi0k5ebZNoVRzVPk05OHix/ay7Gyc93nn6tTVsOJFMYI6EIKOvASWMaGSfPyf4OlIY6XH4BL+EaB5IC4jyQcUgTNtKqHb9OtUmClTz39mk2+P4ugST5j4XChm47MvVJcBTlOFsCSKawl7anqn+pr5IwLYdrPX/8n82v/s8fzB/+oH/+13vML0ldhfgCqOXsyI+VdKyl11eMI/eFLjM2+Re/2ra5fPpzj6ltjcm9ZGPzWfgY+5H10LkGNDyOH9M1FPI0fkzpFJbSKA+FMm/fOV0nQ3ndkHR7be2Hyh1aX19+Khdh4Z4xaPyhnFVryb21zZ+JpJVJbG13xadPXn5y8quNfhJLV098OQ4ew0qmK0eblDKT2LIgGVf/+HY0HcdVNw8VfJu6A0QSfOJg9temsEMgugRIZsGKlanlCSt96QoeuybYPRokA9zJRwCo/a7c6FemI+G/bv0KwLprurbzG0Nd/1J/0OMKbRj9FPuT2byOuF6QDHDItprd6iXbGWj9UQLJxtDugLteGYNJelV9/b5yzz32vWTjtr773+hu2+nrXQZK5LV957JuOpfXUbwNS2k8n5ZXXivP5fV0bvP1fShvTajVy+P4sVaeTLfn2ke7FnH94ws+2ryPFjeupEa41Uk8IzlwRZKeoZoxSPJVPBUOAsQQYGrPLAoQagfwakDSg2wLPBzcIvysGyQDRMb6rS+FDXUgGcA98Te1la3K1oJkX/8GG/kXhUYCt6qL9P7Q9vmE8UWQJIhMVwn1L3XWpjJIRvv5c84MSHO7BfG6wT6qe+6x9iUbDUBycX022+t4nr5znpcfy+tq03g+eyzL6TuX19O5vI7iKexLp3w2zOXl8fyYX0vHMl2eUz6EE95TBo9T1L2M/vDW9gDBqZOXm5C2YGs7ea5RGTRZSGR5BTBF4eVgx+XXV9O6q3H0HCNBlLI6F/oquVa1yUNahD01TyhfBbB83Z1VWmuTKF/NI7fliz5jb2/n8jHd5uqL/WPzquUIP7Eyk2uT+HVvbevb0epYdHZWgiS1SYxf/yJdO57zfmDjgsrSwglfsrG2cAjJHct8uTaUrq8toy8fryNnB8XLvPycH1P+XGjz9n1y18r4mnr78sh0eS7rxHnl2NLGG+KSL4fr0hJ+R3KA8LqTl5/kkrc+w0oH3972qxxscgorMNp17Qs5fDDpk2m9SMLqlwpNoR4VNLgN9phWLQn2bFwoW9vKXQokfbm0Xczb6sEpAKqAOJ9PApKERmrHC3Oq+iQPkh0gC/Xb1dJoK8Vxnzj/tnlcG9S6hT+r+iVco5YX+rDjp3ANf4lnwFjg/bH0cc2KJNuGduNQvPTW2jAMJLsrkPoKaFt+OiboZZuzz0/UG3jpucdYZtXvS/p6OYTkjm25PC3Ww/qX0inU8tTGlcoopcnyS3lLaUPKsXlry5oiH5VB4ZD6Zbtwno49+GM+/ljY342M/2yz4S1tEsZc39rWnp/iwEj2+xdw6Kd/bJhuy/l8AULjc1gMNMMNP06YMQ+VqZXXJ6oWHNot4nS1MPesXVzZC3bJfH3psT4GVsmqYig3WVkrAVSAIldvB5CsH3xbU7vS9ts0CXO+ftpe5mHJTzbNlx1B0rUnre80+TmeAqjSyiWtIJf8EPzm9STrs/andsv23Xvf25H6qU9HK0gvgiS90Eba9z/X48ZiZ0ua5Yljho0r+gIX03Jjk2AyLU/9kvfuI/fzP2dnj8xJ0h/WT8u/ZBPvKaHsHJBQvAzl9fac8lCaPa/5UH4ZyvJ4HVqavJ7Oa2zgeeg6qo+nDTnm5dCxvZ6OcyHloVDmk/H2vOYjy8H5Cu45nbGKOpbRWfz5n2UKmfrauYLk1O2cU3kJxLFB5uNTIJmT3cvYosHsMuXh2n28Gd82D788MxpIruIlGwknmuZq8mjXjY3L1ZeLz9UzNH+unGXjh9iRy5uLX9Y2XL+P95j5txkgyaBpnwepX2XkW9ZevLn4XfAVQHL+N6jZ6yysSHZ/kHzal2xm7wfcR3tXMNGHuN/sqgYAkrgBhhsge26Qv0lceu5uy30HkMSNffSN/c2H5umZXYk8M4/ehR9H+3HL7yFoN7QPDTQGIIkbGb5JQwPQADQADUAD0AA0MEoDAEkIZ5Rw8C0M38ShAWgAGoAGoAFoACAJkARIQgPQADQADUAD0AA0MEoDAEkIZ5Rw8C0U30KhAWgAGoAGoAFoACAJkARIQgPQADQADUAD0AA0MEoDAEkIZ5Rw8C0U30Khgd3SAP/tQ37c189D8pbKkuXI875rbf4hn1J5lNZnQ186lWPDIXn5dTjerXG2i/0JkARIAiShAWhgCzQwFSTlgIbH8+O+iY/ntce5z5ByKC8vm+K0UOYbek5llq6TafYaLY7K0sKh+bUyEAewnJsGAJJbMIHMTTSwBzcyaGAeGhgLJtp1PI4fl/q6Nl+pDErTytLiKD8Pbb6hH349P+Z15o4pP0+nOBsOtYXy8zJwPI8xhn7o7weA5ACQdP99zf7fd9UCk//trf6v9wD7V23vNpQf/2+a/e/3ILur//u6f/ANqnfn+7n7/9bqf1vn/PDab83r/D+0f/6LWa6yur9N/LdXzPlcO5rGaHkINIaGOY3Zciitr0zKJ0Nehkwbej5lWbzuMeXya+iYQlt27njKenlZOMa9dO4aWDTNgblxfN8cHd81Bxfn0WFz/a/tdYNkK55fmB+efmO2BST93yq+MKf8H3Ls8UB4U8sZWEbrQ6/tnQbJt74yD5zPt++/0acbWwFIZwmSF80//vKG+cfrpfusnofDC9d0Lt7mKaXxMuiY5+fHlM5Dns6PeZ4hx1SGDfs+Wrl912jpWjkyzl5XiutLl9fmzrVycnkRXxo/SNuEPhZHx4fm4OpdgGRhhYA6ZrrJbqjYtwskyV+NA5vxUONAMgFH+hvH7n+Cxzor+nGpvDNekXSQ/OQrc/j1C/Pgk/c6E+BS7V6pX72+B61AZu2ZMUhe/2vz01/+tbmUtb0xjZKHQ4Y9po/tT0qjOH4+tL/pWl5uTRn8upr8Mg/ZLuOnOB9qG9mSC61NvEx+PIW9KGPo3Ij8c9CM29q+AJCsmnQBkgMH7eQgaev/1Nwbsbo52WCbLUh6yLYA6YBym/4j/fu/NldPvzG7DZLnzN/+2w3z5tvnCveamjzpGBwCMhKO5JjgZfFjmY+f83yyfO2cX0vHlI/OcyGvq5SHysuFuWu1eK1OHseP5fW5+rV4eS3OU53DH/P2B0CytDog0hxI2i2z5Hms35tXvi872a+wtM9saXmGPBM2xYokrebRlrO2UhggTW5JP0/zxu1hypesGjJfFEAyrjY6MNNtinlEP/gt77AqGbZz773P6g2wyVflpM08Td6kfPm6TY2z19ad+iqt39oi/S1XCQX4kS+fd1dbpe3xkQHud+5rfhx919bn25Bpn82f9EnmkQSZR7Fb+jV7XgGS8nnh17PPKvetSMqx+Y15XdkGd2OdPXOZg9zbHz01Z2dn5ulHtwuA2Jjm8ivmzV/+vfnby1yn4rgiD4cQ608CGRmf9XXQg3YdL0Mea+VRHi2N25ZL53nIHh4nr+N5ZBqd9+XpS6dyKNTy8zh+TNeUwqH5S2UhTYyfeK9D/Lq1AZAcIL44ubBJrLNKGSZF/jwjTYLtZBQmMz6BBTjl17ViWBYkPfQk8ORAgANid6XPAwzP05gE4pzvwnXaCpgKNH6QR1iL1wXwiuehLg5Loa8SuypBsvWl4ouoAYI/DnPvmcMnX7XbkRGgWr8k9oSyrj9p013d4boWOKkuDmo1fdDNY8t3NkTfMWjstM0CZNs+1w/xulAOS49AzPvB+pyfEzSzclp/527q3S9S7Revb0wCiq/9VjwfrIyf2M4SSJbSyE4lTwF0a0Hy0s9umJ/2vGRTk6ffr9SOcqgBDY/jx1qdlE5hKY+WZuP4tbljfi3Pw+P5sc3T9+H5+461OnkcP+4ry6YPzV9TJvKUtQ7/rN4/AMk4AfU7uwON9lo3ybQrjmqeJp2cPFj+1lwUdevXWruWA8kUMqidAjY0IJNx8pzs70BpqMPlF0AVrpEAYwe7BzIBOQmw+HITcFNtKsFiPi0pl9omQ62tqg3kZwplvQEkRfukX+S59VM3TvRlIc+pgL3U597GFnaD7a7Nbb9oN+a0nMb85//xzPzhD3/QP//7v6ardwVQ0+qycfmxko619PqKceS+0GXGJv/iJ3VRPNdfoElty+ex8DH2k9ZBWtSBhkMOP5Zl8DR+XMon0+S5LKfvXF5P5/I6iqewlG7Taj815dk8sj55TuUgbLUJX2yfLwCSxQkg7VB98vKTk19t9JOYtqro4DGsZLpytEkpM4ktC5IOPOLWKW1phjCCjIcI/ma1hIN2Wzf1Cz232AGQlYJkABsV4iS0cXvzaV1A49eF41qQDHbFbejg/3ZVuA4ku3Cr2K/5oGOnXl9y087Y7NuQfiHQNVWGzaQuPu56QTLAIdtqdquXbGegLbsEko2h3QF3vTIGk/Sq+hSN8LbRz/n0vGTjfvKnJ0/bRl/nMlAir+07l3XTubyO4m1YSuP5tLzyWnkur6dzm6/vQ3lrQq1eHsePtfJkuj3XPtq1iOsfW/DRPHwEkBQ3/ZIwVZBMJsEZg6RYieq2M4BGApwpPMwFJBPg0yBKeUayba8CYkEDSbk5XXQArTH+7fQXJoI0AVmEdDvYZb062HVscPXl4N/fRDxsijyV4Nr6RWlHxgceIlNtdL50ZK5N6qM8yRiSN0aCyHSVUB2LrrzfdzU0AAAUfklEQVQySMb6+XPODEhzuwXxOrK5Oqx5gaYmjwczDUK0uD577TU8T985z8uP5XW1aTyfPZbl9J3L6+lcXkfxFPalUz4b5vLyeH7Mr6VjmS7PKR9COe5xvk2aAEhWTwiZ7TQ3IW3B1nby3JsySB2w9KwoqdBGL2ekYOEGgcuvxKtbr5Vb28GGuLKn2iShjbc3n1YFQzUgqeUZBZIeNmNbVa3qQGr9n0JpPl97w8r7ps2jlyN9N93Wtr4dvTRIki/F+PUv0rXjuW0319CA44oXaKpexBFgw4GEH1t75bnWBp6HH1NeLY7SeFjKV0rjZdhjmZef82N5nTy3efs+8prceU29fXlkujzP1Y34AWOMxjLC5MvhOjUEkBwgvu7k5Se55K3PsNLBt7f9KgebnMIKjHZd+0IOH0j6ZFovFA8I8vm45HoVfrgN9jhARAKloexk9S1cNzVIBmhM2yHhJ9jzXL4lTW2R+SnehuHaZPVWe9lGwLGEWXlO5SY26UA2Fv7iaijTs4c7slWvL9FAfE6Vra6y8ihvaiN9AbAroj1fRJSyXJk1K5JsG9qNQ7vtzFYSybZGPI/cxvN+bo+7K5D6CmiuHHrZ5uzzE/Um7l6g+dlFNY3KrMlj83IIyR3LfFQHD+laCnna0ONSGaU0WU8pbyltSDk2b21ZU+SjMigcUr9sF87bMQtfzM8XiyP3rzb2n23Y59ZB8ca36o6c6z/baM9PcWCMfiFQjM9YpdtyPl+A0JiHgWaYcOOEGfN8E/4GTiuvT1wtYLXP7RFk+Gv9lmV3i1SuiMl8femxPgabEkasT+SqlqzHlqMBU/pzNbZNHpq4XVpZ3i4JPwTL5IfUR74uEdcBR2oLlWHtljbpYNfxC8Fz8sgBg7bSF4BwrfeDXl/ULIM83w+t7c5PrO8icJNNFrydHdKXfZoM6UWQpBfaSPv+53rcWGQgqY1N/xY4G1edcWnL1MYSwSSrM/c7l+8+cj//c3b2yJwwH3q/5l+gaf1ek8f7KQckFC/Dto62HygPpdnzmg/ll6Esz6ZTHIXyGu28xgaeh5fB44ce83Lo2JZBx7mQ8lAo88l4e17zkeXgvNUufDFfX7gVybl10FxBcm5+mtIeCXFUdrqqNV8hk727FeZWT8OXggTu0Deb6fvb5uGXZ0YDyZoXaGryULsknFA8D2vy8PzLHufqy8Xn6huaP1fOsvFD7MjlzcUvaxuuxz1urhoASHZWEfZTrH7FrruilIufq6B3yq5kRZHpMhcPLfeuJE2uj7Ai2f1B8poXaGrysH5H/66/f+Fz+Bwa6NUAQBIiCSKRW7phazN5XhCT2uQg0qc/t2UstplzW/x9ZSG994ZY3b9vPjRPz+xK5Jl59C7GRbXfoMHpNAhfwpcz0QBAciYdgRsxJmNoABqABqABaAAa2DYNACQBkvhWBw1AA9AANAANQAPQwCgNACQhnFHC2bZvTLAX3/KhAWgAGoAGoIHpNQCQBEgCJKEBaAAagAagAWgAGhilAYAkhDNKOPhWN/23OvgUPoUGoAFoABrYNg0AJAGSAEloABqABqABaAAagAZGaQAgCeGMEs62fWOCvfiWDw1AA9AANAANTK8BgCRAEiAJDUAD0AA0AA1AA9DAKA0AJLdEOC99+LG59uxx+/ns7VEdvrvfxg7M977w/rlyMv03ro357eSDts9t/29Nv79trnC9PvvAnM+OtTn2Hdn/sfneGzukp2wf7EIbw1+H0n/AP+/+U9dKxjH9acCK/7zB/11t++cEDz55D3PATut5e8bk4uj4vomfw5vmwgw6Zpb/tS0n9GSSZBP8G++YV2VacRKtEIurez8ntPOfMd8WtbkeGHH2yP5dC9yF9mXqqvdThd6Kfh5+vf8SNBOQDOOz/8sGQHIl0DWxtnI2euhaEiQdIH5nDt/q0fyaQLJtqwdmgGRPv6xJa22/7K89i4OL1PgDc8NC5a2DjX/LmSVIJqL0k4w6GbmJikMfAU5pIqU+0MM5Q8KqB9Hc2t61Z/n+rfPhLoOkrvs6vwy8thokB5ab3B9w7Ur6boCP1wqSA+yaxi8AyWn8iHE6lR+Tre0LV++ao+NDc3ntAyPt0N0CycY0S60olgFiKiHMtZwuuKVaWbfduj1h9SqzWjiNjWUd6HZt1lfU7v4VyTXaCZDc+EIB6WKVIUByjWNqw7ywSh2h7DodKSB517SrlHWFTO3sfQFJN/mzbVJ1hbMpA4TzfZgc4zOUX7xjXkoGd7uCmj5rKVdJQ13RJr6y2pgmrraKfCpAiTza9n6v3Y3pByRZj7DZ+cHnefXDA1NuP7WRPYsqfJmzx/dl8KcKK74PrA18vKT2PDbXRH1t3tBO1dc1frJjWfrqsSlqLupA6oS+HDE/af0bNJgHSWmP1nehbdEWVqfwRcmXnbSkPN6+8KUgpvM0fj+Utktf+vQqzSVjldfBjt/6yjyIz/61z8mdJs8BvmcOv+ZpL0y6/RnSn3yaaPD6kxfmVD7fR9u1rM577zN7nM3ymcQX5lSU3epXXtueO+hz9aflpbY3ppE+kDYzP5ZBsuwn5w/W7lN+zOuUPuq0Xfe39YmvI916l/V2/U0+K69I+rYzHXCbqW5ra2K/toUv/aTlsTbdNg+/PDNnZ0/NwzfJRoQ12t+VPAlIXr5ln5fEimR/57Zg1skbYYsGUpiYEkAIkxCfCAV8lCc+NuEqq50OapL62OQY46UNPk8COrJsBn4RQFweOYlqbX7bXOHtlWU3ARiifd5/OXDr+N1OIkqZPh+b9KMNwcZ4rl8vfZmzx/dX6BfRl94G3b+JvxvFpjg5yv4ifdX6SSk79J1qQ9IPou9s+7jfCFCTa1r7vG9yQBbyZfuuLYf63JUn6zr5wKjtSOxsvyhE/Ub/ZupRAbnGl5WaK9RP7SWA4mClg4iY6AMotECig40ri8NGALb2uq5vmkYvK9pc066Qh4NPrNPZztojzwmIuN2szhJIXn/CyrXXdPwU2qvUqbcv7wtvh6ivkSCoXF/sA3k965/3vxVfHgKcM8iNwBp9F+qP57Y8pY6sPwCSui5YvzBt7mLeFiSvHLqXbu5cfTn5trqJRm//iiRbNXn2WExwBCzdiVWHlBJA+LR0AqXJksFmBlA4JKmTcwCEWH4lILly1QmYBlat3bUrbaHcLIzoPuTtp9W62FYa+K7NrS/1PmrCSudAkKQ6WJjaRP6yod4GGp85uyg9B3OyPnde7DtuU3ucK9/WX0oj+/JfAto6XF7RH/F65kOKk21rr5dffEQdoayc3bn4tD69v9I8er1kfwy1CVyL6/hAwoACLBqQjSq7si0dGxujwlYCUt5uDtLONy6PhDRvRwkko1+jLdJPoS1VfrB5db/6epSyZbnuPF2dtNc64GMA2NqtlBnb0u0H+UVBnttypb/ceQKWbTs7/VCou7W5axfSdscnHiQv3jR37Is2eGu7EqL9ioS6qpFMdGEyEROzn4hS2MxvS+sTkh+EYWUkbsOlZbb2+XwdSGI3AA8Q6fXRJlrVqQLJkr00cGrtXidI1tnk/ET+YP5L4KLKT9YXpA/hd7na5uop+zVnF92ss+kOvulLTbkOKsuGul6oHOpnHya+YT7j5dWBpLdP13GlL9W+Se0lu3J2L+NLd63av7oNzpYAVXwC12CAVi6TrdjnfHtbB55uWSFf2NKNq4Si7zx8hC1UFXgKbWJlSYgh/7ehByfZLjrX7CuWGfxJ11PI/evqlsDHbG5ts23U/Up5pH/dOfNX4ke+jW6POzBn6yuBZNp31DZejrTH2in95fJIW+ic2U5tRFin9V3106IhiJzBljY5eftXJNsVLP9cYboqmZugqP1pWJrc+wHRl9Wfr2qCUydhWXbJXhps8hqK74bZSVu7qS+1IllnU86exH9D/CS+ZCTlJG0s+zVnF2kpmz4CJF1Zz5jGe1Ydq/Se7btWE64cFcIIIlOQVX2p9k1bB/nLhjm7l/GlalPSz5otGkiJFSyCo2SSl8ChA48GFuQHDhQd0CK7HXAFoFTBR2tTGychhupuQ9mO9to2TxqXLbPKT6GsiUDSAz6tnPq2cPjN2kr+7YQ5fxBEptqQ/SvPrQ+lDVqenK8Rn2pvH/2xcD/5MyOItJ2wUyAZV2/YJFcxabZiLAFEKY2Lux+ScpNmawdtmcttwW7Z/ZNlrd3rXJGss0mFiAAncaVMhRXpJ3nu+yvvu7J9ql1sAsr1r6xPnif978rT7ciVb68vpcXy+8ZEArxc2/Z4gC/VvpHl+fOc3bn41He6n9I8er3RJ6H/3CTfB2gq9EjgGA6SZEsVWKg29LdRQgzV2Ya63W16t45smaqN0k+hPDVvt66+FUlKdyBuy5R9WV0P1Z2xN7NSKftOnls/Sn/J85KvkUb9sr/hYg4v10gh7hpI+m07vioZJhmxGiX94M/1CSnmdRMsL1sTsz7RxjLchOXz5N8argdJWoVN/4VFvLBRZfc6QZKeXS370oEA39oOYJL6Tfo7+DZ5Xrbbr65s+5hCadWN181AsWMXS3P9THby60MftI9AtH1c6jsJQx6s7PY8+7LE6s+BV6I/Z0u6ytmme/8ldrLy4yMCrG15X4a+YHnbetKxk7W7ypfd/rX1SN/l6ubxVZN6WGlrV7o8bNitTb6SKCHCnWe3UMkfdSBXZWfSb778quscbKVt4T6Sx9kyK/3kygt5uf9kPf683z/Onq+/ModPtDaE65M38Mn3WpgDya4dWv9KDdg2dP0V9COhV+m/9q3tM/PoXc1exOm62R2/pP9sQ/9ys+EfJd85kKRn4RJAIJhMn4/rTpb6hJQIMwBBfKaxAyMSbHICboGnLYtN7upqTq5sWZYCGb12557F47An62H+jLCg+1Cd1HtsioDCnkvt9lkLpd6P1ofehrhqaW/IBCRU1mdv+9U7ppMW0li7XH7WLwQoVA4Lk/ropauYnpbRakr6VPadSLf2Or+xfLJtsc6hfZfXQAKusj7Fl7F9Mi8H4E5a6/dhvhygOXVy5mOUQIP9pEt4Xq0FR4KBNs+99/11KQi1gEmQSZBzKdjhoaItxz1nl2yZKz/F4+xJt1Sjv3va14UY3nZ2HGAyPvcnAZi2rYNveD7uA9k+3U+hXlknAytZTlsfbWMz28NqYfpzTTxd72PevxEKO+1jfpc+ePKph0Rmdx1IWttSrfj2aW1rzMnn9ud/zszZ5yeV7xnwtuO4dqzMNV/71nbPYF9nA+YPkhD+OvWAuqC3fdaANvFbf3iwYBAxo3v4PvfXXrb9zYfmKUBybyEaIImb796Kfy9v+ND7luk9rFSxFSWv21w8vnRgXK9fA35FEj9Ivq/aA0hiYt2yiXX9N8l9vTmg3XPRmrbFOO5fZNbVp/ltX7Zl3oHjufgbdtTq5PZHT/2W9tkjc4K5dG/nUoAkxL+34q+9WSIfJlZoABqABqABaEDXAEASIAmQhAagAWgAGoAGoAFoYJQGAJIQzijh4JuZ/s0MfoFfoAFoABqABvZJAwBJgCRAEhqABqABaAAagAaggVEamCVI7hPJo6345goNQAPQADQADUAD26oBgCS+gYz6BrKtgofduFlDA9AANAANQAPTaQAgCZAESEID0AA0AA1AA9AANDBKAwBJCGeUcPBtbrpvc/AlfAkNQAPQADSwrRqYL0j+5M/Nn/64MOaPC/OnX/0lYAfACw1AA9AANAANQAPQwMw0sDg6vm/i59bB/DooAOV//Cu+rWzrtxXYDe1CA9AANAANQAO7qQG2InlgblionCFM/uZ3C2N+9xfzg9yZfSvAIN3NQYp+Rb9CA9AANAANzFUDDCQbc+HqXXN0fGguzwyQAJIYQHMdQLAL2oQGoAFoABrYZw10QfLwprkAkMTq58w0sM+DFG3HJAUNQAPQADQwVw20IHnxprlzfN/cuDK/zsKK5Pz6ZK6Chl3QCjQADUAD0AA0sD4NLNxzkfTCzQyfj3Ri+Nc/M+aP/8n8n5+szzEQIXwNDUAD0AA0AA1AA9BAWQPtimTTmMu37Bvc83tG0nfiX5j/cD8H9GfmN9h2xdY7NAANQAPQADQADUADG9dAApJN49/cvnP15Y0bxr8BvPer/2TMHwGQ3Cc4Ln9Dgn/gH2gAGoAGoAFoYPUaUEFybs9J4hnJ1QsBgw0+hgagAWgAGoAGoIGhGmAg+bI5OLxvjvDW9qxWY4d2KPLjJgANQAPQADQADUAD69JA8s82c9vSJidgRRIDgrSAEFqABqABaAAagAbmowG2Ijkfo6RAAJLz7RvZVzhHX0ED0AA0AA1AA/ujgS0ASf+29p9+9ZfYcsbbadAANAANQAPQADQADcxIA/MFyZ/8ufmT+7kf/M82vtntzzc79DX6GhqABqABaGCbNDBfkJwRbW9Th8JW3ICgAWgAGoAGoAFoYF0aAEgCWLFFAA1AA9AANAANQAPQwCgNACQhnFHCWdc3HdSDb9XQADQADUAD0MB8NTBLkPyrv/orgw98AA1AA9AANAANQAPQwLw1AJAEtALaoQFoABqABqABaAAaGKWBWYMklrLnu5SNvkHfQAPQADQADUAD0ABAEs9I4hlJaAAagAagAWgAGoAGRmkAIAnhjBIOvoXiWyg0AA1AA9AANAANBJA8MY/OzszZ2Zl59O7mnUIP1kKgm+8L9AH6ABqABqABaAAagAZyGnAgefujpw4iAZIQSk4oiIc2oAFoABqABqABaEBqYNG8+dA8dSuRflUSK5IQiRQJzqEJaAAagAagAWgAGtA0sDj5/MycffnQ3G4AkpqDEIeBAw1AA9AANAANQAPQgK6BxdnZU/PwTZsIkIRIdJHAL/ALNAANQAPQADQADWgaWJx9fhLe2gVIag5CHAYONAANQAPQADQADUADugYWJ/HnbwCSEIkuEvgFfoEGoAFoABqABqABTQPsdyQBkpqDEIeBAw1AA9AANAANQAPQgK6Bhf3JH+2zybe38TuSemdBxPALNAANQAPQADQADcxJA/8/tusypG9dxFMAAAAASUVORK5CYII=;" parent="1" vertex="1">
          <mxGeometry x="-670" y="560" width="368" height="187.36" as="geometry" />
        </mxCell>
        <mxCell id="wSviTDFeTBMA6NdS5FGH-1" value="" style="rounded=0;whiteSpace=wrap;html=1;" parent="1" vertex="1">
          <mxGeometry x="750" y="650" width="120" height="400" as="geometry" />
        </mxCell>
        <mxCell id="wSviTDFeTBMA6NdS5FGH-7" value="" style="rounded=1;whiteSpace=wrap;html=1;arcSize=50;fillColor=#f8cecc;strokeColor=#b85450;" parent="1" vertex="1">
          <mxGeometry x="750" y="790" width="20" height="10" as="geometry" />
        </mxCell>
        <mxCell id="wSviTDFeTBMA6NdS5FGH-11" value="" style="rounded=1;whiteSpace=wrap;html=1;arcSize=50;fillColor=#f8cecc;strokeColor=#b85450;" parent="1" vertex="1">
          <mxGeometry x="750" y="910" width="20" height="10" as="geometry" />
        </mxCell>
        <mxCell id="wSviTDFeTBMA6NdS5FGH-14" value="" style="rounded=1;whiteSpace=wrap;html=1;arcSize=50;fillColor=#f8cecc;strokeColor=#b85450;" parent="1" vertex="1">
          <mxGeometry x="750" y="1025" width="20" height="10" as="geometry" />
        </mxCell>
        <mxCell id="wSviTDFeTBMA6NdS5FGH-15" value="" style="rounded=1;whiteSpace=wrap;html=1;arcSize=50;fillColor=#f8cecc;strokeColor=#b85450;" parent="1" vertex="1">
          <mxGeometry x="750" y="660" width="20" height="10" as="geometry" />
        </mxCell>
        <mxCell id="wSviTDFeTBMA6NdS5FGH-22" value="" style="rounded=1;whiteSpace=wrap;html=1;arcSize=50;fillColor=#f8cecc;strokeColor=#b85450;" parent="1" vertex="1">
          <mxGeometry x="850" y="792.5" width="20" height="10" as="geometry" />
        </mxCell>
        <mxCell id="wSviTDFeTBMA6NdS5FGH-23" value="" style="rounded=1;whiteSpace=wrap;html=1;arcSize=50;fillColor=#f8cecc;strokeColor=#b85450;" parent="1" vertex="1">
          <mxGeometry x="850" y="912.5" width="20" height="10" as="geometry" />
        </mxCell>
        <mxCell id="wSviTDFeTBMA6NdS5FGH-24" value="" style="rounded=1;whiteSpace=wrap;html=1;arcSize=50;fillColor=#f8cecc;strokeColor=#b85450;" parent="1" vertex="1">
          <mxGeometry x="850" y="1027.5" width="20" height="10" as="geometry" />
        </mxCell>
        <mxCell id="wSviTDFeTBMA6NdS5FGH-25" value="" style="rounded=1;whiteSpace=wrap;html=1;arcSize=50;fillColor=#f8cecc;strokeColor=#b85450;" parent="1" vertex="1">
          <mxGeometry x="850" y="662.5" width="20" height="10" as="geometry" />
        </mxCell>
        <mxCell id="wSviTDFeTBMA6NdS5FGH-26" value="" style="triangle;whiteSpace=wrap;html=1;rotation=90;fillColor=#d5e8d4;strokeColor=#82b366;" parent="1" vertex="1">
          <mxGeometry x="800" y="640" width="20" height="50" as="geometry" />
        </mxCell>
        <mxCell id="wSviTDFeTBMA6NdS5FGH-27" value="" style="triangle;whiteSpace=wrap;html=1;rotation=90;direction=west;fillColor=#d5e8d4;strokeColor=#82b366;" parent="1" vertex="1">
          <mxGeometry x="800" y="1010" width="20" height="50" as="geometry" />
        </mxCell>
        <mxCell id="wSviTDFeTBMA6NdS5FGH-29" value="" style="endArrow=classic;html=1;rounded=0;entryX=0;entryY=0.5;entryDx=0;entryDy=0;" parent="1" target="wSviTDFeTBMA6NdS5FGH-26" edge="1">
          <mxGeometry width="50" height="50" relative="1" as="geometry">
            <mxPoint x="810" y="605" as="sourcePoint" />
            <mxPoint x="900" y="630" as="targetPoint" />
          </mxGeometry>
        </mxCell>
        <mxCell id="wSviTDFeTBMA6NdS5FGH-30" value="单线激光雷达用以&lt;br&gt;进入前的对位" style="text;html=1;align=center;verticalAlign=middle;resizable=0;points=[];autosize=1;strokeColor=none;fillColor=none;" parent="1" vertex="1">
          <mxGeometry x="750" y="570" width="120" height="40" as="geometry" />
        </mxCell>
        <mxCell id="wSviTDFeTBMA6NdS5FGH-31" value="" style="endArrow=classic;html=1;rounded=0;entryX=0.5;entryY=1;entryDx=0;entryDy=0;" parent="1" target="wSviTDFeTBMA6NdS5FGH-11" edge="1">
          <mxGeometry width="50" height="50" relative="1" as="geometry">
            <mxPoint x="610" y="1010" as="sourcePoint" />
            <mxPoint x="660" y="960" as="targetPoint" />
          </mxGeometry>
        </mxCell>
        <mxCell id="wSviTDFeTBMA6NdS5FGH-32" value="超声波测距传感器可提供&lt;br&gt;上装穿行过程中的横向约束" style="text;html=1;align=center;verticalAlign=middle;resizable=0;points=[];autosize=1;strokeColor=none;fillColor=none;" parent="1" vertex="1">
          <mxGeometry x="525" y="1005" width="170" height="40" as="geometry" />
        </mxCell>
        <mxCell id="wSviTDFeTBMA6NdS5FGH-33" value="&lt;font style=&quot;font-size: 25px;&quot;&gt;柳钢上装对位方案&lt;/font&gt;" style="text;whiteSpace=wrap;html=1;" parent="1" vertex="1">
          <mxGeometry x="410" y="705" width="50" height="260" as="geometry" />
        </mxCell>
        <mxCell id="wSviTDFeTBMA6NdS5FGH-34" value="RFID" style="rounded=0;whiteSpace=wrap;html=1;fillColor=#fff2cc;strokeColor=#d6b656;" parent="1" vertex="1">
          <mxGeometry x="792.5" y="685" width="35" height="20" as="geometry" />
        </mxCell>
        <mxCell id="wSviTDFeTBMA6NdS5FGH-35" value="" style="endArrow=classic;html=1;rounded=0;entryX=0;entryY=0.75;entryDx=0;entryDy=0;" parent="1" target="wSviTDFeTBMA6NdS5FGH-34" edge="1">
          <mxGeometry width="50" height="50" relative="1" as="geometry">
            <mxPoint x="665" y="768" as="sourcePoint" />
            <mxPoint x="715" y="718" as="targetPoint" />
          </mxGeometry>
        </mxCell>
        <mxCell id="wSviTDFeTBMA6NdS5FGH-36" value="RFID标签供&lt;br&gt;精准停车及上装识别使用" style="text;html=1;align=center;verticalAlign=middle;resizable=0;points=[];autosize=1;strokeColor=none;fillColor=none;" parent="1" vertex="1">
          <mxGeometry x="530" y="753" width="160" height="40" as="geometry" />
        </mxCell>
        <mxCell id="wSviTDFeTBMA6NdS5FGH-37" value="&lt;font style=&quot;font-size: 17px;&quot;&gt;&lt;font style=&quot;font-size: 17px;&quot;&gt;万集单线激光雷达&lt;/font&gt;WLR-716-Mini 激光雷达&lt;/font&gt;" style="text;html=1;align=center;verticalAlign=middle;resizable=0;points=[];autosize=1;strokeColor=none;fillColor=none;" parent="1" vertex="1">
          <mxGeometry x="560" y="1100" width="340" height="30" as="geometry" />
        </mxCell>
        <mxCell id="wSviTDFeTBMA6NdS5FGH-40" value="&lt;font style=&quot;font-size: 17px;&quot;&gt;超声波传感器UB500-18GM75-U-V15&lt;/font&gt;" style="text;html=1;align=center;verticalAlign=middle;resizable=0;points=[];autosize=1;strokeColor=none;fillColor=none;" parent="1" vertex="1">
          <mxGeometry x="560" y="1130" width="300" height="30" as="geometry" />
        </mxCell>
        <mxCell id="fpCV2hdorYQTLL57hH8I-1" value="" style="endArrow=none;html=1;rounded=0;fillColor=#f8cecc;strokeColor=#e633c5;strokeWidth=3;dashed=1;dashPattern=1 1;" parent="1" edge="1">
          <mxGeometry width="50" height="50" relative="1" as="geometry">
            <mxPoint x="-1340" y="850" as="sourcePoint" />
            <mxPoint x="-1340" y="440" as="targetPoint" />
          </mxGeometry>
        </mxCell>
        <mxCell id="fpCV2hdorYQTLL57hH8I-2" value="" style="endArrow=none;html=1;rounded=0;dashed=1;strokeWidth=5;curved=0;strokeColor=#82b366;fillColor=#d5e8d4;" parent="1" edge="1">
          <mxGeometry width="50" height="50" relative="1" as="geometry">
            <mxPoint x="-1330" y="860" as="sourcePoint" />
            <mxPoint x="-1330" y="450" as="targetPoint" />
          </mxGeometry>
        </mxCell>
        <mxCell id="fpCV2hdorYQTLL57hH8I-4" style="edgeStyle=orthogonalEdgeStyle;rounded=0;orthogonalLoop=1;jettySize=auto;html=1;" parent="1" source="fpCV2hdorYQTLL57hH8I-3" edge="1">
          <mxGeometry relative="1" as="geometry">
            <mxPoint x="-1340" y="850" as="targetPoint" />
          </mxGeometry>
        </mxCell>
        <mxCell id="fpCV2hdorYQTLL57hH8I-3" value="集装箱gauss数据" style="text;html=1;align=center;verticalAlign=middle;resizable=0;points=[];autosize=1;fillColor=#fff2cc;strokeColor=#d6b656;" parent="1" vertex="1">
          <mxGeometry x="-1320" y="902.5" width="120" height="30" as="geometry" />
        </mxCell>
        <mxCell id="fpCV2hdorYQTLL57hH8I-6" style="edgeStyle=orthogonalEdgeStyle;rounded=0;orthogonalLoop=1;jettySize=auto;html=1;" parent="1" source="fpCV2hdorYQTLL57hH8I-5" edge="1">
          <mxGeometry relative="1" as="geometry">
            <mxPoint x="-1330" y="860" as="targetPoint" />
          </mxGeometry>
        </mxCell>
        <mxCell id="fpCV2hdorYQTLL57hH8I-5" value="global_path_gauss数据" style="text;html=1;align=center;verticalAlign=middle;resizable=0;points=[];autosize=1;fillColor=#fff2cc;strokeColor=#d6b656;" parent="1" vertex="1">
          <mxGeometry x="-1295" y="860" width="150" height="30" as="geometry" />
        </mxCell>
        <mxCell id="LjC6LwahhpLfbFnvOJxg-1" value="" style="shape=image;verticalLabelPosition=bottom;labelBackgroundColor=default;verticalAlign=top;aspect=fixed;imageAspect=0;image=data:image/png,iVBORw0KGgoAAAANSUhEUgAAAb8AAAK6CAIAAAAmVMULAAAAAXNSR0IArs4c6QAAAARnQU1BAACxjwv8YQUAAAAJcEhZcwAAFiUAABYlAUlSJPAAAOr/SURBVHhe7L3bjiRHdqbLgTSYGUCArjTAzMU8SDVbA4IDCb0xz8EqVnVV636/RNT9fogmi5VX+xW2OIRI8FBvoCa7CbBBgIeW9v+vky0zN49TeiYzMteHqgx3OyxbZm7rd/OIcI+3/r0oiqI4nVLPoiiKcyj1LIqiOIdSz6IoinMo9SyKojiHUs+iKIpzKPUsiqI4h1LPoiiKcyj1LIqiOIdbVM83u0fvXV2999Z7V9zkS6TK1r//+9V7j3ZvbPt+cv97eB0wF84dHq2qs6sobofbU8+r9967SlLJ6f7ee4/eckRT35vHzkHNmRdAE2Z8IAoP9ZJ7BLG4jhVMFobaIAw82l2NvkjRVQ+FbHnRP1Zl4oqTi/ICCs8zmOPOz1obB3jPEdGsSUujXfc8tasJHcOQgtR2bgXVUXaPY4dxc+6ZYybDQfGptcTi7mbX/rWcKe4+x6pnm9qLCbEnqyETaZxNOuF9o7eTAyPVy8mNcbpPYm6KG7ZXuvGemJLdaBbpfaPheCtDH6atdumpoWXZSSqSpD9GUuE1h0jX5GCix4sNzmO3t9+6qYz7ibVRExezM31f2eSjuCIRFl4ofdupkLfQGz4ILLBZuubXRpauhnOHtJyUYDUlt2eFaWyExbQRK1tcOkeqJxeOvrUIrNWsQGacTzvZXcyx93Y6sVopyZZyOiWltOf19AF1FKltiRmHhsxcvFiWgURxMlmYrC3dc/V4tCFIiWSlQzLNT5qwV2lZMjqQ7BW6bbBSA7QccXPq41vv/T/NQTu19IzGV46Fj4TRe9UyscXqyB4sz71bFELlkyZDN1i+I+64T+KKJKvP/MtxiBIsgJRH//f/HQPF4lp6idstLp+Tr9xlrsyP/mrWZFLL3IoJxo33MHWxN5v7K/GwFlDTwlPEMN3O4RHt8WWnbZhJLxCOW1F4YiWcZjlVD8ut/spmK6cGHL7Z4WUyHAprZNnoIVjjQGHzJ+j2F152SMFFE0hY60cwKwBS26NbTEGtdkI/xELKWPVqJydDM01PMerYiX56FU1glttBSqqGlKWHnlNcPqeqJ6f3yrFfy5LZMn1PU2efgposg2mrk86S52gzk5kJLDXbnqA13UKrI5ZtN9l3fywhAkDTvRj2NLkVILRjKtzwOmt+RtOkeTIU90ZQoNfVcGXNvgKzKEBov/M6t+qby8OSyxOWwFkwOy92vQmna6r52JmL1vpGlm5lxPDQkVWG+vRTz3mS7G5JGrqkVvmX10maEV5Ke1YD2z7+Ew8jr7h0TlFPmRvz474nC8gUms0joFNSwYlfz/KNqDWpHtE1MBZEE9Omm1F7ZcFHnP+RCnfEpLso/ZR3GSQFWk/TutbJQaG90pS+h6MnKTdtejltL5B3CFgm2wTaUDOO7LEdY+mArLZacy07F9WhRhtdw8Maj86qLY5LagaLOT38LLEkFx17pszrBamCNDP4tUrfVneCn7mhaVMHFTTO+SCzYuFw6+UeC8VFccqnRt0sb+zJcmS+dJMGE82VyaAJBGlvCXUsQcJC0k6kmVjiRu218zA1iXRz0gJVCzLcdl7GIra3JKqm8mT1E2HK9nta09iCVZxXkmF7MVQ8Y2Mxiql450iUip62raiCjaGsNob01Art6m4bgVQpNyE0j5TOr0RXSRks5V2xOuTvoXNizQMDBbU4/k60EY7+v33jb97wVfd12xn7Xlwqx6knZ8zKjNyTlZFZ1KaNb/Wa00LQSMZTTERpvngRt9jaEJIFbpvKOBoxvK7ubJjtaGARxFowllRqOhGLU0lPbVrxDHywtJTpm/YqL2wUdiVBHVDYRrczdLIrPXEALFvODYCumrTRWhmazEVT1tDwYD/AaKT0oZIyJKZdzqY1w1Nm9umzrvF9sB3pTfTcGlrxRq3YB5CcZl2v8l5xuRynnqoyQZ4QyyytskCE0iaXzTx70VfON/nrJpjQzLVZqrX0L+lt5pLYHOdp+E3rMafHcmorGdLSAgsuGh/xZKuXHJoVd+udDxmvFn42B1g3fFEb/mqwBFdLYmLuwCJ1TEj7Yl1oTWTmLYzJrQMNcfRQobAUfngVSV9pfY1U3O1pgjVNlxTsZXeYITvhjdbTV9iyki09hmveq+ICOfVTo2ugs0amk/2xKYm5GdENmPn/YCr7vqLlFLtKajlSNCaoT0+PhwlR2VgUZYE99cOCR4fSanQeZd8T6YJerY0NMtXqSoHWmHfRm5CammKoLWnCKo3WBbcy+86VoMdCOqSutFa8Cds1+hEJNHnqgxxOebV6rdRonMwbkBFBxVmNPcRADqylAxmGha+WIM7JhbqO1mx8TvWxuKvconpeHCs6APbEVnFhUOXWjvPmsLGaOfeGUs+iKIpzKPUsiqI4h1LPoiiKcyj1LIqiOIdSz6IoinMo9SyKojiHUs+iKIpzKPUsiqI4h1LPoiiKcyj1LIqiOIdSz6IoinMo9SyKojiHUs+iKIpzKPUsiqI4h1LPoiiKcyj1LIqiOIdSz6IoinMo9SyKojiHUs+iKIpzKPUsiqI4h1LPoiiKcyj1LIqiOIdSz6IoinMo9SyKojiHfer5VlEURdFj+nhQPW3r5rnNtoriQXHHg+uyYr/UsygeEKWeG1LqWRQPiFLPDSn1LIoHRKnnhpR6FsUDotRzQ0o9i+IBUeq5IRuq55ur997bvbGd61DqeYu82dlR40ZPHMw3xpXAco8ePXrvynIbb3aPtpkBxY1xYnBtOT2O4UZjvxMo7Fxdd65eWz3fyHA5j956ZFtwNJxbjHzLmlHqebvgtPeozSocrIUCWmBc4WDj0C1y0+FF3MQMyGaWwbdspbgFTg+u606Pk9gm9nkaX6g3En1u7iDybaKePxGvr56T0RyhzNumgEHeV6XU85eAU59HxQ7om50fpE74kjgu5dEO8mxK+BSISBznRHE7nBtc15wex3Kue1jDyZLMvIEf6kis0zDxOOF02rWdc3xsbKOe/QKUdF7B2TSo6Nt+p0s9bw2bbDHxMKXkgOJvWm8IfGPmPcTMjsVaVjv0MWNbCMXctVnbXttGcaucFFzXnx6nco3YV88Um10tyXpixAyV16EnJ7CNetom1u4UUi7fNeU8Sj1vF6wjQtFwJuQBlS1JI6qQTNBZKVMxH2QedLt6c4ZJYNO5iWZsFLfK6cF1/elxAtvEvovSyiTz7GuziXqmleejt+KdT46fDOQaawNc6nm7RHjo+Q+HjMdUUwCOrh0pueCxY8aQaYVkJ9NZADaPxbhYW5nYxQ1zDfU8f3ocz3Vin59bmd7Y4lIvh0IpQ43S1ZHnncW11bOPAvin/sSGMl677/W61PN2kfCImZWnFmKhpfMjwf4gtqNob4o1Wsgpvip5xFMty5Z6/jKcqZ7Xmx7Hc43Yx4yyBjHN3hrfWSA+56BGmnvdSXhd9eToJQewK37h1LPHLS+1Qqnn7SJziOsK2Vs5OCzkBRYfaHIWHF576lwx+zpxr/cBbXE6pwfX9afHCZwf+zqhCD2AmC+90CLQTrSC7Cvs79Ohw2Rv9/m91qvms7AytgNDpZHzR7A4BxyOtFCYH0Iqn0w6Lj0WB4+xBcGUP1oZW9kKM+yzwmz/wEQotuf04Lr+9DiBc2O/aTa2ZGXprx389hVkk33I7zOcS/Z2n9/zXokHti3Mx1ZhdwSEzF6vzx3B4iw4j9JBWz+EkEA9gHLmTsvGK9ZwJXzDg0vtRIIYgnkIZxxyNmdXeNeMtOIMTg6u60+PUzgz9s1HcaHNKZlp7skbnXich94HSeFJ/Txfe2/3+X1Mr8SXfVfsR1Lq+UuyDI+r93BEZJolCeRaUtXSpyJTHM87d1oWN8V1g+vU6XEi13GPYjguzOCu+sH1pud1fXhzjUmavd3n93UH/RRus62ieFDc8eC6rNgv9SyKB0Sp54aUehbFA6LUc0NKPYviAVHquSGlnkXxgCj13JBSz6J4QJR6bkipZ1E8IEo9N6TUsygeEKWeG3KCehZFURQZ08eD6mlbN89ttlUUD4o7HlyXFfulnkXxgCj13JBSz6J4QJR6bkipZ1E8IEo9N6TUsygeEKWeG3KP1ZMPnGwPn7rqnlLovLmSxPWn9FoOH3SVaM/iEiZPxjqW/mFZ/jitJfuayB2dddMftJkzr/NcrjPxB9j2xyUIL1vJYntKPTfk3qonn8Wclc5ksMe1az0TggMzGtad0skzDBt8vmHg4toXMQblpaR54/KU4cQRTYDsfO+iEQV0Q58Jm8UYtVhgcHdpaB1YluKwlMkmQrrXB3uyvYRNLOsXR1LquSGXop4Qw+kPPa2gAWi/DiGqIIJBknipNILIBH0Qe6i7DSnh4hjrN5bCnuzLs9U7mlz0kc+9xm7HR3PbjrtxqAm6lbyKDrmT0oT2DglX7/EHT5PwGuNPuJ2Kjjb+cpBgSfc7s2k5GcPR8q0C/Ucv8ziIs3vOIigx9qbYR6nnhlyEeiJ4+FOMJ6inkn9bR2PWw5TMAjpwWVLlgbTBA8sJE6jFrSvY2fkvTMFoa9Nw66g5NoPKkIc3V0iOtVn28WAT3kVWSs/zzjZa72KDULv8NxGtk1HjFOSJ3nBOOqctWOtJPanbbt68oEi67yaIkhDjIDlmQc4bRv+LScVplHpuyEWop5Cj6hC2WLGglGpdXCvN2npAwpAt4hDHUjuZaAJA6xLYoV8NK4UX+6n7tvYLmdESutAcNG5/E1k9mS2JYVixmpKqI0IgeVYCbcjY6KAlmol9wHT8qpG+RLdM+3jogFmTMiiSuwG0Up9uVgXmCHZUyXEOFolSzw25n+ppqLRo2CHmGHT8u7waTAEJrBksqmS9J/E7VU91SteETOePlbvYNVAG5k0FTKls243DUWxSqXvFIPubQK46rYk+SNlJle1YZzoyCpqPhSGseKujA0cQVdhX2Lbx1K6qT+0EpWXCPUU6CF+oxDowzM+utDbc0hmOFqWeG3Jf1VMii3FmOtLWcBP4u1bLQFQT+AMTDPeleiITm1gP6juSFEF5165rSCzAeTaQtVOQ0tAKrUHTkNBc/VATLiXhlQ6T7bJduG6NSoeM1gu2wFPD1RV/tRvW1WFbNh4B3JEfBaOn2oS37mtPEpq3GCC3QD/8V8PZDVjKHmtXqMn2yv2jnSyMUs8NeSjqydhbCzZa5qqut66Ri7+yLpRVUQ7m0Ajdprr5dmwBCIPWEQdmCs6MSIWOn9bEQj21xVzReqItqe4Aa9RKq8yxs3YRHn6fhjZlrS/UsxfzI+gHHMCyiD3So3vFKZR6bsglqCeXJoErDS+890QQFRFFGKuooVqAtGXcMqLFpOQ2gxQreRXt1C1c9MfCCaszlSGBwmibgpdpLXJbL6A7aH4XxbABM9bDo5pYqqfQ7Tb1bN3vCqjMoX+SZMWi48cIqZxbMGLaAfpKF3M9cVRUfyGJSEZd62vuRV9UhgPjp5aQFe89FMeDELKtO8kdd28ge7vP79vs1bFtSQQdDqCkYRCCLGCMx7Svsd9WeJKvLVhJJjZriaUiUC+soFSWdqSF1kTzTNTHfIFs2XuzHbMm1BuhX9auqKeKmpDLi3pClNR+NARNk1fKomzMgfDxbQXdzk72OybzXTI8Yir63gZd4bu7wFySA+E9CkscKB2y4mhKPTfkktXzKKhhTSck5CR4RUqWGsU4leIitJovcpZKdlekSicUCVppaqmEJlOvLCOk01h+aXTeRKgkjFoV1Z3wUPspWdlCJ6+tQ+pvy9mOdieAjKwp+LHa5+pMxnsKilMo9dyQe6+eRVE0Sj03pNSzKB4QpZ4bUupZFA+IUs8NKfUsigdEqeeGlHoWxQOi1HNDSj2L4gFR6rkhpZ5F8YAo9dyQUs+ieECUem7Ig1ZP/2Z8o/sSeWMlmQxfQTeWX8M/F7sdx5h+ZZ6JXqQvfjGc7/YR43NdeDOBN/EmD3bj0CFAvqalzHwHwO1R6rkh91o9F7HUVFBur7E7FDHx/e6/k9STkfQeb+xBMzuW8PZSu3qPYWYQ1laWjdhznDRB6G9sWvQI5LSFo0josFzUmfWT5Xn/T9fmSXQOxu3rcvsS70blHe1+z2seGhnERBuka48PRwBpvZ1mQb2SO+0FPoi0vwtq2eJi7HKzk+xUQDd4axm73KYCarHAMF2WhpbMxFqOom0PlHpuyGWoJ2YDEsFpK5RFLKVQ4wTjk9msDKczbOepvxbdvfxJfatmoZHDZ4ylcb/V8UasKW/FXDZnJOZyLrWoJbEX3LZdpXNOSJsjUfjgSIvLShqRznTckQ5YfCc6ZQmJPf5Y3rnjozVZINqwHjbEKamvtbyGIRWlfWkhI3YOHQJ3HalI2P7HUaxjcKMZLfW8HbK3+/y+zV6Nbel6KLYk7QAaTBZLkEif+JZgs56rDORalR3vDk+hlcJstqlNSBv6dEp/lF0XnbTKYkF6OodYYHUJK49B+WtNsAXdt8gILXEjedHsizrbjWZ0O6LMrQvSREadEJYxPoUGwwqqN3ehJJqK/exRDwUl2gTR6hbjo3PH7SC5HZAoIqZhghcQ3Erd5iJRBtaPmtqTTeeIQ+CDnzYIJVPO2EA712ocTTI9b7un1HNDLkE9E3k1cxCZ6bZNsO9Pz5TAjCmLuLGSedql7fmmkuKBm2OjB4gHeuae5RDrFyVaKvmQQzeedBQltJvaS5EP/Jfyg4Ymctv7QRss2g9IV92ckxJNtYirnchTfqRpb432rjU+qO71zVk5OkMrMm4yVqZmXaYMlrbhWXhtHuw/BAotaCui1AaE2Uq4XzotE9mTOWkwwq08QAOlnhtyUer5Zv+j0gYYOZypPo8wpRgetgcY0Gn6cjtP+bQ93wRp3QTXbNLihaYWkZAxG/QRl3LYi3UagMlwU9WBcaE5UoovKkBRTbuCXbE86UdElDjWBrL3c3y2/V7olRhrDXZx26unFPByhMqJnsrfoB0Scr3xQR6Xk75wlTSZQp2XngtD9tZnL+heGG34wWZx8UrzjzgEN/fjKENftOluEDtuM5DP4I67N5C93ef3bfZq2hbO3GsTYorN0yv5xQndZwgn9ZSoleiyff40hZTSliioYgMwWAwPbwm69LBmbMREXs5+MWzbARMlutHgfnUwst4reeEjGxq8uTmzID7RaYtZr6m0CqdELh1yoYEFbOXaMYB02hroHNOTYddgzpeda46PWI+2UTTtK/zAiIccYEgwRACpJmzsoB58GTYpq2tV/JUSBw6BniLgvHjZD497gVS+BX/ej6O4SXWKaPsrlHpuyGWoZ35H/Cgw6TGn2lzN8aNwxkq0MCJEaWVBgZmOJYhGR4uxvBm+MMxCYGUlEu3lhjVuWkm0a6akFP9Q0xS2r2griGj1S+rQyCAPi9DVFie+N58AtajtgVShK3gA8S4Xz5WTTe7I0HdpisqLk/q3xfhofW1UXeBJb/AB+a0AGhttNNxEzj98CKwr8pr62rxmaRkeFkSiFJd0pu1HTWs9gmp55TxyzUBGB1qvboBSz+sytiWXb44fPAbUIUm1Ocug0lo+R7HFdY/uUgU1kQXSlG+sJKd0CSG2x8ZadHLPfJhbcB8FbIPYZR/zaUNmbuuMsAxdoe3GljckUpTLCrl+dgmgxW4/4BIJlVC164Jvdy75TpeodM0t8nMutk8dH6kvRwFoPzCdcoOo5RMppkdOJKLRrKTeHFJPodv1XuTedAVsKp7x4ygsG2bVcfkj+0sQQrZ1BO20Za7ynSpLaMMTbrbSIB+Z4znJvR7GMeGbLzgmcGE4l3J007DsG9Qjyd7u8/v0XsG5E79g5BzblkXvOpxUnABRqKmnMOyCIQKclWT20SZTv/Y05PjYhF6xEHW0mCSwEpMybMlHEyUwDWLbHOjG2h2OiW2DQX8ns1qXcDLdNIhZG3+1KCbjpIqYsm3NFx/DDew1j2JnMpLdqC3yrzk+1m0xiqkglxk8JNEKwk1fWauLLgGp8u65mIMddUH0kuaYSof2HALBe8FGtDDI5WUqwq62H0MCKZDX6SFQRNBYSo+hluNwZGcapwayuqI95rD5QCTr4S0nuWiXDPO8/QOcr56qmkCa1sPqh0ig951Lfto7nxtSTxlHXCLd8ggOxGElOOJjeHT5Qj8tgpXklo7DhI3eHjJ9V9v2uOFm+CF1GICpARbPnqewUCT8WSA7YAWGX+Y4BI0zJpJ1wOg789znuCwBtOH+hMONNmpo1ZSgcb3x6Y6xdNWKsUSusQbOK1qKw+o1dAVmg3z4EIh7WiZ50w9FO5HLeWAxSHsQD1mrqyQXVxNOVk/VTfylPEkPZLQ1F32W+YxEFOP4Ouj/8V1oXCP2MZ5plHH2x0vyQX/QBS7qKVRcVHeTwp7IDamnQE9veQSLotjHicGlEt+Enmcg/fpAIGcEKpVqUuMcVbpe7OspQ5Yy3blJtAj+2HpOzwhWYih4EqWeRfGAOFk9ZYEmy2FeQOkFCRSHCRLcoj78I5dasoaOpNOj/9zYR2sNX1QqTcT99wRtPa0XMOf5qZR6FsUD4tzg4hV7v7g0UfKlp31vV5TL/tyiejb49g+/IxzvkDjt7SNRT+7S7VLPoiiO4pzg4gfZojHt3VnRTCJvJkNWJdd0VTnjuv3asc+l8o5X7hTGTnz4XrWsSLEU1fc96b+6fMfUU/XfOFlCUce2iqLYlJOCi9IIyYHg6Aptop4AeVjrSZRTjZBuL2dwjdgXZ8ULf18Tvk8lXPMN7dl5ZG/3+X2bilbqWRQ3xJnB5erpn6pTmCJHBNMUSBZOK6p1BGe7x3dkvdFQR/2MS6T0ConqOteepZ5FUZzKGcGlK1DRoFAaX3tCiVSzpBCk1e7T48fb52joFrE/1cP0Bbq0cFanz1smg1LPonhA3PHguqzYfzjqae8Vd7QvMwg8J3kCzkqLE5i+dW7MChyPnv5mZ0nk8JvJnbODn3vBImAwKsYiCTt6rpWz8XnXLYcGyvtH85nFeJ95iTc7lsTXQfNcYRzKNAAYkJkzuCqcr07y2C1HPcMxmi9wDo1kd3z2tnEkpZ4bchnqOY2WifSNJfNckzeRe4bvVFjEC92sddqb5jLV/RtvBmMW1y3NAcsNsyzgNczbsRWxYdsL1jSDqBlWB/Z9N/5UCDcxUKkRd0fbXniw2kYa7v0DJSkyPJbTF+l7Ya4qo7Kt0ZnoLERDVgSZzLWXlg3ciGXtVh8O0k2c5GJ0CxtCNDJ0gwVRZGb8yCkXHV40gQy58bSbNIuERKnnhlyGehptUnDCDvOjeyt4UmI5OXMK52fEkdxz5hHTxUv/kePCJAvszA8WkQJ5KqMZvU8MbbEBb5I1qDgnLMX2REgwK+Np6vyiC1GFGy0nyh0eqK7TEvepvKSFmEsbtuTzWyKPAMPM+0bUJlpL295fO1TmRv/SYR3Dy5DHFMXcd2wOqDH0X78mHsRIKRwJ2ae9bqgPjaQMnZRYaK/PdQo7KuGPm+HdNrDVx0Km1HNDLlI9x6luIcrw0RCMKZs4sPZsE1JuqnD7HgtpKudH2Iji2WQ3TaAh+Q8fpbZ73aGJbr2D9xMvEh31g3jIeLApNjRmeGjaxon15F4QDhj3eAuJF7QqFpdintabp/sHik2oSamOEn7CSRbUJtqWwdR6ex7ouwCNRJebWWBCzK296olKgTiKAbDeArWXDId9SRUTetzR1z1eQ8o4Pq0A91PCgSknWD9wauEBQ1WpxF2kYtuc8bpW3i1PKPXckEtST0Y0p448S4KkiZlmjM5Z2XQw8RLylYqGRmKeypyq3Lbdtk27DN2QMNY2rTPvxJD8p3+srXNblMsb8wmfrTvIWf7+mIe0tKIJpk/YCBvaTVEDyWNMRk+7lkVGZRjgNDJauInb+IMoZJRyj8nN0yMGCqABqSjRLHmpgA+VtcZ3O8YjdggbTnVhGFuC1thzG6R4mbWynC5C+MsNaQXtRHeRrJ3UbfOGWCdRi9VShsAkL3PMSHL8JIf2pDGdhbLlxq17tA6byGyHc0Gp54ZcknryzB0TvU0iQ2cMkkdttHyZfwNpjjGGBNNAW1WkqYzNeFYZ9lIgOfKQAvoh/ykMrM0NL8A4kTkf8SytIkK8gOuKkxwgbTfMLkJlLNOb8HqaannNRpjVkfTkbPPAQKHDsqS0VibqqbV02cl0bC/6vQfUWIdWcgE/0wYx1gJ7adKjhBf0HIeKv+0ha2SqZ3dZEB1a+HNkTw5POY4lp1w/PLmAEMeMeaWet8cFqSfnCGeTCsKgnTZjVNNkNrU/Rt4WugSfcDE1dTK3mYrSfLuNAcQlB3cXMxSZNMSgW1VPMy5pfRxgj/Rm+yLY9Vj39QZj2wuYhdBk7KKZ3oS7o6n5r8BuoxosQDFk7URroiNa4piB0oFHEvyYqCcyWYMnG9Ukjusp+tnw3kxpTcL6xLi2mQ9QoqVyzhnNR9SF7HKg25kvOhjwCPSkIgdGUg41tsWL3lCcATRZ/ZDkUs/b5GLUE3NJZzOmGOmmBwNQopzTSmNTJ38ODFbkHAuwG5nLqawt+q5MbJ2aYlVEUZux4oCtwRNIDVUWBqV28qFZ09fWGKH09ylgmaBv+i3SFYyEtEpdUofGoqYFKvGSxxCMAslbsWZx2mwcGCgzwB7CLJST6phtdu6IgPr2ZDW/Bo+3YLphhF0BDclUGY60wkwpT5FyGzKyinqpPoXHMRwJlkABHQEd1Ebf82H/0EgSn3LKaM5MaLIULfW8TS5DPRF/Mf+5jauxPI1FUHz+2UzSGThMI73wsjnYh8JyKgvzqQwLqoqIFnMrFWWG+kEty1NeirADZnNoDCxSlkU4ApSFMZloA/hDdfE4DBPY0BNMFFUPdVczwlsVqL40OTBQPqrYd0OQhF2sLEP3BBW3hpteql2PtWYv5lIaaEcG20jayERtKtE8BmoZFjGSnGx2zPCSyqArmIp+IvUq2fLoUrd/0pQTFj1UE5qcirrlCaWeG3IJ6hmfKch0FeHUoMBWniRMZBLDYDEvpS6rxhwUG5HPukIfVytT2dZJeTY3q1bDN7wQTGkQJ/MLuvbIIkEVQd+P4wtXb+aOqY5WEZmSqksTAt9M0y4r2hMZlAkxLEcMVGpaR52JrKdNJPIAJvLbi1OsNXtZqqcsKHV4wlDzak6uDmdRUlJax+QEEy3zFC7WvWO9T8o4mthr/T1iJKVN9VwLujnrV1NPtlTqectcgnoSCYeFWi7CQYWFMwtzUMLHslFW55sYSrOzLZU0MQqKuqQZCXQq20wmbAGwphpiZqog0WNO0DCT6DUNa1XdajE1hA7zYl/kXroXJZAIe3kYpBDN4dUSO5uHWNGzNj4HBoo+W2yjKA+ZJJO0OHJWWjuIe6GnDb5bIWNzfDcTUpOMte2khHweqVHkGiwlRpZ9GWUs9/fQSLJE3lunG8UVT5xSzw25FPUsimIDSj03pNSzKB4QpZ4bUupZFA+IUs8NKfUsigdEqeeGlHoWxQOi1HNDSj2L4gFR6rkhpZ5F8YAo9dyQUs+ieECUem7Ihagnv2Iu8HvFsdN/CZzfGfb9q+5+OSW+nUxy4YFzv8GtyA0pugk39zlxvXYADCzsg0PjoMCRaW3ljd3etWeYiouk1HNDLkU97TYVuXcjdjr5yXudUBr8OXzTXHnil+3YfTGJ3mzPuhqFpptlNIJNSUkylW2P7VDPjB3vw8y4k9YxLxq9SE7tHYfUBmiD0FoQopv7xqK4REo9N+Ri1FNvl5O7HmMnbkijcoVqyZMaXBZMFKgaKCsvbyAJog29NLy5MqCsfDib3ADZ6RJIlhteRKVJ/eBd6JIxihkfLKKg4OClFMl35rFC135LQJdlqytycBwCrWZ/+yykxsCG95O7LItLpNRzQy5EPRsQCAgBpS7HvN9PTDmgblmku7TITei+OEx0NnhbM0l610kTwH7TwgUqVqJeFGBrrxng6jf2sJMePhx0KtU3L/Zo3Ram1pAJpMrjgXEQePd0ej4d7xDvOpXdtLGQKs2T4nK54/J0x90byN7u8/s2ezW2Rc0KXC7skeAW01k1+MwhSZyoBmsGujgcyXW6+mDcH0E+rPpTMuAVWrQK1nrbUx+ybrG2aqLWn2iWOyBFG9beUeMAscS2plg6vXE/mA3cHh1kY1leiwum1HNDLkE9A66+KApchPHVkgHXT4LqjSpErxrUiGPUc7zUzkVgtzcBXLmoMSiMxeNOV7Bm3tKx4U83M//Y0NgAq3vr8BeLQK+tePnekU77LGk+DhNBFpJdvLoGezuzGsVlUuq5IRegnohsLjhtrQmt0iti+VUzpIlw5DWXbKgMxC5ZqudMSLJ49vWnjMUnuLy6OVcwrYq9ZAG7rp7IhnSiIDd6C4tmQ3EPj4NoeE/454R6roltcbGUem7IBagncbWQuPbgjiBvm00mRJWSaiihOp38JPr0tjd505SiNmgfxUnWxJQdL2M5QHTLTgMUbz0f8OQQCqaLPebCrruvEkhoAYlwxu2T5sMJ4zAWTNAKF89oYuhecemUem7IxainqoVcDWPHRCMCf6kagu+G9plipY1O30JUjDWNDWayxBpTUWIqP/JBhl7b98blXVJqb3yOE1ZYnHvocbxhIZljOwfGIcHmOSiz/okVNnl4AIoLo9RzQy5GPZOcuET4KzdNUKGKWSaWIuJisJQFWWzl0uCQeOSlJ403VW7iTMxs784e46aQg/sJOR2gtpfAvqxejxsHrU8pZp/h3hU0OeW3gU0+ouiKM8UFUeq5IReingcIdXAVoQJQyNIbgrKws71OFgReag96QwFc0wu1vp4/pxexQ9I8ljfoqaxBZU/6BbHUgofHQc4Rrbryhl9uTb5cRbPtHQi8dnWKy6TUc0Puh3oWRXEUpZ4bUupZFA+IUs8NOUE9i6Ioiozp40H1tK2b5zbbKooHxR0PrsuK/VLPonhAlHpuSKlnUTwgSj03pNSzKB4QpZ4bUupZFA+IUs8NeSjqOf3i+ZGkunLL5JJ8z9ECPsTDKl1NvEjWp9+f7zxniZkDe4F3/l14cfRkA327i5uO4GEi+nrwZoCbZH5EUjf83t3h3tzExMQGI/lLU+q5IfdUPeVORkYGnxEvW7zDhqS7btqNnoz/Sai7Fau7430701hDKNktOSC0clFd74sUwkwWmZngHPpBkV7Os8oFyeysBZIUcaY7uVqn5gumN3kaqHnKzZ5TX+HoTLR8qImMzHBELR/DZ4cijr69tjNAO3zLjl53JHGw5FcL6MjekWjuOKn4gYO1n1LPDbkU9cQ0mTyJfT+c/vFDGBo3Ej4hPEkMbRpOIiYSOaOHYIg5blHptAUK9zRTnvVOO6MUhYvqnaI+WpPyIo/1YGIft+xE2x9iWkXDrXby3ZwEVo0v7TECBm2YBTqVTITOJPapJ5hHexvHbHPsJ7PTCJGZB/RYFcrKtCJmkYM+qidTOSCS17Q2LGwxkjRyxeddWb9yt6UJ26FBq9ePgbK3iYOUem7IRagnZq48lO20iSKBYNu+M85GrtwsS369o+Wnqa1BE0+WI2o4tRANSaq3oTGm1XHNZ1HZvDrwWx1H/aAIGwwFRlPmZNgRJ2WHXWqetYFwSRMhNndpwZrxAKUhalIbIG+Dho12PhqHWpAByV3sQR0+DlrRvoQXS3PJg4E4qKmanX3cA7xaK1ZAS0o9rWwmkgXJs63wJjt2YCSVqLDcSJtswscgWziqiT3ccXm64+4NZG/3+X2bvZq3heku8XAknF2YWFlX5K9OTtcxmXOYqDZ5LWAWMNR8fieiODf4mCJemfVvjDIIzv+tDmLFGll+xuZyKCtMUT+58qEmsCtcnlkBZD56i7W87ricyeqZnsWkRoVlq2CWKM5MMjhKSEsmQV9uXsuKs35Du6l5yfkkzI4dFUEbkBWoVjYT0TA3LOeskfTTYCiidhq0vpmmo5qovJeNc9KBJo6g1HND7q16ChYA3VYj0nwqzgoxtVt2ytz2HBFn/kob9VH1E9Fk+TDHsiiFJQuf52m6Z+nYOO63OvaoJ7IZyRaXLTIJS7GyBqElsPFcnU7hMhT91ytXJg0BySKCxrAfh2ao99ArN0kILGmSQ2vvsRfIcMN9MTSbGlHaQpeomhlmZOgt9pNgRo8F6yaGioeT2zpq+MNSW4yk0K43ooO+YT2QXU3Tv21EjmtiH6WeG3Jf1ROCgtKYabzkJzrtQTPSpr9ujaFGGDR8I8zmd09LtdAjXUjD5IQWwd6wC5PGSlIB9cDqKb1mdKyNUYqxwbrAdjsFti0dDq8cw6OtzEZLTY1bRqqwyANwTFZVssn8vtCkSu8BC7TjZBujk52ViUkgAitvmcw6eK2R1AJI57+Fs9zH1LBdDDKLqYl8yJm7t4n9lHpuyH1VT5unsi4U2jRL079tc7KOwYB8XedRwKJ2XrswFwvI2OZGLD0Nu5hvIhhtAlSDa3t/q4NoeOWNRGta/Um9chBsWCSL6/IZ/mCjt5oEQlioJ7bo3qSdbGpwFbupOCovnRiOwOAVx2QgiYp7Y814a4OT7SAQH+6wQVHiAdFr96WL4Fojqb3WMpgTUTg2dEkpuzqP2pNWg/1NHKTUc0MuQT0x55FkeMDw7Dvo1ABDpUXGJNZllaHpOO8zlFIRJkxqpKmrVTGZ+U0mWUpIBbzk6e2zfeaAGlz/rY5YYlicp40W9F6pNWCOADHAOvSPSdIBET/JN/YH5FI9hWmHUmIyKqM7FpZx8jR2HQXEPUsaver2hNYYZ4h0k4MDs2oNtFo0vQCFtHcyxXD8uezUKpw9qcUNRhIm5HI7ynBUxI1oCUaRorvqcDag7GviCBBCtnUnuePuDWRv9/l9m706ti0LuRV0blIR14pogHDFYbHNycsUzZ6QZi4VAZUkBfXMDxFk39X5bzHNV74YUT73oA+MgHYsfVFCvbAy6IrAbngD0nuTCDnjSKr2nJuktzoGJGVO6BWwc52DLTSrbnQqnYIcP5TPQoWFurwgqa9FK+pGY26Xx5Pm+JJHd0p/AIh0X12Tz/hULFHy+iOpRJnlhnqDSSRtcEx1hDLHNLGHUs8NuWT13AOmoUUWJzojMWFvuHOW7igN3fzEpPX8RojDOFW5YsQLreyJ53X64O0Dg1j82t6iBINc9tFLBDsC3Rxi11otaQV/clu55c5q71LaRxvmCb1qw3g7LMdm4anCY3GUZ3pQ+zGRBC4AY8xlZKOINIk/fa22t3ckjUlPekQ3Y1bSgTyvjmliD6WeG3JP1bMoihmlnhtS6lkUD4hSzw0p9SyKB0Sp54aUehbFA6LUc0NKPYviAVHquSGlnkXxgCj13JBSz6J4QJR6bkipZ1E8IEo9N+Ry1JPfEm7fGB6+lc7vxAfx7eZcZWBh4Xbovt28173jvvE9w9rwplZNydfKZ+3nsYGVSXVJZZF5NsitrnnQHTRleUy0sncmgxw+v6Wz0b7Y7vdd9Qw23tidlmxk0fL9pNRzQy5GPXMILmNJbpgz7PaR1cAmk2ic6alHl2wvYz1H6wq9csiDJayi3LCjO0szfbVjYZeB2e1fbFD6TjQPLJ8cdjIPLUe+G7feCVQKE1I/eeAGFweDJjxFR2JaZO8ILWrA1HhXYxzy84b7Iin13JCLUE9GXItGTvoxonOsyE2Lw7qKwWblZTPJhtezCEJbrWJWT6MF2hDA3gRIFlJcWnl5kfuoWaiP21gvUZLkVYwOQX8ANMAK9tJrhidiS2/ftpu4mx/qmOzSU2yLw5JnYFTi0VUdXUN6I6d3tDVMvDXm4mD4M6ZyfRwG0VkcKWb64WcJ3sl4cK0ozstYBp0LLBEH1/0Jt+8vpZ4bchHqGQrAGJS7kCU1hSQXOIwuwrWni4KjUSF/I1KEthdbEpuylRoIvBijM9lJoETTFg1+yqk8cmxY+5FOBuQ+dZCcnPhwANS3LWGsTM9DjvQl5J7yrT4y3cpwO3nZHu+rfV3Yt/rQRC5ixYY140XbICaxSn1OaOp0EMRZ2z6doRtsmrNo2cz9otRzQy5PPfkoDElsMaV6IDGq4W5yEFdmKNGpp1VAqRayKXiZLdspzbAAw4td3rb4tVrulDJYyCovdE+pCLKN3t5+6MIKIZCKWd1rvNM2wzpglWwsuSebkigJaajdSBoK37RMfQKqJdoJxv3V1JmfyJGncQ4s3gsdaFOjPUlFGkEb4eD9pdRzQy5EPaEygq4NXBVTTHHqOx4fKRg0TCOkPVr0xzC0SNsC+qA0SMUYs2ga8mEFkZ/qcB82NAbdtc6q1DhGPXOt1MmD9H1Il+xNw7C9FJeQ1jyMvmIMWIrva7S+ydPg0SjX2slhVmNdjlRrOTnnm35YxN7Y6emVe3N0XCYO48SeUB95rYJBtg0roROovafBo4rinb17SqnnhlyIeqa1p2zo9E8B0yJBA8/0FQFoOni0eralrRtJsJC+7UZrvXYSpO37eQnmd4LUAjrTVUqdPAg62FZeTfugOendXDfI0ZA0HZxVxndB1IDIF0YdNW08Mu2yOMY89QoG4BsqaX1zKPc6Om2JsS9gT7rVOdYXwa53KuwOJdqcWUrx/aXUc0MuVD054bmuiXBgBBstEqSQbUk+dxlMKI1dFmwhq1v421pwIXTCHusDb6chGblWsx9E0iRP6NPXSq0Rg7IcNMX3YRinGWx16oncAVPhTn55yYw6VrONs0LL8tYv2hH3xRXriCzOTZF5ctPiSICxcDP7yNe+DzzB9SlgKAJBtBnBI+Vbei416BVPhZwKnf/3mVLPDblU9RTyLldXKMb/lkRB9ZjQyJUVmAWx0fa4FXu6vswWLKltv4W95AugaTQOr1qtZj+vCTWaW1jnXqmRRrMAVHpsZ04Mysqg+T7tapGxgKREM9NcS6F60l+cx+JcogMsuioflEmxoY8dKP8el+S5X9IERzkaWnfCWBYxugHMSO/lUmO1yP2j1HNDLkQ9IVxCv96LgAndkpDldid8HX2ktD35miO3WddjOVThypdXFEHNlnLcipJuavXnJQB8bi36liMmhwpjKe2f7UyIQRFxoNx6ZxoyPJIblsZmuC95S1VqKf3n1joqvhz19az7mzoeyGBqO2n8UFJOLEOzPQu3UkKcqASx1Wi1Wu9T59GNve1eOqWeG3IR6hmBIYtHSRp+HEIu5TyB0bceAX2kpBgVzZMgzpV9/cRNtuBqaUigHhlu9DkL2ShYtN81LSpyrPUFo3ngFr0P2A+mzXCEXNSCOBx70MZVEr1sU1Sig5+Gg3VolweZuyKtAt3TreZL54QcmZNVr/1gpfgpZH/vJaWeG3IR6lkUxTaUem5IqWdRPCBKPTek1LMoHhClnhtS6lkUD4hSzw0p9SyKB0Sp54aUehbFA6LUc0NKPYviAVHquSGlnkXxgCj13JB7rp78grZ9+flq8h3v9JXryXfLh69ks8SmX6SOW2L47fXu9pjJ97733AOTHZsVS/njF/JPwL7LflNs4SQGkdVoShM6hu/Xzwu5ja7w2dhtaHBIjio6OB9FHLX1ubXFyDRKPTfkvqqnqxFvT5GJK7e2KDH/cpjNQk5u3tQqV7PfqOgfQ5xm+T76huL+m9lNk1lSW+tKu0snG5wFfUpj0dlZBKDUvsCUu3msabIommQbZcexNLFqro6ObuGk28gD0iEi5ZtzO82PqZXUAQOeLnobaIN2jLsZ2Q4fS73l84wMk2iLkUmUem7IZagn4hGJ4IQzL+YTsLnKKc6qOSQ4LTkZFRT0Gawzm/VRVl7i3vI+pCgpbb/PA+qBkIJlNLFHPRuTJEGCVx1nE/kUwRZFfr1n2LQmYA19Co+cieoZ0hPvw/RGe3OQL93t84qNZesGEqLIVk5G590WMWPpUIDdrjsXJGdz19zpjPeM/sM5IMl74PPvXT0x3eSo2HMQBGmlNdl1bquRySyD605xx90byN7u8/s2ezW2JdNCJstxE0TRYJKph8sdPuGyj5T8hAvuDNJ81A9p0KNQYJ/mXTgKjMkwpMVCijr11ODF376TdNVMC8mHHM5pFcRdK0SbdBF50RsdjqWbaGVMpC29XGSc72hiWkRaZlGY94FoneQBRE3ruzwcVEq4rWs7GS6Axfgp8owEHFaxoRbSMBG6mGvSTc/XqaA9o6t22I7BZJ1u07XWKHZ9qBT/wQIfOHD9kem54/J0x90byN7u8/s2e7WnLReLo5B45aTVuSgP6fB5q+Hb9nRajlHXotzI01N/T6KxDFqLxj5GWzEJSPn9H+S7eiKvN8QQyw8aHawNiyFJTIW4YV5Y8KXKPWxWwtv2R2hA5G9c96AN9dArD0eJpybLUE9U6FpHNnGy1ZhOEmvNBNFGqjOErHwBTahbbdKwvEk0u2xlhJm/KKM53oommGBKDS5eYxTCmZYkm9cemY5Szw25KPVMzzs6BGcqJhqWdljpyJMibb5qOjbavEXmuCow9qon/dFVgOWldYSXYnMswOlvxvsJvlh7Yq+VoN9cdPBv0H1wwI6lVOkKkq0xrS+OIQjZEpqBOS4hkxHBWu3dowm4Lz2jOEs1GU41qk3SQ9Tq++LwEHAEaEgrYZPH0VvawEn10qGlhpiQ42AFuYnibKeZoRNWIlptWwr21UuZV0PhOWyBltUT9npiVPdbRkvaYGRGSj035GLUkxpom0eCSTjBFqKajyloixGbdrYscpbqmZWrBzN9lscVjZmkQ+NvdYTicO3UAsiw00VXpS/kQhWp6kZXyLvGKGbss47Xc1KFRQAmaWrC1MaRsE4r1kqFU3Fqkg6nfee6TjbaUrdDDjQ8VAs0lTWonZhbI72HkDKqrnlmzfdFlohy8vTBcwu3fHBawz7FRCSVfpZtNzKk1HNDLkM947GeJ8L351GxiWCec5zOfKepm7yY33jNrcVsnE3LmLW6kSaxw+VDp8i9GYoJYkEbXIl7sSFOCl1seRi1ltHZQZrQorx1ZouXSfixRNtF5YUX+kmH9XJ5Hus7Nca2ZJtLerqAN7KGa2zhpMDTB6wPHggcx0jHYM8MpJHrOgVfzDPsRKFUeoqa0Pmnba/U4FHj+nKStdnICKWeG3IJ6klRCXz6Yzp1IjfF5v98xnKW8cIeW6ALFYAJ6mJl0hUbba56pdYAY7c1RavY7eZza4jJNGnaSSO5YKPzrbVFPIz6VN/FCxqA33z7YmXxIpeHuS5BWh5dhr/Z858C6t3sR6+PbcBsP4Vp1aRdWzlJWE6KzfJ4vCWdezTYDmTg9XV76CWS1KPIkQGRLSDnLdtWpM/9mb+r4ej4LrI4GluNjIMQsq07yR13byB7u8/v2+zVsW1h4kxmooLJxkg1wbMXw+r0k3USKoR2LH1RwiNNykBUBE54NSuhYzXsOypManOdoq1bLCB+eRuyJJUM0rU8um0960OoK6TVfdHHSERDGn7T2BPEIfqQi4TZ3DfSebimnlIXgc9Bwj4baMWu56TuUGBi2KQWj0vsqYu0LDvIgE9Z3bCbXOrG0BCPUNsz+jL6haQAhWWfjmU4B1p/Wu+ysdTG9UcmU+q5IZesntdkmPld/JMDP6TB+anhyChB3Ajc1wXt0WhwaUPwSeW+C9zWMlTLfn1JiT5QlLSGfK2//WYJ0OosijzqCWMu9+wAJkCsldvOdGPTDyxJ2Wzc25YhtJLXc1IKL9WCQyuuuJBJWnOA+JcvacLdlsb7Y6DQXu7dsqunICfT5IvMOCG3fd3D11PquSEPWD2L4uFR6rkhpZ5F8YAo9dyQUs+ieECUem5IqWdRPCBKPTek1LMoHhClnhtS6lkUD4hSzw0p9SyKB8TJwTV8WTWYfpv02pR6XpdSz6K4IU5XT/2urn5bn2Iq30T1XW7GV43Tt1+Zf466XiP29QvXdtcK79rjd3bzvQRvdt3XoLGbvqR8FjelnvxatzC/FWIvp7bl4DCyrfTV7Ez3xWbsXHfkbgg+rsLc3Hd49Sv2wQlT9crvkMoWhvrdWHmFkRwrQLc6DnSAVW7wYNG021jrw/VAC27V+tF3p7tv4mZcOJmTg8u6tEc9caxEsTCheMuCbWahOp5zYx9uaMNyI5vekMW0NLHT0VKsK9cge7vP79N6JWEjnp0j8Mu2zN4gGUIbHo+4fgYnMH89Z/bDDD4L5LSlyMnraPdn7oHWUq8x9HPiRBuvTkJ68/58IO3rUHA/Pjyp0qR+jBXywiHDHeGNMurL2u2Cce8M6AXam7y5g5UtTzrY4FAuD8SUwVvb5RDZWNCHZC0dTZRdd+EWOUM9o2vppd0NZbNB+00JCwmdnlEPcL56ymFQn3hcqBbdkOssgndwrpu/Rx/9JTejnokzBH7aFscCtswYB2Ew60eZg6IbwApxYBuwkorECFssbMBasIqaRBvT9qIXnIoTM55mwmR9XVGvERkGrYKzc5K2qJ8GyobIXsgwy8wVVun70YykyqRp2w0fLEa01aLT0ZruapHcyrKFlJ263VqVfHFes22aDwVakav4iSzivfgFODeQ1y7F9UoZnYUoYdh5iHUQzgh8cA31BLxw4180jfHP7WMKwEPMCiaqa1ZiKHgSN6ye2p0TWW/LhkXnpExDN9+f5W2rQxbx8EdGUserH7gUYz3zabOHPQeEk7Cd+qy9Vth9l1fqG4p0rbtpe9Xye9pb4k1M1fMgaCoQ/+MRf0StJHeSVaT6Ybn5g+Why0q8nrQ2smft0nMvcLCtb/WQxXxIzluDfXfci8H3X5TzAhlHrH/ufho8ihWPBnrIfrqUntflc9UTLTfkKAUtfP0iRo8LBRW9uM6xuUH1XHkz7DBjWzIyERRpguYIaE3FnM3YGFEy8GqeDXO92zuZdPw0yBLi0FG/5KGu60b8NQWVFjR+/dSqNmznOFAF88klvOGTTFpRwuhKAzb/RqI0N9Bp0ve9bd/QwXKz7oEkhmHd9LmTEhNIXQ7t0KruykjaEdcj70PJ8eEwQn+ZMG/oljknkDllsuNpGNgn9JarJPynZPJ3Bvj3vM6eq54NCj1/ozQfKIHP5LctHg/usiPXOSrZ231+n9qr/Hbtqcza4uHRbudVh4+Rvfei9NIlI2OhIAW5ieLYTZOAyC5LZs7phsyo2TFB67y6MdMaaQrLckUm3rln7bj6c4BaGpUF9czGCWtHGT4xJ5qyXILFqOgG/668h9AtO1OA2foa19w4QNhU+YyrkNs4WKZbPjLYddPupXRcxxU90VRp2fJtT33xegsnMAI00/kRXmgt91SvmtAbNBxt3D4ny5N4zRebNuyQDyLggdU5ZUeYM1P6elYvT3avRxvHGFMYk5d2rOzw6ATkkWTnhoKncDPqOX2e8dGgjm0NyBycqWeGbU+SZVwxVuoMLTHAk2diXOd6oGknIsftcE2P6AE6YE7MbAxpvbsHwbwxPfCqsOdzSkqIXzq+jAgrtvDEQmTefEuFLTEFWF4TMzd1sHia5Wuk6WinIqKeMMB9JNOQvTTghnunea1Bekjll93sRzod6Sblkle2GAmWx8yIAr8Eq8F1GIYeD+Xgvg2qDTnK4JByve2H7ySu6Z5OMnWFh2gu4T47hDQnTiZ7u8/va/TqZGZtyQTVWcoLsfUuM0wwWWe5Mbq6M4StGs+BcNbIwgCrrNSMZN2YlVJh0q1ZLtK4lMPkFE1iVIJFwVWsh2hGPRhjOUYgDUjnCXakKk1Y62i/TVMtzKPk29yIpWfmxg7WQj3pLEKpFdG6SIiXXF+hDyaQSmqQ3fNdlrNxyGd0dUL+im1toHf61jk7kDnl9LgvwNjyJIhuYiTi5H8WZ7pHD3AV4MfW1ZH+6OoN84+nYyIfbrVuLA/78VyGesrstn7y2OhExNbQb46WJMlRHPJgY/2HGSS48KrpQYpgL7EHnTy62Y5J2vR51ZJQozkhoAxDcHl5R8nkIoZZnjdO1COc1Coo+AhTflAHEiOgWZDXrPLMHRyW7jQrWpbHRh/maz1sQ+Pc5MHy+GiOC203ttwJbPT+2fSiJ5E+lPHdnNxOR7qlDclf/uFZz1z4ZTgxkGWecJagM1O3pUPM0jM6t3jc5XicscjeQmfi2Gb0bK6048UZNM7LE7gI9dR5zL98i4UjYwOUxULPjXGIGZvc1f2ma7Jws4KwYjIVA54DISWT9s7dFM6ZVlja0DkUQW2+0yod4xtFfFMvy1E0KHNR5q1Cr+i6lzIkS9F6h5wUdziKUl4GSU3EJIoRSEPRjcOSXFI7KSmtFoWkezPjpg8WKwm91keRVNbf+2yVAUXDbdubzqojuVC0L947Xs8y1bD91Q6iS52ZW+U2A/kM7rh7A5egnlhIaChiNnL+yTzOcaPTd3lyZIzKPKUFy4xoNNoHMjcMGlaf4RX0C1JBuL+zhZJ7+8uibsqIytBwwIbhdiSHjG5bzzjUqii5hJi+2YMVWgijVoVf6eeJQ1N5skGhBvJs69hjIN3QUfEjS+xoogmZtHbhyGMrH6Ph7/FN3ASlnhtyCepZFMVGlHpuSKlnUTwgSj03pNSzKB4QpZ4bUupZFA+IUs8NKfUsigdEqeeGlHoWxQOi1HNDSj2L4gFR6rkhpZ5F8YAo9dyQ+6ye8Z1pwm80n/4d5Vzryu/pS6R8fof//G9Bz4wLqxnnIMbavYQj3YA58aVy+d75pu7cOfYebn6dP4gv9O+ZV+eNFcfbq3F75VidS6nnhtxj9byKx3nvruROE92Jia/3wzjTKGCibU6lJaWx6J6bhbIlJ4djutdFiOhkI7ynJURMifhqNthL2xQmrqi/egePJZGwHV7wfmwro7eMw3/W5L0zWgJFpK4i2Z28sEBzgA3LfamtBNo650boRBvToeUOc8NuYUVJHxdWbx6SfJDSoTV4ejSbGBvJ5MCtdmFpASw9zcME9Gg7zdsFZ57HSj035DLUEzMFiXzm6bETxua1vOiNeUjM0SHzNE3UPg9wnpuacILDhaYbMCZhQAWQFGtAzKBBd7IFUJifxtSi8caiLGnlW0hbX3r77H/G/BWWbnjdGDAiAcwGJVVFaOgEW3H/zbWhRHP4LFI3ktisGF1Jpm5KXXvcUzugcTz3HG7WS12iLRTp5NedRHnZTGPdhmIYl8U+jHbjtqaeIbLzh1etc5uBfAZ33L2B7O0+v2+zV2NbbUb1J+Y9yJxanufHxQYvYq2QC2Gb6j5zOcFjJaa7XoKhwqiTZafVloevhr++FSE9hgvgIjkCDSQnDwpEmJMHcdAXMzU2Iiwb78dIK8dTj0U3KBSpGjRUn0bWMG80jnXUxoaSGPW4NB0JRzwc1kO2sLAyZgRuOYsT8cHD3U5UWru7dAH6joj87V3Ie9mIMD4CoH8c7op6Nu2EuWmJVUo9N+QS1DNIunQMy5maar9pK0RhGXM5nPhMD0nU3UhHNDJiTIIWvjUPNNJ1qyvGy+j88MoWrcS8ShInWtGcTS0gi3VxAW3POPISmi/uub35VR99WXQiqaeoM5vgKzawZXXsHIJCMmrqVdK15eieBjsBA9PBGWGyrJNTR/hAK9k1C9A4V2H38sDhpgekHUit2IZyUE+rgFJHdl4GDV7FCR1EY7k7HHExyBot+ThKPTfkUtSTK55TH1PflMXopQEaIKs1y1tMVE5SQaeoh4nHH/YfaS2Z8SiAuOGTdSzchNjoIshT1QYvAZOfw2JEqnlk+4YlN+8FbVryUnO+Ka8e4d1AEBFEvjViuKZYk6zB9y2ZKOPGHFcYvIRFGfPWnmONm3GjtXEErMzuJve7FhqezBqtmxgX7tic8B7EwLLavsNNsv9qAE01Fwb19C7bERkP1kBqIzwCyT+jKSbdmfV/P7cZyGdwx90byN7u8/s2e7XeFifiOJ3WWapnFqYeD5aEz9yY0Fqmm98WGFx4iTazTpvxGk+CFhw24x24FAV9+FhWmLSNVINLTW9H6kqRrjkdBVU1ZnRNMKh5DujGJpfQJqWexT/PGCTUr7WGijbMyQO31yUNHT0CHE5fpLOZ8fo4SMndm4KynpShYnUuPdnr6IePcfi1ONxxFCSRJz3Zx6iIgQPq2ZPMdgzprUmhSSebkK00x46i1HNDLkA9MaF0emJzInL7iZm7dwrrxsrMbcmYvIP2cA7zQoszmOX9v+ammZ2aX3ji+qZ0MmZlUaLLbCbEG/xBvl/xyefltgDsoXxIY60FesvBHc40yQntDpqQfupmqy815RH1wISCTfQOqL99xwczhxGzS6sLVpK1PemNN92V9MPW/BoPdxyFPD5SyLYkn7s0LAMtBXMzXjyPt5siqTnS5lIHSoXJ5sBRlHpuyAWop0yWxWfuVIq0sBjwZZLGcbfRZqvP6jZjMePbbF2Gk2C79Emu3PlOo8TNbO2Z4w3LHTiFGsNv9PRB3LfWZTUiWVtAFexKn+M008IOq1PRU3iA3JVg65vNe9RM1IbGem9iJH3xyZY5EizKFLSR32TxJlVPgqZAa04l7KoDPrSChwanQ7ukeX5W60ruP9y6fcUzlPy3JAqqmzDb8n5Q50LaQ0e1wtBKMKSnw+hwBYHR5fsoCsa+jfbBkbzNQD6DO+7eQPZ2n9+32atj27KI2gPmos+lfkIDV0opQ4WxmRgTkZExhjno5rdFjEQjZzqvDiczvmPiSUrow2dRVrFkj1LRzSxM1DKJItExqpyalOClhts1pSQKktNIXV50Z6jJYbLlq3jD6MaA4i9fUCDK953pzGDok8mR0Bxua0Em9cclmI6ZtOZNeomu5KHDbbNNjrVuS0el0EjvQuzBaR2ZWMcv6EYFVWfqKXCqEU1L83zvSN55eSr1vC6btMXvx2v0Kv2Elvkv+1ylxWTkvv6ygsxI25j+uoOiVliUP2tEEQ7ROJ7mGsILYrew3yG6MQ+9/dA1q4bNvp3WWyHvLVzoizocR+l+y0xvXPzS8A1QPeTqIvySI9U6cvhwY3rI2EsCis+1W0hj1ppBFU9lbR5Fl+vWSj+4/d4mlHpuyL1Vz6IolpR6bkipZ1E8IEo9N6TUsygeEKWeG1LqWRQPiFLPDSn1LIoHRKnnhpR6FsUDotRzQ0o9i+IBUeq5IaWeRfGAKPXckIennlen3ip/Alft5if7wnT/XfP4Kj65piNqefZ9avFC7j9q+DfAj4BfcvfC8g3zZc2cut6N5JvdijAiN9/YdnErlHpuyMWo56AGIAnCMjOQ+M357R4PZakrvItuIhkzenH0XciGN8P7SJK1JBeicbp5NDTslbSthXqyyB5BkluqgNztB/Q5l/AxudhbXLTQ93qSHcNtY8D7sOYKy3t3pCQ5dsyL61DquSGXo56Hg9pAzlrWQu4SrBZkiVVbKTuFeTMn+Ukr7Q7loUAr0n51iaz6uwDKxJukzVBTKBqQuxAPaZCpJ0yoo/QrDYk4LL6qvwlrQ+4ylH3UlxsRlTQsCqywytAAsKEAZsm5M3d23l9KPTfkgtSzDzQE3kxyEJh8hhHva7aUzJ7fwEDN42IX8sLlmqISFrqRtHmhnsQSxc2Z96eglqeGuLJcta7yB5/hDDuQB0FvAmd++LmQY+8DW0ZJ7547gtdABudRHvJW1Ywm20g96gAU16HUc0MuRj0P4+spXT2pRnTyCGlY/w0M7M6f1OBQFhZy1Yuj7dIPVY5RXilO1BDoDhPmDa0h/cu2lu4oyFkuHJHk5bD0NGu0NVhAQnTKs/DaupnVkw9XkcRWtkPWwradiLJuA+BF8oqbpdRzQy5APU01VmAYogRFyqI3KZpKhJQQLZW/Qb96FfXU559hxRXRnQRY9lRIPP5TW0TWtjTTeex6Z7WkjmyKQahRFDgM602v3Fsb46JcWw04JqyLVhXs5pOKdwnVfNXI4ml4bQi1HexKxtAKgCf9Sj/yOdRolm+5yiJY5XPPernYjFLPDbkA9exZRqmBjAUtXjU0O7EbVYXqiQJMoy3VyFQeUBAsRfOaQaoWNUZ2czvpHQHdpFyKgFGAIM6pwGHCaWui7wSdyt0WhiIcCgWOQMYBUk25VPEoeSLHUlbXqvgrJbq1p2yofvat0BBS2zK2o6WGFLsYFzdMqeeGXIx6IhxNLtp6pgu3ZaDOUlrlMV61NPXHXwZBAKzfXYumJqguvtu10yqo8Mhfsa0NLN3cg/uESvLa+0idW3g9S5AUkW1Zt/f5jZD7lL9QT2zxJNBawaauVHmsfBzS+lqLmiZ7NTu/FTdMqeeGXIp6imhSZFKU9ixF6EBKbyn2dCklG311LqSQg4ItfSjjuzm5LS11SxuSv/zDq3B3w88Qe9B64aNZyyxSugRW9TcjwrOcSLgvnmg/Dqmn4LusmtMFZOYBYUkOpj5R2jojPliR4sYo9dyQy1BPXd1IfPH9sjE4BYn4DtPbRCd2vaq0HX/vs2sn1JvbKjSysuqVoqln8sXrWaYatr96OYyeqZkD7/2hEpvsHFswOD4kWIsqkN1j8gWkvsU3K30IxGPVSyxSJZVHQfvV9X3RbCaNu4mlpLQ6FPL44YziBin13JBLUE+PYt0U/fD4TQLQKaOwLwXSl36bAiGNwGU7QWvl2JAWyVSLuWUIAw1QIakXaFbsyZqT3xmSj8ePaoL6Za/SdfVQt1JfOrFcKvxesKzVsrye9+WofjXVhjrMu5pq2YkSA5FoyRw8gIgzZUWJi5uj1HNDLkE9i6LYiFLPDSn1LIoHRKnnhpR6FsUDotRzQ0o9i+IBUeq5IaWeRfGAKPXckFLPonhAlHpuSKlnUTwgSj03pNSzKB4QpZ4b8gDUk1/Jtu91z7naTb/qbcQ337uvoStX/khK+fL3pMCR8PvvAzfx7XE4eF+/le73UAH0cv/xXofH2mvqPVG3y9VVPw/fLG/d5SRDUusumZRbo9RzQ+6revZ69KjdOJQfV6Fg6k3ChDEotLpty8u7sqpu6t+R1ShMLrpPMwvhSKMrw3w40W5vGozwdiPbz7dAOVJd797vmPt8PLO2wLomLfvZ9YLPhpKn6c1vS5KbqiRjeAJ2G1o5h07OU21GZJ+HUQRLBw0t12fbYwSVNuVYaM/BYi/ysC2dQF3euia94Z7e8TUrt0Kp54ZcknoiLvLU2sswK9/wSWuy5enYMLK0kjbXBZnpmKSz27A9CjRrUgBAL3r7JMqFBWzAFQ/8ZKdFmtEnsB/cjdSpm4w1ERixriQfWijKQz+HETgAPTBSxYXbyrp6jhW6fYoEH+NkSbnJZo36yiK8i17vhx2Girt63ywYPKGs2viwF+moeaf8oSo2wJNxhlG5+bbrRy7oPQi/lkZM5X1n2YbVNf3Uvakvc0o9N+Ry1HM2MffASzl7IgXnWERKusQTbPoNqYKuBKx+6I5d5DPaGG5I1zvk5bfPHiEp3T8PPGBW8DiK5x2RCC6S2xbolOWJj3Cxc8WL9/Gkt/LbDujaANIfAP/1B5dOk1DCFtQIMH9GI+lIDIz97LqphM/LDUKJlVdqiYz7pCUu3dp4AXeRGXxlbQip2xVjtrVfPd2qGE5Z2cKRB8sZ2mBV1OUTWM13OSEsyu2j1HNDLkU9Mbfzs4iPQR7ty5jkHFuJWbO4Ovu4nBHd0RjjVi4n1UVGRXLQFIp5GCoHJrZ3yUJT18ieKHQ7JCdgkWXrcU2V+EyNSngyn8oiq2MfCCuvmok0D2SPzANPcsrAateosHBbQCtvHW/YacquvrXTqLfCElQmDL51mIlM0wNHF+1EiKOTfGtnrayeOAruY+vVYfXk5br4xgbcaZkWUvDAwcIrYeOpqsqkJLNMK664pcGXdUo9N+Qy1NMmbpr1R2DKSeYVkexXymmW+iyUtRCnrEQSjXHu93PU7erstTncq6eYGdBIEJoF9tAtZHcXvrcEVJJgFe1gF2BYnnGX67Dz7lBKHzc9AD2978UBUPnAb5YozES5ieUmGIk0TsSvx5Nx39Az5WiCQtQuKmxoRD3bMQmtRaKlSCPYlba8P9xS9bQ2W4Yh6sk3D+RQLJ6tfdTBikaURRvEyuuL/p2Wm1PquSGXoJ4xo7p5dhSMgZhj66zMPkx0Tm+d75jtOu8lKLWA29X6+e8esjMoDIOINQQ1Eq1u5+5CfrGbOsOyVk3GKe03kCP5yb/UhmxeY+1JZFGpBtEAtro+GMumg3BZa3dJCmrRKw5WOxtmUzFN/E3u2QlAjM7V00pHs6qfzQuzjyYlwTPyKtWt8hC1ig26a+krBys6IcxsaKLn6ABMy80p9dyQu6+ejMtMC5c9DOsQUwRFFbFfp3QF2kyU2c3rsL56BAwCTJNk9nIOs12rvlwLAXmvy0OfQmG2sI1EtIQCMJRiQeMj0SeIixo8GnmwNCqfmJW/8rmKLK6SFdnsw5FmehsHoCAtVN02DbavJqnUg/WI/1YvknQbyZqHAYpCuRUXnpbZd0HS3cTyLLdQT2x1Ikj7WFgiyXZlzrSeJOFjK6N9ktJXDlY4L8xsSGqMtfVnWm4KIsi27iR33L2B7O0+v2+zV6tt5aml0mM7e8HUwtqOl3aWsGR1lmpqajciklNYhVh3kMxP9m3XMybM2xLQznvyvl3OP2rtqUU0Axe4uQAb5D6VXlfNcA/rr5AW0TKqqiRIX6VN90JERDdXsDcHrCEljRkLcLSyka4F4KOSqrWBorNMjcwYkzwWpl70RQ+2P7FfUOfUJu3o6o2FrcxSPYXkRVPHKSjpB0r61uzEpjS892BJCXmQNhl8MeSAdcnzclNKPTfkotRzIM/9FVhEg1Te/Ay5G5jOPk5k37Jg5ZyftigfViTWw2xFi0xfxFPaakWaG0afwD1zHzYoghJ+zc283fAesyhbZfsdcgWv7fDMIxtTsrt2+mBSBDhaYIGlBbiQ0+V9S7VkziwOVvR8uSFQEcUCD7b4HwZ0FPiXP0tN13zQ/HggWTqOiua54AMlBbpj3NACyRfZDIN4DRNwad/BQgl+ZcN3W+MOO4Z8zYjsZblVSj035JLVcy8614f4Y1jOFhCz2adv6QstLk6YpiP6acJMfcXVTiq6gNpP880jy7d1c7Ficj+GofklMa0b1FLOd90wpL6OSK8oK7YvNAOyeOXBQ31dfktxKaU0JdI3u4GO1Gy+nMuhg8VtexXG6QbffF/HDHt2qjrWy1LPDbm36lkUxZJSzw0p9SyKB0Sp54aUehbFA6LUc0NOUM+iKIoiY/p4UD1t6+a5zbaK4kFxx4PrsmK/1LMoHhClnhtS6lkUD4hSzw0p9SyKB0Sp54aUehbFA6LUc0PuuXqmO855m1G+b4Okezmm97HEvSrCtIiihtLtSecgNw2m20lORG5YGe9OIV1auq1lO67isaFkzzgdIrmaHy6XiDsrbwrejzZwwgHJw9uPioEeXu8AoIVkdXa891LquSH3VT09Bh49kpuN5e5mv+04plsO82nI94nTIopN4j5eGCgZy+qnf0YbGIIOVtjqENRuK4JHolKSeAegJBly67RW4jOC2jBYEPcqRR/yvtB6zo62BzI5/e2ge8ZplcXxgqPTUeKNiVKSRBeWitfQQuPBCKSVZCBsTnRpYqQvk7s+MyAHo/nvtHIrPUmGfKzV/LSRfZR6bsilqCeCxh+NeyQ60zUa5acWWHuc3fKgBgEFO1mR6pIoD7UlrcjiruKYxIP4WHpqtpcW3uHcaA1EDNPE3nuYTSwnUSkOsRvIlpe47XvwgXoU+32eoYk+JPE3KY34aKHv3Wh9OBobL/M6IW0LbYyE2eAM5x9h2q8+2bf1oJz8G1Psfeo5nHBHY5hQfOFYjw0AabZjC01gxqIIem32Tx3rUs8NuQj1xLTkgzNPU0+dXTK5+BAFi+xmgnoTe9h5a6LOfbT0eymgQRfTbSpbMFjNZfSkYAFDA9aCml74lqBdFJK6vQ15L2GynhlijepnhdCa9URblMqSqGOo2fLXCrCe7ptVdaHv2j60m4oYCuEi0YpbS0aR2g2YML+2p1O5IUEexxplfei681U3nkkRFeym3PSMO3vYk+8yna3Lsn2g038vDFrLscVctCL6qWmp/HHccXm64+4NZG/3+X2bvZq3NVtQ7IcTlQ9ut6jmxaBPNbv+a3s6kX26OhJy8ug0gsiWcoP0iGv8ra7ePa2lVaQm/kuJrKHmB6CTFgqo2JowLVgqYLSmF7ke2NJUzs6NGDEMIH5t1OjUwsC5RRPze7K5YL8+1lInx7WCfiwdSNa4wWPCwzJ7YxSd5ZHAePWtz/oFcrJvx0qa9rt6CyN9blJPuiiJuttcGU30Q0f3/Vj5keSW1WFlOdPFmf/kUS713JD7qp6YVZxWmGryy0aMSalt6dhoH7CIZZ2Y/VTE/ltarz1odxFAahI18TLkSJ5WtywRwaS+3mIu52kCdmQh5paXzaNMjvJJgb3qiWw+ki3EucVsKLAuzLnHYXQipIFKAHy1HCnFFztxHYtIX/Y1/BTN4CDLezB8+jGP6vgpHT3wBz/D1zxhdFxaP1GQlfNw+Xb0Rs2k8VwM7pBrrmvDMq2Q3B1PpuYOonBnMhVutptjyFTvnN74Edxxebrj7g1kb/f5fZu9mrflk/FoMLEmtHjWiUdpoV2dodiziSqzHP/6CRz5DeRwSvsfSzVsqkttRq61Hgsjr2KvfGGpsELjNAGdMJWDJW5YPhEH8Fej0tWv2aDTQ8Cuj+RylOkTRlIWU8g1EzTSRqKLaB/RU9F60kNLSbTU5EPXjhwx2Y/RjRTZFgPjyKfWkII+oVcog7RlATVobSt5ELq1p2ygODZiV4Gf3Rki57Fu5PmRHFrxsbYTwfJw76fUc0PusXoCu7prU7Kbxpx9sdaxucq1DeaqFetii/kLXTCvLEJocmhCdscQTFYtFKwgWkm/1IA9Loi1CGygiFiSdCkRDkQTXVONSJ7le+u2EbtEyvNPW7ZFVNvJQJb2RGpxoBbDdAg0qQtiqd1ZF8wxuRpu3sbSk8OWjporJIjB1n5LO4r66MPBzslc0W2kIQdajhrNWJQOuoSFetIvHkDfFYXnSFot5Az2Ut1ku2ulO1Pl8sdR6rkhl6CejI3A41Knu2yuY9NuPsU4d3lhjy1eBS4mMsiJFqG2JzDU1XBrgWnuWKS6HVGg7ArfEWANu5aWNnI+0GhBjqS3HslrU2Jvou9HSB4Vrd9ojoR30QmXZCcbxTZobaCFJHNatQ2MgN3s1AiqjJ1uPRTUM7TMbzKJ/EiF1vuOrJ5BPy7BSrJknPobU0v1FPKu6bN4Put19qdtdk6Wet4dsrf7/L7NXh3bFhVvbeow+JpUNMUgVqefeN0MdTyR4QpZg1BIPEmt7huJnS1IFnfoQpr+VJQ+FgcP2IgoAxJTjkQLLKqpcBMLL/ljLSAjump97Zdu2RXdMlBRmpIy8l4iYEeTa3kcZEtdZVKGXfRq9Cc8gMVF4QMkP9kqrEpKGxiOy+zNElQ9Uj3p4kzBeMqx7ulB02QwGbwu10a+Nzr6iDGWeYRycpBcUUE6Ttl214qfTbUpdkE3Jn2eUeq5IZesntekn9XL6GJwoYQEUFMihvIy4qZRfADqZGsSO24BLaYVaFtriDittbP0X5FvGiTtGsqFE5R8ipzAfV2WK1KI4pAaR5ezsMi4dIpK03mZdBw0I4z9NL/ohTDTPaGToFORXqTzjvR9paGBmAMYSjPAwYef6g3GA5dOYj3siZLKwHEPjS+aWhz04QCeSqnnhjxg9SyKh0ep54aUehbFA6LUc0NKPYviAVHquSGlnkXxgCj13JBSz6J4QJR6bkipZ1E8IEo9N6TUsygeEKWeG1LqWRQPiFLPDXkA6nm18+8rj8y+nXz3OObb32+upCOHv7R/uMQE8SB/X3t12Ji17qt8Nbxnw/Hn18ibtTd2a2ui68bRX4K/Z5R6bsj9V89JGAFGEu9qYQDzEUIdQ3kp25EKJClBS1nm+mrx+GESN7MsTQue79niJ5vl/TtKJ1IoZ04Md6K4XvE2It3SPqf6KBLdYXtL8WvWldW7XVgQFrrCWTJTt/oygE0PdGXMtdZ2NiLPC2GW3DCFAyoPe/GOWqn0bCMU8jEFC1/uM6WeG3IZ6gldQiI4eq3YgtGjyMnKlUTAbyf3zJCpHH5L1bA0viB+lzdYM5THainuvbpWtL12byb90NZ5/zk2LGvwBLvRsKlMhu2Fdutw4G+7IZE3A0a/9QyQXLTGmGGnGaksxNAAuTGTu/QgKhvusA7rI5exVMxLBH2CdytSs4e6JzePI41FAftHtJB5Z2bslLdo8wGwDK47xR13byB7u8/v2+zV2JZEtASBxfYJaIDoLdI9En52SzeDjZKgshBRmUPVizA/NMP9watpEvO9AGuxjiQPoW57tgSSEq2B3MmIeqmi6tlHPZtJu9jvbwFPzcXOqBscCMuKdZzl0LqsecPIWJl3a9Pn1ib3uwSvkk8MvZ28GBRowPJYj+ZsPOmKjTiAW7q8law4Nl1L9Mg6KGVtnLmRTwAPgVLPDbkE9UxMVnf7sPg0XeiQNM2Xv7Sc0gglAaCqhrZGLiNOjaG4Po3TqwzeMYBt7ckS7RK2VzcFJcbEdM1r4c4ftRmegA8Z8Z/MdNgqhUQKUWaQH4tP74N6bE2ohMCw9Tw3IU9dYh+4LaVtHFotbjVfFSbhr1nxETJNO/VHL/h8Dd3TVBFTabqNBMpYmmJOAhsIjh2HT0obnYUHQannhlyUevpl7HEgetOjj+U1hzOTRAdE3iQekdjU0yJUdjXNI1eNUFtFFZFiy5yZelJ6pJlB9UiWnLiaVVZiWpuiQkiLcFaclCSrMhOEI3Nb1/tC2NcOnk2zbP7TvicK3Q5pCaikxwjDpUcMm5wJuQ4Flr8fIg+xS4Rc2lFqQ04Xxp7ef24zkM/gjrs3kL3d5/dt9mralj2g7CxWY0TDj381+ADjCmkUUUSeFZmvPQFzmwZqvmCh6fvImKgnsaBuqE9G1lfqQJTWUu100oz3zXDFJRfifDgpCR9bobHu4ChPI7J0tcveIBfqMoTeBEeAZ5s96tkGT+CQWR6QgdZqMgZpn3ATHkA65V2EZqkdrFBPTbABbCYeCJjitnUnuePuDWRv9/l9m71athUPTDwWREUmyRqIeJKlG6OOurjjpR82/RrRwk2izJc6i0jrBGC29rTNIdgTTJUVqqNLXqPV0a0wmWyTZLt3SfbZZ3aTtKEIZ7JjlJ5OtkR/0X1/hziV7Lq+bNX3Kaz+SEtsIxmZUGL2wY0tDUzsW+t2XHhqsvp8d6JdNOSKyWEbMR5yor3MHXoYlHpuyCWoZ6wLia8lNCZl8yDLGOEiCtFEpeLKTH4UR6KOH0dY8KEWAi2iLOtNMIT4qJ4WqWoledFtdjI4mGwFdYulZXHVf60SKdFy7xJQbYmdZS/EqKar7WURHbDuUe5D14dWF14kkHfqj16IPXZEciSDJ7tpk52l5dqz1NO2jqK/2sjkccMwDpw7qie6l+HVKdE1CD3CVG4zn152UdMi/Wyyt/v8PrVXmKSowjeiTh/HY9ui3h1lfTVGNOA87JTY01oIOlQ1VZGr58xQtVfPlCmbHriMfzEqc07sJnjI8aKWXDCATISF1gKaae0u+qpiwha75IQ0ws/VXWZhQ1KYyTUePZKeJ3ekBAso2kqjzw0YjGZZW9Vk0I8kGIYWe9Y12OD7CNhHYuqrV8gV02jMhi7nPxBODeREf0QyY856yUOc756qJpBwAJKWAhZO9cd6CNczyN7u8/u0XiGWzLFzBP4aB3jOaozoUW7HmhFtwe2IboZq4nBQTcJaN01uIBSbSZ0I2O9Hk955o5OFI8pbtuhWj6sJdGWHqv2pAcYkH6LaUnMP+wgZZ2KfK3QDKaBQX2udZI/d9GNEAXWLXiSK6qGLaoujIx/n9Uf7/nNv1ZMH2I4wm0es4CUdcX3fDVNCz71yhtcTfjcnT+Jm1DNgzB4bIMHm6lkUhXJD6mlCZKST1olcL/b18wkucbo3mQDPuPKrjiKhej2pJZZn1eO5OfXUdyvbMu14rjeCRVGscnJwcQHkmhgaOSzXfvm1JxeeQfOTNF/9Y19VT7mEuavqqQzL56Mo9SyKG+IawbWqifqGV+KXWnsSOAMjEwfsrShuUT25yx7dOfXkicAEn+89lXoWxR3hGsG1Rz0HAbr9tadBHd/xyp3C2PnEL9aIwmMpqqtpeqhL1rulnuLVzX/mXhTFiVwjuNY0EZI1BPkvop7yIaE44u9rcgk8Ux/NN+7c2vOalHoWxQ1xWnDp2sxI73sKJjrjKg/cunrycv1RvMEZ6khB1Y9e3thXQAHXnsnhUs+iKI5i4+BavDPHFd/amu8ItnBvqof6BVCliTuXq2e/R9t7u8/vUs+iuAfc8eC6rNgv9UzwnORnqDM+7RLaie+cS4L29ZDG+V/mvTGuO1DHd3NyWXiD3Hy/+v7Mpkgr4Vv5foWUnxzMC6sDlHpuSKlng7Fjm5N5jRTJHiPEo4P5pL05FFvNkjbRm8jtyDvdPenOpi5iAtQJv2fhO8Rv6pnURIXB5CEnDwwUuF43fSRJG03hZs8kN9wv4veLqvllI2iB3/SWQjjY76EA+pzLhJPuDMfo+EvlUs8NuQz1xAxB4kmf4GMiS5Xx+/or6YwIi1RGKKekTP4uYKldOnPXaQExu7G6e79aCrd4Jctw6lMsdOBt80o00LaNiLBlC8kgKsrW2OheJ48bqGt205gmdqwd5bUJs1YeOTffLx41WKAeuv3UohQwe3pI4yhyJrEA22MV1EGCPNwme3cU6Ltt3UnuuHsD2dt9ft9mr8a2KFo6RSZCMUcK6ozsqqylt8DgdEcced4YDwyyEZnAswynFcDE37nyMVaGWKNXHrTOsPY0xzAmay6CFoV9eJsPHn19WzRyhJMHBmqTbirei4kBZe1ork2YtfLCzfeLptCK6Kd2zY0rtAgglYCvbI+414KPStsgLrAHKfXckEtQz4AzeJywB/GoGBnSc/DY0yx9F9sSO5jQPkNbfDpa0MoFrJBDJBqldg3xi3IJrJFyIFrLKWJYXLa7KBIYxHSGX+OQ2jmwzB20bwuwxQDtc7Ll0s5yoJTrdpOloBxWcdnBJYtOCOsTZln+5vvFflDluGhsbYVxkKZPl54RK3QPlZtWj4vsVUo9N+RS1PPcu+b1uQFLFukMB52H0gh2pa08v2PbNjDXIw97EnB9Eq/RPEfQbMraEFyWT9MjyaCEjm2irHQBxnIJAueb9iC/i3NxnqrCRwzRvl89HunkEQN17W5CnHisrZReq4LQ1pHJUd47YWaz4sb7JZb6t3M64wD7alcOn7uACSS5AhtHppyUE6tDMzILrjvEHXdvIHu7z+/b7NV6W4iqfrrtBao1LTtNd9mLCa1zN89v205JMb8dzO0cVuP6RFvR5kUI2x+jk0fSJ/he68HCBS3kiyM4NBgM933Dex7sd/KIgbpeN2HvEaS9mVsU7kAz0e6CyYRZK3/j/RJcPW2VOZy5QlvdMJ+YjyKqjbrtkypb7pzcT6nnhlyAemJq+KUn58+R08TfnhpZT1fDbSKK8OR5Kdtc07hC8kOAHJ3pwitozfHxwxIuTJLIsAjIcaABksBuZHpRrUy4Esn5IPSSpkBzT2EvIK64+putPQ87eWigtuhmtt5XHJgeTdRdmzBrRx/cVr9OWnt6PxLeXNfU8jCvUeq5IRegnjqpkMjLpZgkFKrVSMDUkvKKzCydqMt0Zxk8QttF8HBOp7wFQ12QUlAfiqWb9L1letPGlVxWWpAM15hMjWilNMgPgdo+0KS2rRd5DuNfYk40ZNb8EU4eGKhNutkqkejwyNpR5ks/YTR9/eiD2+rXfvUc1p5WFo1HOU/NozLa2QN6blt3kjvu3kD2dp/ft9mrY9uCPBw9aQ5C2ZmcxiNErCkK0Li6iAq+mkssFgWqb7j6QwhqVpr6al0CzoKDxfM5Q36CCRuarqHJZqWE/E6TpMgyidlSjltuoTGsPVVSlX1OMkuYD5RxvW5KaflkWhsyDzsft+a2+kV9ZG1ryxp1W5qLZCS06ZRdMsv010dl9HkfpZ4bcsnquSURA4gAi1D54YbDX/BMDJEGlilAIlBaQTbjx4tE2x4/RlrByCdFElbZbi7Aqoxv2yeM6qUfU9+CNSej1sGBuk43Dzh3A9xSv1z7zkQkUy1nSyeMVqnnhpR6FsUDotRzQ0o9i+IBUeq5IaWeRfGAKPXckFLPonhAlHpuSKlnUTwgSj03pNSzKB4QpZ4bUupZFA+IUs8NKfUsigdEqeeGPDz1vDr6VvmMfOE84d+oPtPcHtBSGOe3oNs3rY8lvke9TVfJ4AVb8IShEbi8yrIvb+TuqBO+7D3C5tZGKJull8PX1N8c931zFltt4vIo9dyQi1FPTG9O9SG0c3TYFG8lWrDmWrw7JJOlik20mFpGFPJaiu7kEHTEGdtuvOFDb1dQo/SAuIvh6rESmh7/Q2upq6kjmt0PZO4n61myk++cAbnPE9kx02idduylb8Px2qqijf3Hovc99dIHKgp4nj/odHCCJyrdGrrB9jOTNi6UUs8NuSD1PHTPJBYJLNICcggVYSZ2CgOGWVFiYQA5THBtVI+WBllMng2+bF0FlDdD2+OZZD/dVQn5M4ZnTxyJNEuX+AdhTtPeMWewPGYv+92lUJhMSygjGAzXlVAVO1R0Y/ECOu3LskTfrcj+Y7H0UJmmzxJp31G310wiY3Kz5gVT6rkhl6CeOtc1zuZTPOMyO4sHPmQjR2taRcjqhy2hHRThc2y9qJiRXWoenZHHss/UE6IVi6i2HHZoXmQzq2e/6tK+solw9HCXM+ogrobVaYpbc0KES/phUiciO9hvHQ/y2tPFl+PLnpjz3LUyB9QzI6Nu242Dx4Lux0g5TGtnopbNRxkbi7ai+yze+tjAQZwlXy6lnhtyCepJLMy6dYvAuc3EUIMIES6LQEx+5uWHYaZ4Z+G3LE/D3NtLmiDoNveQ16mnLMr4TLSMRC7jWooke4xKWXgKza63A2vNuRMRl2yk0PKoUGE5D5bRNIcM3dFuZPXUxa2QR4qi6tLXXlpT1GwbNH8+qeijDdPhY3GIbppo+0ZnAeaxj7KuxeNw5AHSwhdPqeeGXIh6YnLLqjFN5X6e85qYcxsZiZjuFAoEgvwNmrJCCLlkw/UuF2soA10Qe2M7DDJP6NWTexFcXbV4xI5UpuDQyZl25qBfj/n9oDWqAAyFATUV7qn8UbcGbdRs9XMgOUBFEXT4sCuZqOSvQbzb6IQPKOWKOHiHpIPHohPHjnQMWkfFMfcvgONwj5cALZsaHqU4Qmxd4Tp78STqC6TUc0MuQz0ROAipKz55lqEj7+oxvPq5bCp0ZWHSog1ZqmA5aYwnMemhxLbaPrGINVFjlPbqKXhYo5RFXVpVypKSBuUp5aGeVAorIT4tyV4egmJmFvVnj8RmZ0FEBU5wkyXbH6PrEukS8tpTNlQ/x1baPlSoyzEwCiJg+j6tJRpMMQOzYxFo2iIHCYrItxwy0WEiRw4NQzhRjMlSN2xobwQ5YKqu7qKP6eVS6rkhl6CecuWmWiWB5bNZ0qUEaTEksbYIKSJRE6R1BkgRarrI9dFgI1vViNK/A9NE+muLF5ox8ezf99SK2oq1Nbc1xQbEargOZJ9FDSgkFBGUQ4aWzq30owQoNZaH3FE9tdncCsAulUl0K1VuoEA7SupJg95Y1vqxAOr10LTBBga6lanXy38nLIfnsin13JBLUE9BowiBKpPcZjMjxGZ1N7/jEewDXaEhYJgH86IbWhlWRiOsI9fesaicxtUskR3wU4AufkJA2wJVK3YBnW2ZPK6SVpSEG50wQDu9MaS2plDUNNGgU2HIFu7GUj2FYRdglFRBQSdcouDqYtSSkY8y4vihYyHFWHvZNIlRcBbFcsLcRjSxMHaxlHpuyGWpJyJXJ3HMZkS27rfrLWxTmFSf+ojogmAIGOZZEkUGEY59Cx5pgCKAXdG8Ue8A6gZW1mitSCdgnRrGv/jfXKQBqzj8xYvZUFU7QNfLRT+BDBFcYIualcqYtnHPDJnWWz7rCv3SvVmg7NHn1DUx2iw0pc6+cUS8xN5jQVSadT833YqI0x29w33pvO0kp9OQJu8vkVLPDbks9bQtic08hW11pGGe9IUBmeWmBQGMDMvTFCCmLr6dLXYg5ODKCcEkAiBBCaie8E8211o4ixzqdHD2fUXpojSrnYjxpFrJpgxz65svQENmoiD0ZKWR/cjR6g5XcOBYyKVFGjMWEWjO0rINZSGQOWHIlEFJTfhCuG/iEin13JCLUc97wL/927/9/PPPf/nLX2y/KG6dUs8NKfW8PSCd33777ffff2/7RXHrlHpuyAnqWVyTv/qrv/qbv/mbv/3bv8VfbFtqURQXi+njQfW0rZvnNtu6fbD2xAr0hx9++Mmpa/ni1rjjwXVZsV/qedtAKyGdENA/OnUtX9wapZ4bUup540AuoY9/XvCnP/3p66+//u6773788UcrWhQ3TKnnhpR63jj6YRGE8g9/+MM333yDxSZ2kRiX8HXlXtwapZ4bUup54+gXlbDGhHTq253YRWJcwteVe3FrlHpuyENRz8VXpY8AdRTU9K+4C1NL8k14256AS/W4Ttdr+dhAFv6ur0CT71ftnqop/Iq43pljCajtnvO7360bnRn7Frptj03wxiqOxRWNte0Eb11d0ls5SPf19sV33RvyEE8bk/4m0v30HdvTgKM3lPEr+jJgaAmbk+FP3+efcfOH7xRKPTfknqqnTzO5nUe2eFsLiVtiUCSm4FIPiAWYvvS3EeKFdRx5fi+f5yM7mOaQQqwxv3i9e80P1b94/fr1q1evPvjg5csXL569++7utSw5PzMLT58+ff78+e71690T8vjxY7HhpOhLm052Q3qZvLAC2mXpQOx0/c17kyaYzWSJa9mfOLGolG5obEGfSF3U/HCd6I6VSX3kSLOt/NdovWAyHyLTO9XuViP9CEwRVfRq3TTKh4dPI02OpxwluTF6BJCUOOvwSW85z5sp2smdTZR6bsilqKeo0zj1DqDTyuaUzkuZnj4zeftdm9hyB143v22O6gtDSYEFn5hePCwxGJiJtaR8nP4x5PIDvHzw8aeffvr6yROIKVaa+e1OTPrd48ev/VN4/P355y8XXtCutj1GV68Cnf8KkqSO3IwZO9EHKpdZpU100/upTbjyecvQ0HAijSS3O5aOJFdZPnmttBEG7dZRI3qmG/mvoeZp2pxN3SImPdYhZHa5c9CRUE92EGWxzm412Frs2hzqueHDB3oThyj13JCLUE+GIoN8nFn76aai7YwzjQ8lsiy5COzyTUl0qra1VCujNSmd/oMfHpKf//gjP1YXPt09A++///6vfvWrd54+5c6z3atP//zjj58jqBjFjx796vHj3Wff/+lPf4KAYq3aPOct3b698J4grS06uDJDrEsYe6UGdAOpvMjOed4xdobB2fXNwEjgoNARJGuJmS8H8Cpho2evejZ3ONwsYH8lVRSR40hZ4kxpRbQWm7R967w60/Vyjs8CFGSd5AhzmOX41UcS5Js/fOHgkuRH447L0x13byB7u8/v2+zVvC1MkkMTPcMgk2DRpYZNdPzRANZUnV8ICJvVfTDZbNeXiXr6tIUVzW3LFOz821e8EH/sUxgrzdfvv//ht99CT/XDIurq7jUKwxU+EP7qzUc7XsKjlq+J2Wc+hqnrg2HusKJlS3ewT3uSJx1qoLrUN613A0k9+dwlSUxDYY/p4K7+0SBu2bmJEe894RFBHbyYyqQ80kYYdDvspfnsdaL9AEW027lqHCtgR8fQUkszDnLYXjuhaoIdA6mEwWr1o6Vk8jYOX9/Hw5R6bsi9VU+hzeQ0p4NISwGSC1myvlBDFMxd7MvKg8UlKC1X57eum+SLSp/snnIbhp8+ffqP//iP//P997Hw/PATXrlDPV++/PD1awioBAYU6vHuS/k4XttHPYhZiAEDK3mniHNWRF/m40SRozgyUvlqySA6ppLt1WMs9IOZ9PGMNmlDpqAwllBEBsU2Bjc4YHbyYo3YlNrSvo8w8B0qCtd8UlN80pbNvfAS1jFtZOSjQ6A1yLJUT2vMG+BLSPIImwprUqq1p8R+y0hFbuPwmQ3vlrPapzsuT3fcvYHs7T6/b7NX87bm02oNzDOU5oy1M3vEZjMyzvg07wWGu9T0wPVki0ivNVfPn3766Y9//Hj3bPfVX/7y0dOnr/yDdSw4P+Dl+U+8cn/6Dj8jska69lFSP5e32LK1tKPRYRrkraM6nGOuuQWLqOWLFVTxwYDQSLeAh3e0rgPtu3hlBWtcmuWoZldZyJd1w+AkmKPr2PC7h2alXe1SX13sik3118x7K3xlRdErHQ3BO0mak4DD2TUwQyzxVKDqxBZ0HKImzVhDtsHNbPimDx8LobyMT+DDMqHUc0Puq3pKvAGugoQ2ecNKnmOwHvPRsRmJidzNzti00EE1s2TxqQFja89nu89/+OHD5//4ztOn2vyzd5+pekZ5QqPNH0inX93/+fVu91VbjRKUDb97uEIRPxhyVsbdFa9cKv01bbbWJaj7wbGBMJvdu3mA7dnoYiO2YMQKmE1uyECPysU1VbLgr7Is1IKsxrS5eoqDMoSmL82Myg5KUrmJtCweD04s0X6zrDYd7Y2wd8MJxUkjbcDqSsPnHD4r4MWUFTdJqeeGXIJ6YjYhyYhZhTBJ0TmBkzDm0Gw+Ubw8ClU916ZcNzljW+vSCn2RhKSe/JL8l6+hlXqdrp+wAwiifDQk6hnLJDSeBOv7z3bPX34iV/d//vDlS1zOIxHKgA6jUI4TSeaSJS+P02U23VUdkd5hR5trXfVIbNWFtOu6Y/pHI+04DPRRbNCAJ3MbV9j50LGptp+VoX2+3XqIwZaP9CmtHPgoPRwj0DxBwdQEe8B3cTv9pAL2rrNAV01dzfuCGppmsWVLvZnD5157MWP9zIAQsq07yR13byB7u8/v2+zVsW1x1q1NEp9PnGdrRSQ65M0km2yYwJKi2QFnvLVjj1HvS4xxYwEjQYFL788+4neS+GGA8OzZs9/85sXrL6CeKd5lEy7jQv7p06fQ3N1nvMxH9Ve73ad//jM2xCJ/Vy63pdFohvh5LIUCqtKc9Dxx0mM5SZRH5BBxXacoWSz1CAIggybVbNAoYYGIbIMl4Ix4oFZkfNkRHXumW5aRDfTSpbCT/LyGdF76aNK4bMnrwgA74D2VTniR5XcRZL/vn/awjZT0RMehcyVKpJG+gcMXjXrnlezLQKnnhlyyeu4B08fmn4Zsh18uY6m4Y4R1MYopHpfTR6EB4EhsTmK2kdaeI3HB/n26dxNX7p/IJbze38kWWnu22hVJMyx39ZwxEIGGgTK37RThjaQh4rBG4xipHLF78WHJToksrQX5GYg74myz2TksLg9Hh5047XgH46HmsPkhaC4k9RQ2PnwnU+q5IfdUPe8we9QTognpzJf5QG+TRy35Ij0v4YvibEo9N6TU87bBNbh++G77AnaRCInUrGUZpCAXyCV8UZxJqeeGlHr+kui6EuvQ4YIdKqnrUwgo/uqGfIifLuGL4nRKPTek1POXRAURQjlcsId6Qk+xAbBRl/DF9Sn13JBSz1+MuBiPh8zrLlimoDC0FRqK7eGiviiOp9RzQ0o9fzEggrqKjAVmEA+iR5YWhlwuP44vilMp9dyQUs9fDH0rE9fj2NA3N4N4EH2sMVVqh4/ji+JUzgwu/3ZafMFtoKWvlTiOUs/r8kDUcw+4PMcKFDKKbcglpLMu2ItNOC24IIX2NVR+t9U25BWISHqJlh5b54joNWLf7qDgPQdXV3KDNp1OTrzZdY+M7r55ex43q57x1LCTmLTFY0RDdmKLg5q/6c7To+9cnXhT/O1C9/e6Z+r5xe5Xj6+Ov2CHtupi1vbPhrcKmnv7pthwF05300FxRzknkDEfLP48ABe0dLsD4EzOV09VTSDBBSSt14fe9fFGhtO5SfWEdz7oJzG2ZbcLSYjyNe4r746lX1uQ8RhTrhrxwEUSw9uXCdLwswSaaA31zQxi4qw0EGdoYEWagWfPdh98TPV8+vSj4y/YeXX/yYe7J0/MSqK5qdPKyWecICtm38WujzwMzNPxGArug3NaXw1bKFjU9eM0P1jFuZweyLwTSueqPKJctritmenojJxztM5XT5k3OgV1VsttZM0D/T0ZLqt8RrVunTurbk49ERNxB+9pTNry2PTncKDn0nFbmfMY2lhwKCK7G5mZmKeYN1fthGR7+UTKo6ONm5FUeU47nh1az/5ODfz444+fvgK7Z+8+e/r06ePH83b0on7+cfyac4yFNgjT4xPDh8GbmfE0MSWTUF/mTs6ABbbL33fjs49mPuw/WMW5nBjIKkEqNzwaerDaIdNjMmooo+68o3UN9QS8aOJfxPDQPOY0vIJKMFFj3EpcZ1bdlHqGzE0i4xBT9bSA1sh3s9Fz0zxJSLc2Rz42JMol0NNgpaEzzZASIQnNFIpi2+3QSPiUDQbDmc9gHVuzSdM8qPMB+umnL/748ctnu0+xPR1FqKRe1EM0J1f3qWcjPDY23b2b2VdvTV7pMIp0Z2c3ba9afk97c1BBaT7YuY45TJT0ZPTkJoolp8uTHw47RrLZpqNey3j8CRb7/VXOkZyrnjGbSHOWtAWU/5yhemuxd51ZdTPqGUu2adwf4prqyQUNt23X0ikYspxh3XaunK2YUGKW+Jb/8oOpxb6xX+k3DhhKax2raXYAEhK710k989x0eJ0uF/VQT7+6/6qZSPNdERPya76JpZ9pyJqX+AsvxQBbENNxevfxsHqHEAtpSi99OOlgFadxojzJpUF/8pRpnA8gj1g32XxGn8G56tmALzAycaE9/kfiibsyvY6duBOyt/v8PqVX6n/j1LFEFdsKvIsmy7ZObPHE45kSVKVaNakn77CJqExGLF972MO8HZZEfYlmFhMTmDxylbAIfWWWzCk2tCp0zoSY/vTTT/xFzpf/5/vvP9vNrtzjy/YBUixPjcLXZT30oH+GcHRV+4musaPeheZc+ylJT2OHUM9snCJtZgEvrX6Lx4MHqzifSXDtg7M8x4aBI4SA8OO1zG8H80ROdG9EYwy+URi7WcMnevs0U38ZZjoDz55e2dt9fp/ZqxVx2c/QlnTWIkxf2WUxG4Hlq7OWkFZ5mq71aWEtIE2aG7333LOKUjLtL5j3G4vicZ4Nk0xsSmWq5wcvfvf7r/mA+ieTRuLKHYtQFv7jH7/77jv/AunVkye7r7ASnTrX8LPMAB2wHsw6OKTN+7oXs5BrpsFH7uGDVZzHeYEsSwU9ELpqyCwP0PmH7BrqybfBdDqrGsjJfSrirhbCdabXDavnWUzb4pIJB05GA1GnHY6eL9STY5cCL8UmQ3Y+YkyVRY8TF9VCqqjmoOpYqS3tgH2KsvTe8QSW+OKnnz548eLlv0AQv5yuPePKHTKq6vn115Ba3rz00dOnLz/5tv9Z+EY0qxsLL4CewnVrlos0YEsOWSGSRcFVzCqnu9QkbayPOljFeZwRyDgAcgT0QPCw9xfudg2SOeVCpONMnYELbz0Kn0IdKaj6KwiQDl5TEa49k3fXmV6XoZ5cjkkXRRNx9Hx0vOdL9RRiFxsry5luM6JW6TVQI1kniob6+tdZ+5oj0h1Y6YvIDBDYwOOrq6dP+bvw2Zh0f/L9eVXPP/3pT3/+86evnr377JVkydpTC3++e9976dZax5crUJRhH5eXX5RMDKVked6ir1TV6Tnf4aTeU+Kog1Wcx6mBjCGXQyUru3bQ2vs4s6Ny/nHaQmemrefPsNqMZac0ls/iEtSzP1dErMv7YpbBcLRwywMX45giXDajPDUCJThHWNlTFVOyaCMiGR7hXMZ9JOYGgRyQfUfET94siNp8Y6m3QFBIbPAltYAF8VfjDe/pEv6j3dtPsOqEsEJPf/ri9ZNfP3n//fefP//Hd96JTugAscO6mOcauxu2GDRZXbIzBv3hmtNLGZKlhJHJuDjM4uDwqLKK1iRsgXWsAJHN8WAV1+A2A/kM7rh7A5egnodpAR83F+hnDsNi8lqkoM6LJ1GDo2KataAQ/YpOLikWXop92+6BaMYF+zIlnmKHpajSFXblwgYaFd1WNcSyWwcQelkCdZ8p9dyQ+6GeDwK9Bs8X7JqCC3aoJNaaWgz8+OOP33333ddff42sKFwUoNRzQ0o9LwMo4HDBDrDMRApUcnggE9B3QiG1tl8UQqnnhpR6XgYQzeGCHeh1OpaZw8NAQalnMaXUc0NKPS8D6KA+bT6+Er/8tjzQ6/TIyt+fLwpQ6rkhpZ6XAWSRnwHJcpKfp//0EzY0BVnxYZGuT3UDKVY5AW1F+gZPsSsuk1LPDSn1vAygeoNohoyqIEIukaLvjWJjTSL1HYCpsBYPgVLPDSn1vDCWV+U5BUoKfdxzwY5iwzsAxYOi1HNDSj0vmHzBfnA5OXzEhFqxdLUSxQOg1HND7ql6tjthlizvP1yDt2562ZUvxedUv4/n1oAa6nX6l7u3H1/hOn3fF/e1cHy96dNPP9V3APgMp2O/77/g2t2/2oUBHLNbHr/OZU6Z9Xsr9DaDuCsjgZxd3PNvpGmTanAKrXeQvqy3nw3ZHQ4jehvvIUo9N+SeqiewCW33EdpLmr5ymw3QmxV5xw/vHPS7BaXEECuT2NGgUmahNSFXYZ0ZHn10TksgpQtQaQkrR3kD9JWKwI8/vn769KPpWjKu7oNPd+/+r//18p+//vrPr551T+SLthmM+lCIkRCHA92nXEyJgmqgtbE4Smu0gcMQ2RZpugXjVOZuuEFO4FPLvJrcm6Y7boRtuCPm6NhHFunMD0QF9zc6mPwkLJiaS/jgWM0dHZ0Ojz+DQRjtB6WeG3IZ6skHaAgnLE7smR8WLP2LYurJSStzbQgFKSuzXqdvQrxgzZjSs58D8YgBaTJ3LjQYPtO+eUYuYDf+63ISOvjkNa/BIaPPn3+IRD4mefdaPzXKV/f6ddFYsf7w+esPP3z57NmrL39+/fg/yND2zonSxHMch7Xlwe7T5f13yqJLPsJduZUhymgRGZPcig0MoZjAI/xxH3EuwqItisAEtsQQfcA2X/qG0Uk9f5kZN0YLGJ10qp2iXnLgesvit20DjrOaVD9mWJWJi3RPMOec+dgvg+tOccfdG8je7vP7Nns1tmWrIN+StMMcoZ4S/5hlCCjOvRwKEhpIjvN8cyLwOOTERkm3bPM8weDIcxyTPMmpsqwlaVoBf8UX7hL6inxRxtfP/vbdlx/zGhzq+eQJRfOz3Tv/8PITqCTKNK30W5Wann7y4e41v970ycvnuy+/ZFyOHgD2ko6o38BdP9z9rGvL/tEon+CMVu0klliMz4AcSD2asNMGJhqBd9J2OuLqjrnNZb02ym553ziw04ajqaETQCzZdodMIc6xZZ0AHefQtQLcjwQOkSMudg/uVrPJp9QMUr3bPaWeG3IJ6pnwiD0CCyoL+njpJhWiFn8YQ4zWITZ41eqh51l4bQayfFABJLGVjdItgdDm5JPxvlBCokttZUxekMu3HD6FBv4ZV+5s783u/fdfcz99Cq+7CnaxOH29e//dZ68+/fOr3bt8oh348cfPOWRqWJqTLfZyIUHkYPdT2S45oHSoYc+dlZqCijurnFuJ+RFqbAeexZGJglEkkU0YZsCGWY7a3D3kLC9OkMRy+A8zajqfH9xJpKCBlCEwKco0bCKMhE/ckBMRhnX6xqhQ6rkhF6WevPSyzQNwXjo4X9uW4RHBacvgQugo2M0P7LTopDE/5bN4rG84nS2VKRQyZsR01m0+jzRH3tXjx68Xd6z3tRJ8z0JasUz3SdEmmx5gH4W5F0tObGCxibawG1+k/+GHz6+uvvry9e758+fPnj2Tp9hxY/f6y6+++kptoW0ZblpXu0qE8OHuU5SyjOmGDz+riC0UERMsqaVakTW0qvxFg8k5b9tJA6YaaaPFI9MI55SYIRQk6YAc9ygX/vHtgb7F/jjGXt8cGP08gMyD7GPUZ6/gIt+156lP9ROTecV+qeeGXIx6ck7Y5gm0uYzpN0xYzjGZathgXHEDqRE48qxizlOmSFldq+KvlAjVikZUQMb4CUVmBF39+0dPn364uGM9GelA7CMqaNRUyKK4xS8I9UyxnN/uxAba0it3pMQlPN8clTKffPjJ5xTWVy/9er8hfs3V82D3k3JN+meyylMXD0A7C8yHosdMsyiqURS1Tm59HLBOPWcsZlhYS821MtgTy12tXMTmENpvajsUBzYOibGIHtd8BZBoqXE6Y68XzRilnhtyGeoZT+08EUxWzl5MKvyfzDzOf04ziStfAk2ZRd4y2jHNEShdhFy996tf/erpR+06/fX77380eWrcSlzJ0qozt+wH/TCBG3oZH7VPL+E/3e3kkv2VflKPC//d7rPkmLSlDfK0MXp4uPvZWU3G36X/QGxF9K8fhkBMi6CYejIFpImi/pn/coD7Y0hfemSmZBveFzbD19Q3MBuUZQKhLLM5GRwc1a6Eetjo91FDF9SUUFfH1Ettz07rbnnPRVqp54Zcgnryx4ADDyyesY+RVNUVJc86zDBqje5rXHEjJRIVJcacTOmIPMH3YtIqaVei+4ufvnj54sUr/8m2MViMwUhDMvBHkW4IrS/ih8TPxPaXu7eff8glJz+V/+mn7777Tr/viZSPX7784I9//P6jp7Al75T5713L0vXL3ZPHV39Rt2iXPsg7oF7mYPe7DN/BOao7bLovtpYGRY5la4QeoTxN+cEb/DBzOiRxgJvbCirF8R4NWArnQPgzLWHbwpDASwYsQH3gNLcZJOphI+1z9vXmAWy0Cm6QosyZa6bxsjJwCCHbupPccfcGsrf7/L7NXh3bVg7lBXKqpmCmYOVUjhp6uhYrKBfB5SAVUm1S6hNWI88FgFNU6Ke4xw89YC1o1h8//uCf+ZNtn+zefrsVFneCkEUlLLq5dZoe9IEnqf92dfX6S16e81N5+eW4dK/RF1/snvzqMarYOSaE5OefXz9//vKz7z9iWJopcyQU7UD3ucG3HZyufxxA5CPJhpJdmBhcff8u9RTKuGNV0fc0Vk092bcV9QQsISnhuSL+0cO+eM9Qp0vASL1lHRT/Wm5Xi95pvxUeBsuakruOujAkKc0mTxV6rpPdnlLPDblk9bxRoCc6+Xg976qiX6+2UIz56WqqZVOggrh2DuISPkCKfA5+7h2Tbckogi386lePP/qMbxfEBTtWnZBO+eU48mr37jvvPL1qnxGROB/9BRrz0fef7p7h719YRk5GXVQf6D5N5eJ7UVuua2uBn2nWqSCh+qzbdkjnBoVqRZsWWeyWvTKLuUC3WsHOVxmk7lQS6NI+1wxGOV8bOKlOxgawDmAKx0FYcUEp9dyQUs+bYvjcBin4q5/b6CX8tMxWRFvxGdHQOlKWjao/oeMorJf5WD5rLU0vLpdSzw0p9bwpBrVCylIrl2W2IrcF+YMgDq0jZdkoUpALYdVdFNbLfFzyh8/FRVPquSGlnjdCXLBPr9M1K1iW2QpYHt4T2OMYiMv8JYOd4kIp9dyQE9SzOJ6//du//e///b//l//yX/7jf/yPf/3Xf/0f/sN/sAwBif/tv/23//E//gf+YttSbwv483d/93d/8zd/Y/sL4Dx8A9iwpKIoZpg+HlRP27p5brOtGwKLtT3XvPwU/o9//Nd//Vf8xbal3hZ6Cb9nIQnn4RvAhiUV94U7HlyXFfulnjdCvjxfu3bO/CLXxWvX6X/605/0+fPYDse08PR6v7ggSj03pNTz9hg+t0EK/mL7l/pMJlpX4qug2MAuFsWQy3BM18twXutCTJE+fOhU3H1KPTek1PP2ULWCAIXuqJ7+Ut8HitaVuA0JG6qeWSKxm9UzC2txQZR6bkip5y2x/8PugeXV/Y1eMsclvF6nY0PV07KFuHIfClt2cSGUem5IqeeNwltRruKC/ZOXT3ZfWs5eIEzQL/DxBy9/97vf/dM//dOzZ8/0RhLF7+7J6C2U+27U0btYhhJQwB9+kPsyP/to9/jxkydPfvvb37548eLJ7vVXi8tzKbx8vB6R+wN18+qIm4UuiqvuxvRj4X1Pa+QDGDcXrTXDAm/k7q3ZcTf2HfhEqeeG3H/1XM7hNMnSfFXxCfpq8ghFJ6bwSnikKc4p/WW6YP+qv2877nTv7L/33uPd1Re8mP7i9e7J+++/DwGFej7SewWNZaR4+PQdoY9edqqe33//2cvnz1+nH+0Y3vf8cvfEKlztnj59+vz5c7j0+PFjd8I7Yf7JffHuaW6oYyYU2fEYmUwnOZN8oRWaHp7UKnzwO9zDWqqdWuiHvncE8A5Nt4taKdOM8P7K9tKc8Fsspdu0Es0kN3M6b5wn+ekNBotJHllmO6WeG3Ip6om5ccKPGvE0bcQ8sjnaYWl8abdZJ5CE2d9XS+Lj1bWi7cUjfyRwMPEfP9599NEOiqMOCe6VVo0qoX/v7bDu469d7nYQUKwEX7z8cPds92rHJxmjtnvViUwKPtA6g0LTR/xKU1fv//37H33WfbAOoQ/08hzj+Xj31fcfwQUI6Du/+tWvWD0GTGVKzepDepE+G++GD1bcIw9wjMcqzQjbyJmRw40wEUN4JOgYhz4P/LL2/p4oerf9oqwdWUvtXwg25fFL+jT5K1HTvqcy8e24tgM88fLInpd6bshFqCdCn4JxvHoKMUk5HUM6QrhkYkoJO2v73LQCrMU6kpxaTrPUFllSojWQJcALu0oyTrKJrJ6SyzpvcAF9hQvkb775+NXLV5/LlTIu4l/+7uX/94c/QNFwKf3ll19CXsVEMBGfAR2R1IHG8DRyXYSirS9fwxno/1e8YP/w5e4zXLD7wIZ66jhI9/mQEJP0ZSOJODimOmTimBfzsWlYDo+djLq1N+3cQcbTV4ZPhrEWhDxMSjgpGti5eUg9sSOPoeKzSrGD9tFWa4Ga7M8vnXvXOLLnpZ4bchHqKXAiHTE7AoYlQJ0IbibENRZnqjz13SdziIHCiY8khi1LtFXe7BE2KDF1rpvS2ElhI5iTfJCeOCnm33rrnd1n33zzzR/+8Ievv/7nD1/ySvnJ7vXnn3/+8QcvcQmP7U/inccWsFylyKacDSQEXccsHrXoLMyQ0/04DwTzyZMnz3afQkN//pk/dIyNH6CkHA8bSYxN2GHXHrEb2pI8l2o6IE54rXVlO6UZ7AnMsGc6OE1YWFgWbGxSBkGyvHM0ugpLcGSsCg+CNcypAlq/kJB/rGUYOxjBbvgNP3MuQHmddDb37KXvp9S3Q8XODGdBswG0OrFm2qQELdcYfFFKPTfkvqqnTUGZmDq79a9Pf4kYnbZ+ap+pJ+DiBmWHuAF56rarKyFKMvwRjLK+8OARQmZYVF2Qbbl2/ujFiw/5ffV/eYlL9t/97ne//e1vIZoDu8/tU3iJLu2aNuBiadDz6ZW7F6OTfd+ss/7R/yvz59XL3eefW6d3V1/BYT4Ejyko/Tl6+dlnX33FkRVrMDIOWUOPhqEPA1xqD48SfLWCvaqEASSnX6o2zwfiGHf4ehumElGdyimTRIdL6UbKGjNX2F+8Ng+Y4Lj8Bz76cAK5PHVFM8NRhBnLsQMnDAeZhhZJM0o9N+R+qifXIphfNrF1/mPqce7l6c/cpoFpbrJIm7SsPlFPsghLiyQgwQe8lhtoJQDKcKH3qyevf/63q8e/evwYy8znz//xNy8+4FpPngCvi9B//f0/vfigfZKDLH2nUnnDGJQ3hjvrSnhueX1PsEf6vlkRNCGfsH/4Am3zvYMXu88+Mr1/b4eL+pef8Or+p5++2GGh+uzZ8+fPsWIVe2RfNLuf/oxqGYreCS3EYWTRXju1uEoOT3I8ijx+PEtkK2KBlXmYUGhsQS+YWU5z8vDZz1vkJB8YBTmyY25Gzuhqq7Q8QVg3WLz9olaz5Cc9HdDYEMbhpQf9h5IzSj035H6qJ7D1HCemhkF7hnAgucFk7WmbEh59WBpMlRWqsxo4IgLiRleAzn1m3zz/8rOPPvv2209e715DJUW2vv3zp6928pn7P/3v//2bFy+gTbimhsJCtuzKnaAV2La2GESdo+6DZzSfCOWrTwGW4Er9+smT3e4JP7+6+gv7AXBW4NqzPbX+409fffrlzz9/xWt2obc4osPQfOUKsh8YJmkKmiS9wW4cefZwO61hbFuZOJZMSnZaaZqbP4+drWuPSHKjPT/7vbT4FaB6bRdWxX+R+q6L1kPrik/wqRd03FgTSA6mOLtWQCj13JBLUE9GVuDTlGflfdOEc9bnq0695ZTsInCpnqoTQGZkm9Pd5uraU0hFGVK8xlzm8+L3GX+S/RWux9uLwMe7Y/vTly9e/vPXX796+RI737367e9+z6fEQ90gYbo2S21hvHIISTqXcOZJ9klZpLzZPcZFuX8lXhRxoi0yYCgjTxT5/bNnr5C2NA5CBxscpxgrXV/KH9kHvuT0bY5b33irzKPrC7Fon4vBqJEPE04XntwdLPndgLYbdIXG7sm4Zt2fdBVoMSWvGdWVaEFdXrSBZEnRXoip2VeWzIzmL3IdhJBt3UnuuHsD2dt9ft9mr45ti9NqGaqGzkFMOE47mbstxJyYtsKgnilTNmFDpBRianNZtmk3IfHR3EqRwCjntJc/mnYFkcJ6DSvNz3fvv/z4m+/+5dXu9edY7n3w8qX+ajHU8/nLT374gfL68Tff/P4lNfSPH+iVNO+Of92czlGHxnQbieJS5MzINYU3WGm2D6YEdveK1/LwFny1e/zo0WP5xSQoO/jNu+++y6VxGhB+Vv+lfNkei/Kh/dCqHOyUfXEklvA2aMi2YwgRZzoNtIYy4xpVS3a/lmIg3YvSOC8iaHPvJOlGipXoD8fYWre54bBD9Dprnah952M/Dcc2WpeREeVisd1IZuL8sKTUc0MuWT2PQGPT5y41JYfXemBsgsQOW5BPnlJYchEh2/rFIOigf8L+tVwp85cw/Mp99/6Oevrpp58i5eMPPv6XV7/99a9/vZMv07cbgUJbuJNAj6WHqkJEQtw2I9hy1zXid1/BeH5rVYGeUrb/+EdsxLea6MpPP2EDu0i0ogfuhZfLXrbVy00TBRu9TgiS8gyS4xx/FK2prN4CJ0kex9YQPJovT69J6oocxpnUH8HKiAyUem7IPVfPO458wj55Rly+nXzgRm94P4h/Ck/iZ+bgJ7yNrOy8Zlnl4g5Q6rkhpZ53i+mCjpfwi5UdwMITKSFP2MBuvi39JtBG4Y8uQoF6qK2r87pwhnRaneLOUOq5IaWed4tBm0KJsLFURlWrEClsYBeJuntDhESqvoPQynAeu6qnVqe4M5R6bkip510EAiQfZPO3MaBBEKbpBbtmoUyA3ZvQLLSulvPlueWlR38O/kx9Ln5ZSj03pNTzbrFce2J3WHIGWvi7774LqdV0qNieWmcAy/rgZGwMy1u0FatjbKCY+qwp27pRXJ9Szw0p9bxbhO7oRfFSrTJa+Ouvvx7UEwvAPbXOAJb1RzuWgqhtqbDqNwewobKOjW3dKK5PqeeGlHreLfTiN655p1fKcYEcn3pHGc1CCtatEF+rcG2mbihI1LaQpf4gRbOQAmfgku4Wd4FSzw0p9bzr6AITkiSLUaJXysslJ0AutAxZuh7cXLlgUH0Iy6GeSNErd2josD4FuhotJf3FKfXckHunnld7bodPX6XeV4zwq8f8anb/NWq5nUS+9h47x345+zTgnjcdV8EQKUWVcfl2J/jpp9cvfvPyX7777ofPX798/vzp06fqY/7697/DdTrN0ZCvVx/3NWsBa0l68MHLp7vP1MIrOvbBkyevkaVX7qrdwwW7ngNQxvYVuafoJsavWKPUc0MuRD3f8AEc1AG5NYW3KvPBELxDjnHfpEzuo7EtJQlHEs/JLSlISvCWD90KA36ztNwEGTuuPH11eySckixYSk+vbU7vYlw7G5/unj17BZUcrpTlJvlX2PjLVzsIHLIgWF/tHufO+okjGsi3qOah7BEv1Y1Xz96VG/F5E/7/4Y+///7ly3/BfuAX7DBmncMuEpklv55kNkH/6LbsZ3ETlHpuyIWoZxfgiO+d6KclJPYtoyTPBWwpjn3VXrsEJOl9jsyJne7WPbgJ+70HyZI1YZ2xPdfhPcIF1ASK6DOWnmNd+c7fvP3kCTb4rM/XvHMTYvb8+T+8/fbbKP7VV7u33/anxr39dupLGwYfA30dNdyXv8thpoXvP9vx5vbf/EZ+tO5/4/XpU7cgxp0YaMAnj+jCGd6+3j3ZfSHvALD80HhxU5R6bsilqKdqlcR4kqOBfT+iwLyo1iulgjR9iDGBOlPU3syvLCFiSOV6OOVRAyAVhPUtVdJ9D72ge1JCC8vrwpfVHjLjMxGgz+HeV35R/+rly49xPY2V3c8/v378mOZ+/nL3D/9AYdUnd4Q53qtt7UUr+dTkcDQkUYZAkgy1ANWTx3rusP795psPdrvP23uacT5YgDJ80/YTea6IiC/fW/Dl57zPxaaUem7IpainBrgEPMJXo02IJRMf97D6Iwq8WgV+PW26pVgpKqqv/miU+tFEFtYaoXsq1i4zNC9rT5pqK8mkXUGI05R5D//Cq/GnEEQozuNf/QolsA7FNlL0kXa4rFbLrz9//QpX9s/kJ+QMsaLy7WvdNfVEBp9p4vD5IlFgYQHt/vGPUM8vJEXgSOh1uj1fb+TT3csPcb3/NX+16cfP7RzEQZPqxU1S6rkhF6meEvUR/EyXoNYnjAVZtXiZHyIxlS4JXiuiL1TcRTGuO6lEIo58tWT6o4IjjyiCeib3lKanobvOUDILSbOjH7xAe14/+fWvea3+BZ9r1z0m+d+/unqMC/ZXn/75228/+fLnn8UpyxL4focnheVRPe19ZempZvhzgAEzsoW5er7++ZMPP8Fy+OOXv8GyGEL5/738p9998DE2kIg16+6j7z95+fz911yxwgrbKfW8FUo9N+Qy1DMWY1REi/omK9jW9UsXgDlfCAXuV55SE4msCsFkGt/ZhC3m2udDMEZRtLUmqpgS8nHH1Eox4e8uiJIvmhdGNZtqBpxpVZud+PD9448//uDli9/8t9/8I39aHVfwX0k+yl7tXu+eP/8QZX5+/eTx1b+FU9pLgS4gWdxUh+3VyzSV9wIg96WzgBUuLsF//Wv+IIdZYP6/8Xn0X+hvdrz+7rt/efm7330k3xMw9ZRlun8rQC8LSj1vg1LPDbkU9UzhawrUpSnra0+yWGJRusYkw5ZdVNr2NHsLb7HjxprRJIwsOXEPMFVWqM74riLovcqiwiX2f/pP/+lv//Zv33332bvvvstL+Me/EgVnjfyZO08HSEtOOZOkFeZdGCygLf+E3VGXUZtvj/Ldhg//z8sXLz/+Sb5Rr1fuu9ftWwGf4fWrv3QdLW6MUs8NuQj17MLYdyax3QXgIj+EDosrLJIkumXfQDJXnLLQjJJtzQbrqs0iS7ZK1R0BtVy6US6rZ7c5SNegGdTH3qupqNAVtIweqOFYln777YdY67EdFGjr4kxzAVak+qJNI/ndccBCVLt6/Kvd5/xi/wcvXuij8iGyfP/hk5e7V3/++cvd491XUF5cwqPYT1isvq6b4m+cUs8NuQT1HK5kbWcS20eqJ/IQ7m9B4WyXoDgqmwV+nI7y/BiprWA9T+wu156pcdmkopiYiiNsgMKaVscA+0wQI2wsOwULoJdb/YUclpKWbe/LL/Ut0VdP3n4bFdi0NKkW2ABLmQXVPuqruy4ey4466WjVwIvvtUATlvr9Zx99Il8PwDU8P2qPp9h9uYN6QkPfflt+5O5//s+Xn3z7xw9ePP+wboq/cUo9N+Qi1LN9NgM9cDVpURo0AUNkL35EIamngDKtRFIE0wpfTs2+VvpLwTcUXF6jOz9+/nr3ip9sy2fuBwlpt77bpfdXsaA8yGjBkCHEAcJh+WoXXwZ49uzdd//+/ff16wG7T+WL9Fe791/bl//ROhakn+3e+dt3n330Wd0Uf+OUem7IJahnsRdoED+KkTvNsXabXvwiCwWmoDpWhRsu+tBWrDR5nZ4eVYcU7Oq35aOMVStuhVLPDSn1vHhCPVWbpjqILJSZEtJmRa9NSCRklNfp6VF1IaxoN8pYteJWKPXckFLPi8c+yBagXFM9ymXiuXbDA+W2wt4KSG5E69iAykM647fkrMSMpZ3i+pR6bkip530Ayzos5aA1tr/3iXCqX9AyraUbG649p0Rbx1yw5xVrrU+3pdRzQ0o97wNLrVS1mopUqOdwWW3ZN8NJgqjOHym1xUmUem5Iqef9BPIE0YEAKbgKtgzPipR8Wa0pGxJthT/4u186sz/HX+YXR1LquSGlnvcZiA7UR1eaUKI1sMRbeyb8NTlpFTmsT9UxbMN/TSkBvT6lnhtS6nmfgdyoPkKSVEan7Hkm/DW5zgU7HNNaIaP7xbc4hlLPDbn36sn7bcZv1Sf4ze+W275ufyKTr+4zTWFOPHkDxBfetyE7Ld9Vt20FggXRgSTpA+FxFQyVxDITKQl7lJxfIM+6cw1wDe6WV4kL9ozWyllLO/u7H+ybBjThefunyy0TU2hCnkXD8dp3+Eo9N+TeqyfmEgJiJSI4O7Nc5kgUIpY4IfcI6575qjbbjU65KNvXnayugjW7SBc6/e2d5s0+kQuhSas2dOa9j9KXMa0QGfzvd/Ver2Z3MUpz2Dm4Ko88FfhgJdvM/vOHQ15jffrpy+cvv5SFKladWG8iC0vXL1/vfvvb37548eLJkydPnz59/vz5Tp5rp3XBnu73sPtTv7OFYSD2cmwHaZMNzG0vD3F3dC07bri1e+F6Q4PlfZ0o9dyQy1BP3ngpHLsuGKZkf8N22EDY9Pa6SOSOJ8CBZcu5kdxCv7ZUEwxdo5dyvbVR7sGENY2OHSwvm1MYspHHHa3TQjiAGxDNTiuvrq46PXUT7r973oefusg/Ecl8SX5MYcfVkPzlH3RLxsJHWba+3D15+Qku2D/dPdl99W//htcXL15+IeqJa/lPoKn/LE8F1Z/t/Hz3/OUn5rz4vqf7LJPh0wsGeAytP6zAE63UntYfOLaDWqaNKl51Q/BUZ9i3W4jNZP8CaAvsO3w9y+C6U9xx9wayt/v8vs1ejW3JDekyG7pb048hPSRJHqyUoSTL9G9IJNosRPYjC83hscs+S9MknW3GqiFcfvOme5yy5mthk0sPi7l6mtL2XL2Xnqg/DNCPP37+6hXvgX+9ez8q/uUvX3300Uf9VbA77ScEG4fcVovYdWnvYAWOLoRNzPGBJ5SCZoiWPv/xX17+r//rd797tnulw4WNj0Ur9YL9092779oN83xU/uPHv3rHf+1OnN/XffZHJgB6lVyWZ8A43hmOAJ+SZTnpgK5yXAeprTqaNh9C5BTLbQxn1/3qqRxx+JxSzw25BPVM+Fw/Dk7MVl6maUw6BhpWLN0kzLNSJ6Qk4I89k1n+RCGfsyubOc0CR2d1ntdujPGNMlaCV4NRxEnOJdAPLMnVIlpkEbQW8Xn15O3dJ99+++rZs9fp83ScDZ69+vM333yDpdxj+YXL3rPkujuvysIWvOx4Nhqhv2pInx+CTRw+9FJN8wOl17vdp3/+mA///KOsPZ+89vvusUC2Ryn7IhSJyMIu0DL8gOtQ9/Wdl2HoeCHg+1k9cW7ziur4fg50kJh6dv6dBipxtG1ixIsZoklih8Ra9gZnlHpuyEWpZ/e4zQNA5LgWiGWGTF1RPptgMt+pnk0Oc5RpW5LALZ2QV/qnTV2fpLNNUWud0pZmNVMrsc0wQyktzx9FcnONXC1AIkAQ8z03dFgkWH6jRAzAh8dXUBmo54fd5+lXz9599vs//AECKlfBzWnpduoOdlRS0BLFIZIPQn/VkHhOF2XAaQhWKIgfvoR68rflXn/x6tNXoqL8ctUPr99//uG3//x7/njckyd8aj0kHhtYfsqvyb3Axu5LngwOd38x4kLTT24JeqJtNdMIrHCgg1LE1ROHlGehSJcKtlKcw6KoGfChYR2wqcaSt5PDN1DquSEXo56I4bUJMcc/64g4Wk4omevyarE0RBn0jHNWdU0XF7ARhZAbE9pP/iCvd4HqomSPKwdgxsS0alPa7BmcE5jWpYun6i7xvNfvv/8KsuRPhINi+o+yf4qLenWNvsubFKH2pA9xPmrfNsHSxwws8a0PLKS13+i1Dri695evrp6+885/+vu/Rxaa/fzzz+GRXKA/w7U6vI2vB8BnHRa4m1KkieO635VRfGL4SEeXNSN293Cggxg6GS9moYOYj9jXgUPS6M/eFlveOI/t8Egjs8O3oNRzQy5DPRfvWZ4AIkfecVpMV05FVU8PGZb1YhIaUo9rU8vkS57JMUnzZu9snslqvjsP0ChKoCGuWSQEqL5Hqqc0FekSSYgd6wwT6D63sIErd734/eH1bvgtucHLx3BHPsCxBIXGoFXWt/Q7cWtI4/QQxuGg7OqAe2v4j83AFpi7T/WqHK7+4Q9/+PjlbyCl/IGkX/8awsqfp3/irp7S/TZ0/dgu1BNbIoNtQNY4uYNGb1ia01fT1rEEbVCfkT2TXZC95RNw9zhf6rkhl6CeV+8hxbHIwKz30DgEpiUWTLOyTT2NLspIS8CWtpxnajBNFPqJTWtIiVYkZCT8+urHrj2JpMOCLJKpHSrAlquwjH9x/ZOX//j+6+U3lvR9V47T999/pl8esjwYlfAVm+J9P/Ye/ytY59glDji7PLqn8Fpe9B0buCrHxjfffLz7n/8T6slf53zxEmtPzbIKwrHdt83R26V6Cm33QO/A0R2cwdJif3BgQHpmQB6HgqjbDt9+Uwgh27qT3HH3BrK3+/y+zV4d2xbXFvtnqYQ9y2j8U6csRzhWPSUmPWNRhsznq0x4lEYuXrmmwKUV6f3m3E8mtXQXIBo5k3aJO6QBpoYZk10THnt///d//847u69COiXUGY9paH788XP5oTb7OF7X0uwhl+EYMY472mwVYkU6QTv3RvvcDzizgvfff/+3v/3t7373OywwHz/effb997hy/+eX/9dvX/0Lr+hfvdo9230+uxP/pO4LOYdDqw4MNdoB3dc7cGwHe8w4HMVA0gd+VbRzTNHjgwOUFJOT2crODp+0OzGllHpuyCWr5z4wIfmOZT/vXUNtNwJPkIk4zjopgchQO4zB0aayb77eNNoLRmrnWn+iOB4NyOG0IsmdfS5IZyPRAzWRceGnGXjtBrzn+3RL/g9y3/3X//zyxYsPNOXL3RORCaVzMLr/eHeF9XJ8B+u47seBa93hx0+TAZhzfAcn8JhZcWyy1VkHT2Pl8AWlnhtyX9WzuDCgevFtJL3v/rvvvosU+37SXvTCv38/txgp9dyQUs+HTtxF7h9k/8LADehmfug9UqCJ/Ru17f79gTvSiztLqeeGlHo+dOKS+e6s2rDe1At2218A6dT7TdVzJdan/B7+ynP1i1LPDSn1fOjEJfPdkZuD6gmhh1ZCQNVzJT6Or0v4PZR6bkipZ3HngBRCPfc8Un56LR9o9T3i+5Ap9dyQUs/iumx+payLx3wxvoehdWz0D5EqOjYLLn64P/8CCvLSzRT8ssbxXx8o9bwupZ6XxeZXyiqI+WJ8D0Pr2MAuBHRDNb9PHAou+TLplNlX8vSrqouM9MWtq/fe8i9iHfOdvmvEPu/hI/xC9RXvHdAvfrVGoeP5m1ynyfqUG1LPdHtQ/+XkY0Al2yruPLiI5kfdwp6r6U3IbQ3ER+3YxqIVyqu7xcApwbX27dWssNPo9oryLVaqa/pm637Oj31VTYCmeNcZ/eq+kwynemdnN/SdRvZ2n98n9uq0bw0PnDmCbNNHA6fEa4yMeh9fpE7IERhOz3GAOEU0RW9uCqauLA6mwrtVIllOj0OhVG/P2ZPzdrIo4BzLiSvjhNphdzYMgq4QoVZ6fX1zsgVFhlmgTQxo61a01PMQW6hnI0roItST/L9m6Z3Ssn2Q89WTE9VmKptmCHYRJs9Hw1+sPy02sTKV15W3H47gQtRTTyU6KmRiPyetRvw6bezd1MIIi+zrlXmgL+3EZsms7fCWvnha0XjwUNCuMHKXjOzUwsG+Ed5t5TevpEZYxOdPm0FewFRfkm2arU0yvWSGWmEDSnpzsoUlregkPwgSFe3Q1q1oqechtlZPPmCcUypmIivJf8xOpHMe8QZluZdqdj7vuYZ6Al0bYA4zwLrgoLjz6SmyWNDYtBJDwZO4GfWkNhhHn3UaqGVbgZ5H+CdFN9GOM+YtiTGOobLsRcjvA1ZCL1jfLdLCyhs8HTbZ9IXlFVjxIfAjhfHRNR/nXYxPt14Foa/RC6+vzvCePCvgJcyFBYuLFDZM3EQeJ1F27y2aWt7ymi6ib+GS+aQ3B1Cm1HMPk+AaaNPQ4oDEBGi5TGKkde8t6hSU/5QwLWxmFpNowmH35vh8FprbpDWry0+PBgkiqTnExvFkb/f5fXav4OOpzq221bRhVAPf51DINauknjsy2s60Mt9dWbPIqYSjReHJHjav1SJVz1eFPq86k1Ghf+aEVJTiMl/zwEZBbMy843mB6ZjMvfdDCwA+UphRHl3Ftj7uDKn+jvtwwS5p5BZka/mJEDZOWnuq8zf65uwd55RAbjN3iebx7xAnTJL/nIoqnzptpzNz5FydafDcP120yRNudIuucXfi/klkb/f5fVqvGNnq6TbqqQdBZZHhHarjWpDVE3HvDR47MnaOdHM6M2aVkQM3Fmg5rWYvE/U0dWUzmmva1YoqUWGpbUDd4ii0vKgBmDOQzMMHuahy0mmavbeTgzTMr53Idj8MUJ98wW6pt6KeUL3h20iqp8eLuDof1R8gpwRynlY9Pv20hOz5HGGS/I9ZPZ3GK5ymMwu4wJCn49KFbtrGZ/8SfdygTxosXcFTuBn1lChFlfjJmZNYtmV6yBEZpUahKAh6GeGSPUb+XlhYhQWSQnOjROuh0W2lt69TyV7CI0omZxgSZDBkLlmutTM4aXZofjHtbFLoZ4oxa6NGYq3vOpR8FyTjRW1mTZBhWF6wB0vZQpmDF9qnAmuwibbU8qmNDtUt9SFxSiDPphWReSdbUUJmt81FDRt9n1HwU3RE0jqnuDcgESbz2Ncm7tJIpyFrcXIM2dt9fl+jVyczttVH9PTHIXw8Yigwktg4aWRSXZkSfWXspfaMvojNGx6znBMzTNNW1TO6iVTrYWzovONFCVN4ag3jbK2b5ta0TB4necl2xL+Wqy5n4mxlyXR6fsEOltfyOeUmvnoJ7VPL+Zfj9jBcsEf1ByigBwIZ86LRJqLC2YtJmjQpTzxet9gm0RO8bC0XAaucqTMSGSHOoY4UVP3KJN+Gsq75lZ+RIvVkLkE9A1kwxRuP+cchFurJ8cQ4nTIyXhiNyGtfmXNhYa5PsKmEyZJ+LyLNMNOz5pdNq+5gglThyGmXWgufFs4aSEfZ3nSuD3TsmBzRs/ty5YIdIGXIipThQnsroHpq+euv7afeLWMF9SfciOqbO3b32S6QOZ2TkK5zC+rZMZ35oeWgTXfOcPRBd07nMtQTXec5zxbmGJ3xxyGW6im0XREE2VpFCvNsFVXGg7BIWRYxshwlMWRpziU6Lwkz9UQxqztOO36Q4wvUrkpqDh21s+3cN3vvHLmra0+akP3cCygOtAaCiL95yba8ls8pa7WuDxQTuvmv//qvx6jn0o2bc+yOc5uBfAZ33L2Bi1BPXmuaHqz8OAQvYIX+ncmkIHs+KydUE56GZoITLARpkSAg1ZPtOeV9mbHW6oXERD3TGVTQBvwzOtRgHyigHIyhXYB8TexNZ5kU7dSvKXGZbKkGtAZLNizcIFgKBAgpWNwhd3kJryDlGI07CV1OwuzQ1hKIY3Y1X7BHdx6OgJZ6bshFqKeBuO7eeOaCVHdDciLFdWuI/jVYz15FRaFBIsW66UY62aNQLYTxCKitzSuxEqtongSSxyh6pP8Kq8c4hPuGZIT8JtMyUjZQdEe9sZHgMAjcvmrXvJAtBZIE8Rou2CNFuQn1VKWGzaGtJZDIcHW4YI/uRMq9p9RzQy5JPYu7ABQHWgMlUpYX7AAF8moOKZur5zEMrmbCwygz+HxfKfXckFLP4roMF+yQIWxgTRcLQ03BdhS+BZ1CE8O6MhxTV5ceIuXeC2ip54aUehbXBQIE6YEkqRKFbGG9ib+qlZoVhUPRbo6lIIZjcHXpoabcgmO/LKWeG1LqWVyL/Am7Ja0/HH5a+IbY4xgS4RV8g4f6lsJtOvbLUuq5IaWexbXQJR6Wb7YvrC0wIU+qVrZ/w6gbaBQbeVEcjqnzSESZZS/uJaWeG1LqWVwLSJJqk+0L2EViXnUqt6ye6kYoY2hlOBZ6Ggqr6feYUs8NKfUsbgPoFMQLIoW/Kl6acpuX8CBaVx7OBXtQ6rkhpZ7FbRBvOOp6ELu3+SkNWhzaGpallvoAKPXckHuvnunWyxm8y6bl5ntufmn41Xz7Cvv07sxj2d//2yLUU4UM2/ibL6JvlOU7CeqG+vMQLtiDUs8Nuffqqfq5IiD9fT8T9QzpaVp2K9AxudOHt06xbTjROcfbilT2Q1vTfVgtzcwk8t1at4eq55/+9CcIlnL7l/DBA7xgD0o9N+Qy1BNagcQTnhaa5QP0ChI2oEe9vUGg9DGv3H7j94fPQOb0l0PX0o+A7cpDnSjZM/UEese/58Zrz1jpFwH6qNfpuuTMV8qRdaOX8LH2fLAX7MFtBvIZ3HH3BrK3+/y+zV6NbbVrT+jRaWLwpj0bJO6Adyhu0Kgss1BZyqyURPYjTeCDqnv5TZYg03xm0kIl19KPA6LH39KievKBKGJkRQj9eR8z9Uw/pi2cueycC/PxQBmhVlBJrECHK+XI0nXoDYFGVaB1A+o5uPFwKPXckEtQz4ArylPCmALYyoschv5QiClQtqskgVLFkASRL9mXPxMVa/res5Z+ELZxBe/ooD9WSSWcHmMY4rK9PVeE+SAaZJ4+aU6ZaqAMQ6zsWXhMwb5sn76MjgtkAOWa6iOysCCFqt7o1fTwvsEDvGAPcCBt605yx90byN7u8/s2ezVrC6socEIAUzseYdXoz7uGdkBxqEoqO6JLop5JDpMw6qpVErjlYip/opCDtqaeTdPpySriVSyC+cwkSqXTFr180ie34UwiGpPe842HvPScvftLbeyVeJmy2r0DQDG/+eabP/zhDxAsS0roRfR3332HMlh7ogwEDqCWldgOXXLCOP5i21IfJLcZyGdwx90byN7u8/s2e7XeFoXu2DjWh0l74EMTZtJB9ZRMFcRBGLHWlOdccs0puiKNX1c9j4GLTnTA5F3btZeGLUpF0uW1+WXvWHSuLuqT6DqR4ssU/D2rG/qeJsRxqp6qaF9//TXkVctghQhu4hJelRrG8fdhXrAHpZ4bcgHqKdKlwcvF0KlxDAGIh7kPuHqGPiS1QQpURJqmBc3ky0yE1tw6U3a0DX4opA7K7thu26fXi2xBOhHc9toTQAqxlsxXypoCrcSqE9JZV9O3TKnnhlyAeopQLD5zb+/9HUIXkLOyTT2NpJ5KSzDtFGeSlNB4IBqj+cv0U/Bmw0GVNNk0Olf56dDgudAVmuorDFNX1U0pvEyR1sGshWOJ1Z9+wo6L6IMX9bISJTexGn2w4Dja1p3kjrs3kL3d5/dt9urYtnxRuA4/ZhLFlQ1KaFf8WPX0NVhKulGiX+YgdO+9HXsSp4C0GhTn7GsB+csApPN1VT377ixTtkCv0/WdR/3w/eBFPd8EFW7indAHS6nnhlyyeu4DYsKVaq8mrqG2O4oLP6kZ9EVK+Cc0NLpUqM2Bl6aZbE3k35pUFce2va3J/SSpVjW51zrI5eNMFW9LPeOCHX+xvecT9sjKaC0rUVyDUs8Nua/qWRxHXJ3LNv+qeuZDsLZ9DSCIWFRiBWr7iWXWnsLFqZR6bkip54NHR/v4v1tQ6vlLUeq5IaWeBUfcNsAx29cmC2Jc1CvxvHctCZBY6rkVpZ4bUupZ/AJALr+VL65DOuNT+CA+WVKgnlrYKhfXoNRzQ0o9i18AiCbU8N/Sj1maUgqDnkI9tbBVLq5BqeeGlHoWvyTTq3LsInH6RXq9zK+v1p9NqeeGlHoWvySx9sxfSFL1hG7afkK/CoqsWo2eR6nnhpR6Fr8k8b4nZNSS9qqn3oaELFTBhqUWR1PquSEPWT355fmRle/C69fOZ3frIGf3ZrC0NMK7heaWe6tX7z0abn86num9RCTfFCDu2vaIfxf/TNjHntWWOvRiHII40F+e2xA/fvz46dOnz549w9/Hm9+40EbHt97kJnh00u7qgO8l39FAC1v34QClnhtyn9VTVaNXtn72P0rP0BD654G24mZqDBcWWRe7vmV75pxgIRMFPI/3AwlnROXSO0edd3h/a4rYg05KJ5XdLpeN1mygpBn5ozeYtmb9Xi1gTi59/ejp0w/++MePP3j54sWL58+fP3nypB8FHixI5/vvv49cSCfaH5560veEJGVaZgZhBA7zYSxy+uKZBD7CQmtCniag0LDc6CWoBd6StoYa8ZGMwx0GmqM3TannhlySemL27tGqJTjJ50nJudtVX4bwmIKYu5KwwzznRLfpLmXitslVlvaVafpa4UMkWYhgBGYLVs35QfmIxGzfLlbRJhct3VSQL00QI9l4g5poyAbK/kQBOgklMmfYtr4k1cDB+gJX7AIuyb/aPV4erM+6N0nHETu030DOIktOKrIh91pF76imUhTpVoeG2RdJp61wVAVUb65lCXm+bBZgPnVQGSbnrVHquSGXo56Ybnmi7kc0BQGKWW5zH+GwCJj9a8+MBtM0HuMu+AXUXnk0aAfTWkC17EdvvUXpIcf2smfqHehOOqoNGUQyR0c77q+WLkjfdfhCU0DeTiQLM8zJ7vksRxysv/zlq90779gF++PHNmJ9S4vDOT+Y8EAewdcfNTYJ4BbgKx0ifoZM5b0PWiWNAg+myGZWz37AWUTgYVZmTt4cpZ4bcinqyTeL1gJ2jTi9UxyGmjGLBSqXbRIROClg4WwtW9h0MIQ6W8pRIWGNKC2cwDkRNfMOQFTYO8lir9mP/jeeKAwcIojNTPvYd0tnIfOQWxxSHyitxYvbKOGNwDjRvlo3vbfR2p6DBeXsLtjHg/UV1qq6Yj3wKbz4Cq/kaHKHfXAH0sFYDIFgUyaetKpDlgdSymhlDpj0WkirT19+1tpzSqnndVm2FW9G9WF1AJ2gph6NtuqxeMh0U5qxoFGPYKcJi/kIGS53+iCI8OF2i8eBLubcTQ3JVP8wfQdckQy1Q3XHsHEEsQx6JAt4aIbJoWDKKTE9GWFNk0Vrzl5sq+xRKyJpARxWH+Fq3889B0u/1fT57v1YdRpiAaL5yYf53dIRscu+R5PJNzlGkpxd44naxqcJn3YS48hjhMEUGc4TgkeDSslRZAmnXWikCdEdLPPrNij13JBLUM+4zJtH5CoSkJjM3GTN9sdY2BsSGCYyry099gUGy2Lm90UMTVxkmQFEEgVDwgl/NKg6fT2GpZAL9LzrFRuVHxIdey4f9i9GBKTO52q5qGzrSEsD7FhvhyKC/2HA+x7dXB6s91//+OrZs1fy+TsE9Orx48Gk2ho+sv/xx89nh4B4m5lWsp9l+CMrcV6DWxHtpKmnvNuhtWmWNeG8Lku5sGzqGV0mMxeSD7dAqeeG3H31lOVIIs3FPcgMluUGJr/Oc5n99lfxpUOA3Wxdw0TqeJykmc5Q71PAIoFom9Mspo6crJzA1kohAYZcokeXbaFFVXBP8nII9Csi9YO9t5VbP3iLbVhWc2M/4ZYmtRHPWj8/WB99//0Hv/vd7/3584cO1r9/uXv7+Yff/vnPn+7efttXqZ0j2WMlp+BAqH2xi9aasivqAJM5iqgJUKINJmeq2uOhFukE3fue2qDOBP3b+XALIIJs605yx90byN7u8/s2e7XaVp5oDNNheicQjn7BxLkeM5b1+oiyCBDD6ZMBQeokrXEbjUXKsohYZ9osK5pudMXketm295CMWGMZyYVZ6p90p9euAEVUEvqsznhTsCZeGGy58uf4TQ8JDFvRrrdeeuVgYVH50W73cXr+/IGD9ejRk9c/Qz1fPn/55eyL9F3jQk5ZrD0tB94NYyXe2QY1XwvqqlRtcJB5LjDagKpZNWBmll7dKKWeG3JR6jnApdBEBBIiFZi8mKhtwnsVWfCoAtsMtkmv+RoasTsnmVOGBBErU6qWlQtlQVI6ZWPs2eYK7AbiVuMUkY76w/rc47N3phdQjqWOBUthtFqzXr3fbFYp8NACGc7cFY4exQS9jVpqm7l8FyA7IHmLg/WY31Li1+YPHKx//3z3989effrq2bvPXr3aPd19NXsQ/WyoW39U+TguHBi+eplunJivKcklR2wgnWcD/sX/NpDsFyuLze4vXnIbN0qp54ZcsnoehcSkTGHMXk5Un6eY3jqxPWAMW9MwW3elGmvaVOdmqEEWyxRZgny7upMhsUErLWizIAmdySMQseEyB7rji5zeqO5JueYMEnRbNSVnAPZa+3+rnHywvrq64rdEv9g9e/bqj8Jnu6c8CjrQcryiH4uhnqQcB7zoD60Be7xYwUgDOSg8SQzj/stS6rkh9149i/vM999/r6KJq3v5on39AOcBSj03pNSzuDyWvxy355l1yILIlqoqpZ4bUupZXBL6jKXvvvvuD3/4wzfffANZtIzFr8AH0NZ6IFNQ6rkhpZ7FJQERhBR+/fXXkM7hqaCapRfyGagnsuphoEqp54aUehaXRHw3Pi7GI2XgT3/6E0QWq9Q9F/UPkFLPDSn1LC6bWI1imYnrdKTUE5T3UOq5IaWexWUT74SGeqqeQj2xURfsA6WeG1LqWdwH9n8Kv7y6jwv/h0ap54Y8dPV8Y7dC8nvTN/mN5sl34P1b1e3L1Ff6qI4FTGeJtfxD8KvvqE8fpPq5XxKXe7ZvapTkm+bd1nG/iqFrT0ghFp5Yfv7rv/5rLEIVZP3www/ffPzxP8vVvYLF6Q+f7x7vvrJCD4ZSzw25z+oZUegqpeQgjJhcERRW3asXrLcv35mopxM3R6ub2Q25dzqcg9Kv2diLdzJ8uBrv3DbkBqMhp2m8EL8dIiQzPtgHGEQwkOo2Eihzwq9ifMnr9E92T5++/uKnj1+++Kd/+qcXL174o+rYFpaZ33zzzR9+/0//67cv4/H1/Cm6T14+3X1m9h8MpZ4bchHqidBxjtcP1Qr8ZfgjKE07XKuILzxBqGfOT8ms7iSFYX7KaaibSXra3YOeKTbRmLURL2l912XxJkUzABYyt4rUFifdB311C53/MzcFW78Cll803uQssZRiH/D+ER+8+12TJd/3sGsW2nlDhswdEE/8qlzucedF+acfoRpvkrQmkGQfvr9+feVHBPL64sVv3n332SkjeR9ADNnWneSOuzeQvd3n9232atFWhNPR2A3TKpwuPqN6cj3jCmFNUKE0CWHGMDVNSA9nMzu6me+5NubOploNTUSFnWimpSKBd2eztNniSwjPSgNroJ4/NCR86Nee/fliAuoJpqy+/Gw2dHAO+hVdGMaN1WlPNI+vPuooLqWS1lofrEprEAIqF+Ovd/Jsukf+kGVII9QTl+pYb1pRv5avtecdpNTzumygnv8uT8ywevricedaAY3a+WMnrQxlojUEC6lm+GB2ZANRju30BiYyomBH1MpoImrLEz7cSNIls4UXSIp5O7W0hi4JrcdRc009V0x7AVnNuZK18XDl17aC0ZIXg7nFOSet0WcOiGeaaS6y0UexaER1/tzm7nMI4jvv6M9tmtKjNNTz4w9e8lpeu4HufKRSW+973jlKPa/L2BaXT4avv44h4tvCOgLKQh1R2GREy/Shy5CVslSPphYWv9QABD22XXS0SC6YsNYdq8BE5qxcPZote9F2wv5RiCwfoZ76CQ06pTn0PVzSAp7CjakbNsyN1EhTTLEjaQkkalVY4FB72TAgrdEPlOQlBTa8OR86Pnv++8920FAvz1f01K/c/2W3ey2X+Z+9/McXH2A1+oWPx0MCQWRbd5I77t5A9naf37fZq/W2GDLHTXgqrgqWLxsZd6gaWkJCRlp0N5AmIag1Qi3MTtr2FC0SBRMz8wmRBT5ibgxns+Um6RFYmN+PiQ5wBbdX0x3pH5pg0ywH8/ZisABGSh+2xnqg/7kPQVLSBz1B6r01o202YldsSCERR1dGs41SOkQ8pGYn3LAiqIV16Ntvv/1rrDafvI3VJS7q5WP2j3e7V/zw/Ztvvv79y5effPvzl7SlH9nrR0kA8qrm7iulnhtyCepJydQQOV49MxJXDDRW7eKW6qlx6peVPZA0WedgU0uRJIQWywxZyaANba3DvB4kQ5EmUEVMuT3xlBV4CqBlM8mEmZ97mTabiOGJl3BAUQOeaK9dN7HAtQ1XM75tnEwIkSnbecCRo4MrQ4jhagtfJY4RbdAMECfasTD1hHNQww+fP8fq8ttvP9ztvoQgijB+AfXkh+9/+MN3333HL9J/ZYVxFS/ySiC1Zu+eUuq5IZegnhIlSOSFewsWCXPbmcOrVkaZhh7+qMalqJUQl9CfaB4lAKHKn59ES1FAAlS2+m1nYSkl0F6UpxRKl3QdJ3nc6hqQDbdAmQa5yV6FpjT1dLGRHmkSs605z43mnIPqKdue7xldI3LeewsnwQB62T6zCxelcjO91ODwFhs8oNECx4ZLZGRDKT948eLDP3349J13Hl/xnU0I6Gcf7V68ePH7f/5nvfNdJsWj3efjd+wBBPQer0CXwXWnuOPuDWRv9/l9m706ti0Rtz64AsQRP4rR7RTow04EZ0pWFWF0HpLnFsuJrgF+HAJHXDEY8W3xGCs2dYPX7kyNHwEKxCTlgTkioc0zmB09GDBpEnmJojCpO6kL/t7n2CdXTz37oAvMb91EBhOaSAP0SPS09VVHgCc0ommR31rQobeWrClH8jWF45oGQc86mizfRnr+/PmzZ8+ePPk1ePL6px8+3738kAvMTz58+eTtt836e4/eeeedf/iHf9h92e6Fh3qiGPTX9u8dpZ4bcsnqeX2umnKkiD0omsGgNLqgyUkUCCiDyYamdfKKPanBggotoFL2AWWQ3onFCU5Ke1LDEhRRLD0BtcaBti9YRyBJY1V+a8kc8I6JU87Y2IZo4934DMRTQuRanPAT9h9+gCbygj3d+Y415pBS6vnLUup5XS5rBIu7Sb7z/ZiLcRRAsSMLXy6lnhtS6lk8IIZP2DP8/vy330I67/en8KWeG3KCehbFpfPXf/3Xf/d3f/ffZvzX//pf//N//s9/9Vd/NZT5m7/5G6tcFAtMHw+qp23dPLfZVvFwWD7FLqMX7NMy9+la/o4H12XFfqln8VCACOrHR0spRIpep0MrUQZX7pZx7z5HKvXckFLP4qEAiYw3Ny3JQYp8OD/5CblSz9uk1PO6lHoWNwQEFEIZF+O4TtcNpOhT7LChIEurRBndvXRKPTek1LN4cEAN9RIeKpk3sOpE1toi9H5Q6rkh91s907fZr9It0TP4nXLeqZK+ha13rgB+NTt28pfhpYWDXwxHVVZJzszQL9HPCuk32qN9Yd+3xSfwq/FWAXb2DsSS+DI96nVuTO2It7adaMm+ddwPbyy5/kDFJTwkMjZUK5El739O3gC9H5R6bsi9Vs8UYZNgC1EQeBOgbkW8+b2HciNl7IRaen2rx7iVDaBFjdZ0q2vQhLu1Igos0lfqaBZ60QCS7FpivZO79v2WoL6hdcxtfVnc3EoPHN62xDuBdCfpFsoyT8aF9yShl8jO+V5LTl/NSWtsg4G60oPid82iH0+fvv/3f797zV9D+vOnrRePHz/effTR7tmzp0+fYnuqv5dLqeeGXIp6SlQeG+6GhJkH91IcLfqNRTRKktSRey9jJ92EaHemS0RiI9Shi2IRDtueRDijWhTO5NtljlWOuyNT77aUNSXsqJkdzFqrOgBqljfai+nBx/1YYX2hS0oaCR883u9qG6kBOig7yMZGtB0LYqQ3Z4cf3pBkcu2BMnNY8oJwAstMvU7HNsYMZV6nFKllvt0PSj035CLUk8KA/6epZ/7djRaxCaTFIysRIaJ9Et/LVhi5vGodn8hBEyKsGsOinn1TvQJwv3/yRUPrTYN12bACt9R37phcevOhnrqOE61B01ddneOwlSD+sHvj2hOo0+yaPlBvIW2yzdv9sSmPSpEUH2o/CXFTu29VupELtN2TBirg4RBMgvlIkd0HH0Mrufhk4qNHv37y5CVTSj1/AUo9r8u8LcTwCdOYpeUhvhouHiuCmWEUWrYsSBnZLWAjzgiDSl5VHTTAo4BlQuBhpgs2CEpckRp0CeVRyHXM4n1dFCgl2RsjdUNeUROlzFV23u2wK4+46NSWvP2jsRb0ZaKepq60r7m+CPeiaazm7dpg8xQmJbiWpNJb7vUHShsIi8l5XXv+6U//Z7d79QqD9uzZq1f4/+nr3ftSmY6M7VwypZ4bcl/Vkw/+iehFqCyrSvxYEX2Zt8DYRdhJCPPVkieoaDBQJTD1clIzvP1FzDNhekEa0rFYrA42XAfYB7Ztta1nTMEGXEMuL1hNOC39KKwFfaEFBY5iX4TOmtBHOUmWdMVbQGNaSaqgjKa3sRTTNMC+YTjoPwsDHwjLESNqvc9HgQMDZbt4aUbe273+Up+O/PHLlx+Ql7/5h3/4hyev5bnzVvFeUeq5IfdVPUkIiEWKouGGxKQFjHNEMHNNBhBjDDBba6KKrn/4lGZaE71KSyopouoJVGfaBWkL4yGgU4JJVF8Ae2J8XkXJFbXHaZOYkYFQncOYkEm3U+PWsDu0Vz3zwOAPRxtFwgdJd/WEKSmCdLquNa0RYM0mRwALgpQC+iK+a/UFNmnPBPli90R+ywO8/fbjK3nuvJW6V5R6bsgDUM+ER+USCCFzqLTxdqnHmdhxY8loi07dCpGIDSVFcQ5dwfPcs1QWcAXdp4AhgTWRgg4k8crqCbDo5EKPvROVGSwewJxGr+TtDe9AbJpZiKu5Zv0PF5Cs7YoA08lBukVLzcDKD294r88fKNvVtgz647lxzNixhbH7QqnnhlyCeiI6kWSEtDHI9s/vFr36oU9byChI5ionL6jSBxgtzmQNxZiPHSVVky0GoCyq/GeYlKwBSXwUqclKnaXMIqVPEOmCNo6lOvW0ZpfGAQwMPu0h+x/bapa9txFeqqcNiFRpNnqJJ+EhNmKNL0jOtQaKR3B9xrBBOcCq8anusqVLBiFkW3eSO+7eQPZ2n9+32atj26L07ZvXKTYZOm/1sYOgaKHMD2spyPKRjtfyPIkeN5aNxlIOAYfUtHwJ2EpUMFMBdiERSY9nDHUmCdpKalrsam+ZQ/fUU3sxzMqhz6kD2vI66Pr4NuPCsUE9OVw6TO5Fb0HyNQWy2kmddOg6A8WposdZvmYhg6L4QDVNd42PY7u/2Quj1HNDLlk9D5GETuhWWSZ1SQEZr5JzbKy06IzFbZgXEIGhD9TvIf5Zy15FHNQT3WqedqKQFOauAT9T98XR/nR1HKi4+OGN+zVQvyylnhtyn9WzKIqBUs8NKfUsigdEqeeGlHoWxQOi1HNDSj2L4gFR6rkhpZ5F8YAo9dyQUs+ieECUem5IqWdRPCBKPTek1LMoHhClnhtyn9XzqrsVqfsytdFK+Fb8XAS//L1G/11u8ka+iD9rwljL4oOPdCMK8FaXFSuHuTr5aQCH4VDEt9UTZzVEY9OKudtDL1hnjTOORUOLDtAR2zwWNLZ6a4A7wrHbY7dNxSWL4Vje03Y0pZ4bcp/V02eZzt9lOMmEtUKYoO+hAGKxlTGxkBta4mU+yd34NBzJsnVFQ1Vbinb6Rk4RxLVmBDQy0ZpQxJS3MDOJ7U5kuKP5rHp1hf+yZ/Sy6wNJotFsbtKLLY9FoL4219SZrmMosn4uY2Zgz+MSuqEML7C5diSv3nurexBsf5z6semMHHf4EqWeG3IZ6okpg0RwtI5gVvE5kdRDTD4PuTTL/M5nm94xQamm1kYIq2T1L6CTBA9nxbzMJXKBNNHVHFvi3ebSIu+515aV1iILmglrwvdhUTZTKz5SfYhnL9yCbPir0O2skNzS4rKKxmiy5qj4ftNsdMzGVuE4paNjx8t3tYiW7w9Cc+HwsZhgvpr73BD38njnJloL7lVXMuG95SYGIgt00NziPbww2XqKHd10vB26MHTHfY8+kG5nYBlcd4o77t5A9naf37fZq7Et0TeZDap0xyBzkA9Ylweus04/pSienMNULWyikIWcN8Uy+yM2M3csNTnbxAYjnaGDlpgsINdaVk2QIkCFRZvxVy0of3vH2p7ZWsO9oTMcKkWbVDfVVNYnUY/Wgm6pTrRfdxO8z6gsxr0vvmH5LjcyBv68geabbF7zWCzxn25BefXFHiltVkVKY1rY07hI8wpOmXsdqGlzCKYPnPBpVgtwg2M8Kc6mRWNjagaHD99AqeeGXIJ6JjzMDiITDtO//bpRCkUhycGKTdTgJLRAj5cWmjmi+Agn3WiTPDU531Q/JUmDVNvAa2ukFUEtb9BfVVTkL5NQiFAHrIAX0a1JT8Vhki8I5y5akm1ZC2hJBJPVEeAuSENLftzCreYfyeqJVbRXTWawqa3YQbCXZuTQsRih2AMZUjYibWX1RBKfiMdtzWv2U+ewM9IyKXhmvb2XIarcO4V2YIZPR7Eyhk9R6+6AtHP48A2Uem7IRaln9/TNvcj8abpBximFfZ93mLQMJsn10M1hwXndEdNfjGh86QzvAiM1Od8cVWSKRzA748X9dVBPSRb7XsAy9cMwhJp1Ep0zR90bfUU17k1cjDD1QG0taHlZwstvJkkReQkjTT3NCl6itiRLaphWP5NvwbnHYgEONHUMpuWqWbrTq6e0y02Wa8nuVccskdPV0zF8Vj1mGtHxogMc39SzzndrmgO8aKMNEV6txNRDo9RzQy5GPePD6eNx9bRT+BDRnqtzU+adxPYQc20mhvb0YOGAelxz2SRvJMXx1kleJngdNJMx14g5oO568VaNqfKXSZIsFbxAy1Qjkmwvlq39i1d+buY7gppqSbaVW4jSttnVB7KPPx1poF1co55KzNSMbZ16LGakZnF0UL5XT1e8fuiTF8T28qGeZEsBM+Yy2pAJmip1Agu8aRgb67r9eF0cvoFSzw25DPWMN5JOQme9M04p7Ot8l8DBhJ1e5LEUsWJLUAAVzTimeW4jNZk3c2/YLit10d45bjn64sX8le6xC9hjEqyJp9mebomb9pJ8YYqF/eqlXxiwJNtqLuhvPcl5x63JiDV9DG9aJU8RFupJq4Ojkst2pIe5diBWV47FDG823OnVE9gneCylY6uda4bdRX8daenoEbeydYICesZ2fzmEg6lUZ+yVD/jUqRknB7K9e7AgTeJgLYqOp9Tzuoxt8escgU8SHtQDB+qQelquzM02QSFu/dST34MwujnDJYOFcRiX2Tzxazahrawkt9gkSRw8XNRBL8aKlotX0ePWAxJ70TCq+kYu6Pmdg92OteFh6oHamzGsYldfisYuAwzkbCQu1FMYdsH5xwI7C3+1WZq0LFm5pY5xUPmWBM1EcvYKVlfe6TVSOjwcj1KPDvHSTT8C9t6pFEPfxazb79pfc4YghGzrSMxjDxc7VCm20FqCB8ZY9WEPJ7vX4NUp4efA8BIOcJYkJzBwvSBMhvo0srf7/D5j0PVLRjjQpw7isW3J3N5jXI9wHNw4rlrHc3WEdeaSGHDJ4kRNUcogjTaTzOb5upBfsm9CE4qCtk/aYfW5y15gw4PPXxN9ku+ldv29z/2OoFfsdSozaYtEC/KFHA4UDPswyi7g0KVZquKn2R7/hPokdA0nXzc4FgipqGowczke1jFkUDQ1bY70dkcBpe+DGQVW0mfhbWDG4hgZrqznDcqgdXns1+ygsE8cqKkvwhmBbMOhDdqAJvXM8wPdaEf1HE52L1DVBDIrgKSl+QI/+2FJc+ZMsrf7/D6xVzje53t2/gj25MN6g4giHA60eXQ5na8+NRnAUgszQmvbrOCWvjSSBYk2VtDzCyM4aOG736HGZBhVBK1+Dpj1bkpUY5A8l/EPI1I6arXZbiJw6vE76lgEy56dUh1lm9sysAkfhQPHHfqL2Y7ycp5ZQY+i7VyXk4NLDjWgk+0l+q6j6FOMXdetPf3ZxzVinz6oT+LROGxYuWMHvcHFhHrrvp7pKsje7vP7tF4tp+UpXGMEi6LYx7nBxTP6XGRysPv2gZPGOteLfaw/0SpPzOM1hZzquLwXCZVFp5U421VwU+qJ8grO5JZ4NKhlW0VRbMp5wcU1si0qlXRV4ItTEmtPeT1jUXdu7HPhGcQCWGhe6PLT1ZOCil7cRfX0y59zrjpKPYvihjgjuBYx3F9acs/FK3Rr31uv+7h+7NubIctFW7thQdSTu+b6HVNPDmao58njeP0RLIpiysnBJbEsomQhva6lIlxnXGwmrhn78AByA3WkMA5e2lNcsBTV9z3ppqr+HVNPccs/cz95ME9tqyiKI7lGcHEl5LLTaGs3veJs153ncE33dKXm72tCLqeeaL7R/D+d7O0+v29T0Uo9i+KGODu4uGJrH7QHvjSVe05VV7lyOldBz3SPq95H8QZnqCMF1b6Pa18BpfjLp0qST0o9i6I4ihODiws40n3TNoH8nXyLd5AgJJ0lSlvE/lQP46t+oL3XwOWqi/4ZlHoWxQPijgfXZcX+hainXR/wnGbrbyWfY9rZzrf07hoDp5lcen3BLm3Nsxo4546XAEdxPSfbl+XJUJimusFp39XoS7KDvhsDeyPwJD+5m6f45Sj13JALUU/QdCdgcNqmZttNOhCLxc9s2GMoCTUFRWxXjfbCw+W8M79isbYXArafazpJzU7t5e4npBHbtp2upAi/baPA+glgtXPQQxqYn8mQaFuhzOzqzNPi9in13JDLUc8JIQp8l0W2VBlaur9bI2/PWBL0kGHN3bbyWlsgpXQ20pA3g5QVfR25vpMgS19YyCCRRlywVKpzyUETV9UzWtIbODKm/2tY2/EdkcZKU8XtUeq5IZehnhr9ea0jguOiYLqGmAZ89TUboljiNQmAyaFLoasAbMs1Zg/TYm2YhBR420ezgZMCr951IJqAu35D8bCg9SfM8NPGUT2hbPGYKmFFPZt2dstdekbT0vC0okHXUUhMtNaLX5xSzw25KPUM+bKtFpZJWOcxrVGPzCZMUIWQq2MQaVIrqOcu8LFjVuAQ13TSqkdVK9RBaW3vBGCrU08VV1Tz5ySAtoRO1mz1qDWWjaiypu4YUZJfX+EzRtW2q/zCUHH7lHpuyGWpZ0S6xnRST34XTTOQhLDVSG1CIkXlGlnFAxse3CJPSylwmnqZWtmrWTxBE67tpBdRsIlCk9ZROwqNa89w31muPZtiZkMNpMolefJjUUgk3DNmBYpfiFLPDbks9fS4t60WlioSQJLwx1Y+IX2S7sKUnl61EAjL7yVG8DR75Qskd1FsnS2clCJE02jAs4CdA3ytB7unqmdabLbWzW2FyUy5umLzaIPGuWH5RKu68tfa8w5R6rkh90Y9h2XdeD2tkcxk6AuFB4gF1wpnbKrhKuJ5EBr97cZj2cJJc08qR1LbFrLzWr4NVJ8LVt/3bFXsSr1t+0jALCqL8VzG/fVWc+vFL0yp54ZclnrqGkb0h/HZwjLWR5KU0hfiEOKBDa6JhrhGVWYPEiPw+VZ0AYtFZmGz//wlC8iU6zspa9VH1NhBdztY+wrXzpBeK9XaSraViXqyFd73FsCJrqvaEfRX0sw47MprE3NvNbde/MKUem7IJanngpYc8Syyytesso7kawqvcQcNkhvOrHyTGN/qRUcXf/iLxMiBzrQSE67rJIROtplMBXVYHmLH8eAWUlCQzoTVPH59R+bqKcgHUEDT0loUO2iN3sheGEc9rSx76o77x1f4tX+Aipun1HNDLlY9Reo6HTgWyNNb6c1GRb6nntKojgIaEU3IHoho6qYYO8eLA0ydPAvoHsU1DA2ngV5LjyMW0XRz/ShMjlrxS1PquSGXoZ5FUWxCqeeGlHoWxQOi1HNDSj2L4gFR6rkhpZ5F8YAo9dyQUs+ieECUem5IqWdRPCBKPTek1LMoHhClnhtS6lkUD4hSzw25z+rZfROcX90++Wvht0F27Gq87d5v9QFyt8/pPZAbkybMvoj/Ru41nX2Bvr8/YO1L8KiZbo3q4O0GAyfeCnDs0WSWbRZLSj035B6rZ/uZCz7tLe4WjKhNygT2xGNmGpsUtp4kP0kRZ8KTDS51S+7lkbThSe3RCZrk45iWGilFuow2BmRoCnj7o5/Zr6WPTGo8Sm4mfUSZ3Dbo709trKjfoaMZlHrupdRzQy5DPaFASHyL9y5OI24JIxpBJC96OzoS+8CiMrX9RdAlTUgRGsXSYiqyFzaApfHlzXhTudzHrjpAG3LvqZI1gXeOSzdQQO8K7duRu0h3bnlYvr7h0+S0J/I8vbStNg7LKwZCtmAZTiThci9n3Sa5t+3mTsOtLphZO+Zoyr35AA7KXf76893zNh4wtxnIZ3DH3RvI3u7z+zZ7NbbVBGFcFK2CWJouyJIoEca0FYIomCqMAcdoDUNazMUtAlil1m007XOHRambOkV90xdKiVz1SqrsNifQDUmXVBUQSe+gJea5C94EK3vxzmw8/yMxG96QS1krZm0OQcTGwhTITYsZ8Ss4Ye151NFkh0iq349jQUo9N+QS1DNgAJ0QDouIzUvX9ntFyjJoRajGEOyKcTUGkI0tbJp0hS6gqj4C1Gvl1RjJ6slnGkliapId5oIPBWHZGqZVE0dswjK3aKnTjbbUc9mRFmwn6RryvR4GTJ9YKiOXtUk9YnNhthsKcaTHezpRvUQ4Amtaw8z2bYG9R7Ohni63C6XUc0MuRT1x0QpWlisrHIg3hDWfie55vmgDXkoiWKPYA7FTKBE0SdFk/duKIl+SQssW6okiggqur+wi6rnoWqqPyiDziSzMTD1bF0xr2YNVwheUkvJ8FRNZXAE6wbLaKk1Ktva2JzwfcNdovrmUmrEmdMsGK3kIjlTP7NWaNw+Z2wzkM7jj7g1kb/f5fZu9Wm8r3vM6imW8rauvC9cATPjz40U1WnDSFYS/hauqgylwboa5nUTblnYjrz1lQ93oor5dINtqeZRgIjUm6pkJ12fwWcr6DOSxGIeAdvkmh7WLktLnVNBc7oY8uellZTiiaO5klG5muxK9aTI9mjOnikSp54ZcgHoiBvwqkgJxWjxENHVhZUR06cYk2ChInRBlM6prkmILwGWw9s0u1p6jemILzXWOuHq2nvRGJF0zuTZcdCK0O0k3GArJGFtdGOtz5+SueauL1g0eN/1IB3WksVy7azFlSEHbFiKvq53o09dKPWRKPTfkAtRTomjxmbtcUa/GeJYM1YzYaIHqwdVCvhdnW+l2MZwDkm7RMFNYaCY6QzgfVE+h2zX1pC+8judWKqvOaQW2pQqojkcJbtuLtZjc4lDZCcLKcIO9UgtclfpohlGSbfgzosPCgJTlJzo4juJv/kkoOWPYdmeWvtGLo44myN0m2VSh3GYgn8Edd28ge7vP79vs1bFtdSIxBcHs8bOIJFdKKSMSISrh14MqINxiQ5GULxdVKqBuSKEwMKCHdwyHZhfqSfkl/VXooEFURJVoa6W1oSPAv7zwFke0blOkSJCXpXomn3K7UCzdRqPtTVZFvm8Jl314OFQ7Cii7EhYCHxr9fgO/cgTfRLPH0SKLAxXAPc9aFpKhGdpeN/VwKfXckEtWz73op9QtmoZIovLKPlUCsslPREQkIIbL+N+HhG3oAM3lMO6azepEYt/WWECFyXVJdynuti/Qd61H38UKyrOM6PugGN6IdY8nCqpZ5wjQ1DxiR0ItjF7oqrAxtgLPoaKeqC4l1P+xEjhwNKViroZOr1h66JR6bsi9Vc+iKJaUem5IqWdRPCBKPTek1LMoHhClnhtygnoWRVEUGdPHg+ppWzfPbbZVFA+KOx5clxX7pZ5F8YAo9dyQUs+ieECUem5IqWdRPCBKPTek1LMoHhClnhtS6lkUD4hDwfVmx9tteeuv3KcVt8Ml+lvErk59cM9eSj2vS6lnUdwQh4JL74HlvcAio7zf1Wl3I/NBBaaYS3ml/iLXZTg4SmOvEfu81ZroAyvY+nCv8JtduwUaYHe4qflkbkQ94RfKB6f6iCq2tQXp8HJsdatj3zCm2odOspx3+hgMS0Bt7svM4XTynX4esZrvX+M8DkfPuUtdYbBoVd+yB6Nsx4Emhp6nYb9VunZ5ZGzTyVNlkn2QNgcaLkq3w6Hgkl7J8xPA+mHgoyGkL1Qo7Yc8bUEReeUGyuiTCY/t4/mxb8/5kRDcWaSj+dZwm4EGfDvSqzWyt/v8PrdX9N82j2Yj9fSZaod3xydNTIcLIbE8wSpp+kxmEpISbR6FjXg2J4/T4kGdQt6bTlYksoD3xkheNVZ+zzIza0KmVTwI79F7KILaudTQOEjml5lBNHWoifaLmXIGQBEfSi3j06iFCNvE8YyxW3MjXOgPVuAdsepNC+KA5q6KeNoY9sdR0bTelTze3VRTViblTXGMenrPtKP9kgN9swEZptJiOHwUHmEpJZ1OA7nKNWKfB1gdoitcrXRjrw925FlaBFYc02NxjF9zblY9XTBOY9YWpt2Jv8vh2EHm2A5HN6Z4DhnQfJYZ4eWiVIx2P2GsoQySpI487Sd2YvnC+WVWabNpRj6g+8dwMWcNO6/mOBabCyc5x8SCKkPYY7PJh77WpKsGcpajcKgJpFsdGqbLkk5b0Tnb4TOi+JSoluEkn1r2rOD6oHVGJsUs115mVobljDnd6OwLy5Sb5Rj1NKe8n8MSTeZUy3ZsOGzGSb5OZ8zwFgSHuIZ6Apxc0QRckJ9I7L1D8ww3JmqPrMRQ8CRuVD0nz1o/hkVb6HX0/DgwJIEcvLwsM6/SsCW7SPX57j8AbDuTWIGpaMjWVqIQSz9xRJHKpVPO84lJV6it1oJ7pr3QyReO9KDNWYY256jv8o4QW5FrKStAIaJ1SZPu2Dh1vfBACOYLJvjLpx7rHA4ONpHKW8+tyjjiOh7AAxJEP33QAGpbzbaVmaeSrqPY7IphPkiCtcSARCF/Z0pkA1UwU71b8M48chYDySqzobwxjlJPednZ9YCP9YG+5NESI35AfLRHFZ5yrnrG1CBtdpAWCa5H6gmPHxxL8+ZkblA9z3Zr3hbX3Of10oZpJPzjhixpugcBsz3+GDqDAnRHxBzhvLBsOUYy5aKp8YDqVFQVdwNJPemBJPYjJ2qMF28nSCUspRF5is5f7SBNy4Y7miwP1U5BrKAPYpY7DKbw8FAT1oVYMcAMr8qjvmS3fetQTwpmH2xuLQvOqyt55PtiNA9rMh+49Yh/4XBfKhSCPRga6Y+TX84aqXM3y/Hq6d5PVA9dwXTNY9WPlmz7AZHB4uvKwe84Vz0baBZGJscd2mlp0iPu0s+hGyeRvd3n9+m9Ot+reVtnqicHU4+eEUa4VEQoQCF5YLH+EVGJdRB22sTBMC8blzliRfRl7qNIFsxTQ/hqyYAhJugCxKunocOmuB9TOc3RgfUBT5XCw0hDNXUCzfCy2vLNzSR8E1gUJRge1nRqSvvL5P1NAKklF/IcKYylPIBe6risWO/wInb6TGIFSHPCt7Sa49UNrwaSBJu3DhfIsLbjCVZbMtutMaDTQAK4ayFK9I4Iqflb4FAgszsYez31cQeH0S6rAu1yGnCSx0G2Pd8zLFL2c7rOdPD44RAxsoeB5YWkzxmd03RKD8fZR+Dm1DOP5mlsp546mLogWtBSOVsMlTHHDjjNpGDQmEUi61tdygcMMpfv+MglvESprTVRxXSIgeVx6RMqJqJ2ss1LzgEag6hTjXRtxw3JNaw4vZQWiNVXWk/NaRBpERiSwgZVubIyOc2xAWQsaCUPNiHprp58g8Nq02x4LklS0uhDOnWf4+5brXgjG+npOrgoZgm9K10pOaA871p6+2N0pcki4YY5Rj3bpvRT+iSRJMl+ULqx6ipKYVmZpIHgoUjFV7iGesqc0hYlrGRCTJv0sBOGbpzEzann+WyjnhgVXRFxFD2ukiToqOlMjxEc3rLrhlmwGTXBJgtbi7dLfUaJHTeWjPpmO4KojiNuu7ajGqEti0VJZ5rQSruREanKK5VUMbxANR0dURqM8mTGeT28hkB3bXlHGznlYBMSW5KMyGRw6iVAPuTWOy1pqFNG6n5re+kXmaSyYTGZzfvOYDdckVVaUxWuaViFkwyZSNYKubnOf4LdiYc3x7HqyQFRx2ym+PhqzySh64p3hKc+Hjxb4TVkOA/19UydgS8IOp9VbW5juO3nCnlFo37oalrySZo3J3MJ6smhCUKYeHRXe81JuhiTNiGADhqnAq48OaIaqXhJRzgdBh6azgBBskyWdAg6/fVYERmn6dixfLM/HMFuV9UTYyBJNrmTJzpxkDcYETygGdFcg8egJIfHhaHbbXNM4sSaXTQhtGpOTjmiCSMawEYXbPR9z/EGqcG2mb1ozFMNPZ/SgXyuFayeOTlYkSmi5VkXWd6ZoZd+ZlBb/en65kEI2dacvlcc9n7c24Lfu2fsHdSjOeTeMQyOKXZYheYqu5cD/kSyt/v83qJXx3JsWxSu5TCtk46vCYmktMHmzOjeDE/znjX4ebLtEpREdbOKMMD2jh8jNeH2PDHpxpJRSoIqalQh3eGX6Yo66nr0Ae3JC4Vtz+9ZYtbYxv/f3p0gJw4DURjmXByI83AaX8aHYXqR5PYCSVSMkMX/1SQxXjESL+14SmhHiXuNJ+370cW2P1PWlln+28VukR0cQujOfbMsdsofD2Fsuc+x0F9ebG1o3ZmmrWymX4kexdbytkjKixSmouO5ws6yZKYcTvYfIjQ/jc2rsG4ue6HkvSpPyOeGxeG8yinpOax293+1fCNX6PzpbZw5PX9LO6jZdlLp496RD9/NIgSdsSBJ0/LAEm0JA9mBLw2/5l4q7yurW2yW3YKJ/wk8H8amZNHqnWZv9rwHff5RWNHeo/mxPfj1O1ZToBzfjpDPVQ+Rn+c+j54m1A/kJOU3QYisX5FT2p3P/uVSz05+HZyLeZ+eto/0Kgh9HVabLbvyV6wcrTSzPbVlo5YFKOn5Rt+QngAS0vONSE/gi5Ceb0R6Al+E9Hwj0hP4IqTnG5GewBchPd/oD+kJAIhSPv6YnmkKfaOlgDZIz9HQUkAbpOdoaCmgDdJzNLQU0AbpORpaCmiD9BwNLQW0cer01BEsbKwFnVjbDgNhqx6OxaBLwoLteBNpJJFkjsOE9In0HMd+uJn79dF7B/wip05PoePZhMFqtmOHTSlMjQ53U+T1tpvsxgayEXNSvPrgOn33XtKzC/P9cb0++Xd5aJebHtebfh7hdNuuUPqjLLqEh0LSc9Vd8UlnT083p6HkUhTO9zSy3DK620bJSJ/QkjINPS0RmzJ2V6rKutbr95VtT0jPHt0uBzWjhqMFqHzdpKiUGPWHwTQ97iFepXElT2PC4nNOnJ56yZ1Dzi6/7YcEm2Rhird5XhJQl237r21mn3tU8rDkqvJDeIyGlWI52h3SsztSh25KyEKuzUvtqcl40Yl9zhbUnj05cXqaUl1auFl6rmtDD0AVLtxLWakjwuu4wroPXzPXnssqmroWlzaZ9/x0mPVPIz07M1ksSupZabmn1/h3+ZEqSglTT08JSk1Vq0bLnztJz54Mk54ahP5xCOsSs9SSS/Str+dlflx/J0SmT876QUj9dmHSsyeSiXLNbn8DlR4j1+8alMbDUa/cpTK1krN8XzqkJK8Hru1HZpOePRkiPTU03VJf5trRb/SoZVm4b25/8fTP67EPtyhKH12lp+2j12t2R3r2YrJY1L6W60r5igHq4fis9lQlPWVS+jnp2Zezp6eVluVzYULSZa9rT73dpDWrLogbl63KbF3lYPf9IT274LfLc7/M6ZmnU+fK6SlN5lWnfz9MT99QlvbfBb/GAOkZCsXD9HxZexqtOtMfTdOcdXre7JMQV7uXTTrtxKRnf2J6Rq9rT7sRLxEsF/6+7Wzlp035D3zWydNT736HGDtMz9wXyzJJvnxZnz4l0h7rdXmKV03cmJ75Wl1vHqUVyvLekJ79OUzPWS/DNRz9jpCsc9M7S6VilVT1Diuh6VXn8q9Ur/ikk6fnxkF6FkfL4v9oWq0Qas+zIT37IzXmPj0nLSr1p9SelokxIgnHMxgrPUFLAa2QnqOhpYA2SM/R0FJAG6TnaGgpoA3SczS0FNAG6TkaWgpog/QcDS0FtEF6joaWAtr4Q3oCAKKUj6/TEwDwDOkJADVITwCoQXoCQA3SEwBqkJ4AUIP0BIAapCcA1CA9AaAG6QkANUhPAKhBegJADdITAGqQngBQg/QEgBqkJwDUID0BoAbpCQA1SE8AqEF6AkAN0hMAapCeAPB3j8c/0lECW5SlnmwAAAAASUVORK5CYII=;strokeColor=#d05825;" parent="1" vertex="1">
          <mxGeometry x="1060" y="31.25" width="1235.17" height="1928.75" as="geometry" />
        </mxCell>
        <mxCell id="LjC6LwahhpLfbFnvOJxg-8" value="" style="endArrow=none;html=1;rounded=0;strokeColor=#B3FF66;strokeWidth=7;" parent="1" edge="1">
          <mxGeometry width="50" height="50" relative="1" as="geometry">
            <mxPoint x="1220" y="1420.003987689182" as="sourcePoint" />
            <mxPoint x="1600" y="1420.04" as="targetPoint" />
          </mxGeometry>
        </mxCell>
        <mxCell id="LjC6LwahhpLfbFnvOJxg-9" value="" style="endArrow=none;html=1;rounded=0;strokeColor=#B3FF66;strokeWidth=7;" parent="1" edge="1">
          <mxGeometry width="50" height="50" relative="1" as="geometry">
            <mxPoint x="1241" y="1470.003987689182" as="sourcePoint" />
            <mxPoint x="1530" y="1470" as="targetPoint" />
          </mxGeometry>
        </mxCell>
        <mxCell id="LjC6LwahhpLfbFnvOJxg-10" value="Text" style="edgeLabel;html=1;align=center;verticalAlign=middle;resizable=0;points=[];" parent="LjC6LwahhpLfbFnvOJxg-9" vertex="1" connectable="0">
          <mxGeometry x="0.7544" y="-3" relative="1" as="geometry">
            <mxPoint as="offset" />
          </mxGeometry>
        </mxCell>
        <mxCell id="LjC6LwahhpLfbFnvOJxg-12" value="" style="endArrow=none;html=1;rounded=0;strokeColor=#B3FF66;strokeWidth=7;" parent="1" edge="1">
          <mxGeometry width="50" height="50" relative="1" as="geometry">
            <mxPoint x="1274" y="260.00398768918194" as="sourcePoint" />
            <mxPoint x="1654" y="260.03999999999996" as="targetPoint" />
          </mxGeometry>
        </mxCell>
        <mxCell id="LjC6LwahhpLfbFnvOJxg-14" value="" style="endArrow=none;html=1;rounded=0;strokeColor=#B3FF66;strokeWidth=7;" parent="1" target="LjC6LwahhpLfbFnvOJxg-15" edge="1">
          <mxGeometry width="50" height="50" relative="1" as="geometry">
            <mxPoint x="1200" y="570.0039876891819" as="sourcePoint" />
            <mxPoint x="1580" y="570.04" as="targetPoint" />
          </mxGeometry>
        </mxCell>
        <mxCell id="LjC6LwahhpLfbFnvOJxg-15" value="&lt;font data-sider-select-id=&quot;73ee9e38-85de-4e21-b4f4-75a5462524a2&quot; style=&quot;font-size: 17px;&quot;&gt;故障诊断&lt;/font&gt;" style="text;html=1;align=center;verticalAlign=middle;whiteSpace=wrap;rounded=0;fillColor=#f8cecc;strokeColor=#b85450;" parent="1" vertex="1">
          <mxGeometry x="1980" y="555" width="170" height="30" as="geometry" />
        </mxCell>
        <mxCell id="LjC6LwahhpLfbFnvOJxg-16" value="" style="endArrow=none;html=1;rounded=0;strokeColor=#B3FF66;strokeWidth=7;" parent="1" target="LjC6LwahhpLfbFnvOJxg-17" edge="1">
          <mxGeometry width="50" height="50" relative="1" as="geometry">
            <mxPoint x="1220" y="682.0039876891819" as="sourcePoint" />
            <mxPoint x="1600" y="682.04" as="targetPoint" />
          </mxGeometry>
        </mxCell>
        <mxCell id="LjC6LwahhpLfbFnvOJxg-17" value="&lt;span style=&quot;font-size: 17px;&quot;&gt;作为融合定位模块的子模块&lt;/span&gt;" style="text;html=1;align=center;verticalAlign=middle;whiteSpace=wrap;rounded=0;fillColor=#f8cecc;strokeColor=#b85450;" parent="1" vertex="1">
          <mxGeometry x="1990" y="650" width="170" height="55" as="geometry" />
        </mxCell>
        <mxCell id="LjC6LwahhpLfbFnvOJxg-18" value="" style="endArrow=none;html=1;rounded=0;strokeColor=#B3FF66;strokeWidth=7;" parent="1" edge="1">
          <mxGeometry width="50" height="50" relative="1" as="geometry">
            <mxPoint x="1180" y="842.0039876891819" as="sourcePoint" />
            <mxPoint x="1960" y="838" as="targetPoint" />
          </mxGeometry>
        </mxCell>
        <mxCell id="LjC6LwahhpLfbFnvOJxg-19" value="" style="endArrow=none;html=1;rounded=0;strokeColor=#B3FF66;strokeWidth=7;" parent="1" edge="1">
          <mxGeometry width="50" height="50" relative="1" as="geometry">
            <mxPoint x="1190" y="894.0039876891819" as="sourcePoint" />
            <mxPoint x="1970" y="890" as="targetPoint" />
          </mxGeometry>
        </mxCell>
        <mxCell id="LjC6LwahhpLfbFnvOJxg-20" value="" style="endArrow=none;html=1;rounded=0;strokeColor=#B3FF66;strokeWidth=7;" parent="1" edge="1">
          <mxGeometry width="50" height="50" relative="1" as="geometry">
            <mxPoint x="1160" y="1574.003987689182" as="sourcePoint" />
            <mxPoint x="1940" y="1570" as="targetPoint" />
          </mxGeometry>
        </mxCell>
        <mxCell id="LjC6LwahhpLfbFnvOJxg-21" value="" style="endArrow=none;html=1;rounded=0;strokeColor=#B3FF66;strokeWidth=7;" parent="1" edge="1">
          <mxGeometry width="50" height="50" relative="1" as="geometry">
            <mxPoint x="1190" y="1794.003987689182" as="sourcePoint" />
            <mxPoint x="1970" y="1790" as="targetPoint" />
          </mxGeometry>
        </mxCell>
        <mxCell id="LjC6LwahhpLfbFnvOJxg-22" value="" style="endArrow=none;html=1;rounded=0;strokeColor=#B3FF66;strokeWidth=7;" parent="1" edge="1">
          <mxGeometry width="50" height="50" relative="1" as="geometry">
            <mxPoint x="1190" y="1634.003987689182" as="sourcePoint" />
            <mxPoint x="1970" y="1630" as="targetPoint" />
          </mxGeometry>
        </mxCell>
        <mxCell id="LjC6LwahhpLfbFnvOJxg-23" value="" style="endArrow=none;html=1;rounded=0;strokeColor=#B3FF66;strokeWidth=7;" parent="1" edge="1">
          <mxGeometry width="50" height="50" relative="1" as="geometry">
            <mxPoint x="1190" y="1734.003987689182" as="sourcePoint" />
            <mxPoint x="1970" y="1730" as="targetPoint" />
          </mxGeometry>
        </mxCell>
        <mxCell id="LjC6LwahhpLfbFnvOJxg-24" value="" style="endArrow=none;html=1;rounded=0;strokeColor=#B3FF66;strokeWidth=7;" parent="1" edge="1">
          <mxGeometry width="50" height="50" relative="1" as="geometry">
            <mxPoint x="1190" y="1054.003987689182" as="sourcePoint" />
            <mxPoint x="1970" y="1050" as="targetPoint" />
          </mxGeometry>
        </mxCell>
        <mxCell id="LjC6LwahhpLfbFnvOJxg-25" value="" style="endArrow=none;html=1;rounded=0;strokeColor=#B3FF66;strokeWidth=7;" parent="1" edge="1">
          <mxGeometry width="50" height="50" relative="1" as="geometry">
            <mxPoint x="1190" y="1160.003987689182" as="sourcePoint" />
            <mxPoint x="1970" y="1156" as="targetPoint" />
          </mxGeometry>
        </mxCell>
        <mxCell id="LjC6LwahhpLfbFnvOJxg-26" value="" style="endArrow=none;html=1;rounded=0;strokeColor=#B3FF66;strokeWidth=7;" parent="1" edge="1">
          <mxGeometry width="50" height="50" relative="1" as="geometry">
            <mxPoint x="1180" y="944.0039876891819" as="sourcePoint" />
            <mxPoint x="1960" y="940" as="targetPoint" />
          </mxGeometry>
        </mxCell>
        <mxCell id="LjC6LwahhpLfbFnvOJxg-28" value="" style="endArrow=none;html=1;rounded=0;strokeColor=#B3FF66;strokeWidth=7;" parent="1" edge="1">
          <mxGeometry width="50" height="50" relative="1" as="geometry">
            <mxPoint x="1190" y="1214.003987689182" as="sourcePoint" />
            <mxPoint x="1970" y="1210" as="targetPoint" />
          </mxGeometry>
        </mxCell>
        <mxCell id="LjC6LwahhpLfbFnvOJxg-29" value="" style="endArrow=none;html=1;rounded=0;strokeColor=#B3FF66;strokeWidth=7;" parent="1" edge="1">
          <mxGeometry width="50" height="50" relative="1" as="geometry">
            <mxPoint x="1180" y="310.00398768918194" as="sourcePoint" />
            <mxPoint x="1960" y="310" as="targetPoint" />
          </mxGeometry>
        </mxCell>
        <mxCell id="LjC6LwahhpLfbFnvOJxg-31" value="" style="endArrow=none;html=1;rounded=0;strokeColor=#B3FF66;strokeWidth=7;" parent="1" edge="1">
          <mxGeometry width="50" height="50" relative="1" as="geometry">
            <mxPoint x="1200" y="470.00398768918194" as="sourcePoint" />
            <mxPoint x="1980" y="470" as="targetPoint" />
          </mxGeometry>
        </mxCell>
        <mxCell id="RasElPOEb2YVtqg3I1Uv-1" value="堆场" style="rounded=0;whiteSpace=wrap;html=1;fillColor=#f8cecc;strokeColor=#b85450;" parent="1" vertex="1">
          <mxGeometry x="-1600" y="1540" width="120" height="60" as="geometry" />
        </mxCell>
        <mxCell id="RasElPOEb2YVtqg3I1Uv-2" value="堆场" style="rounded=0;whiteSpace=wrap;html=1;fillColor=#f8cecc;strokeColor=#b85450;" parent="1" vertex="1">
          <mxGeometry x="-1410" y="1540" width="120" height="60" as="geometry" />
        </mxCell>
        <mxCell id="RasElPOEb2YVtqg3I1Uv-3" value="堆场" style="rounded=0;whiteSpace=wrap;html=1;fillColor=#f8cecc;strokeColor=#b85450;" parent="1" vertex="1">
          <mxGeometry x="-1215" y="1540" width="120" height="60" as="geometry" />
        </mxCell>
        <mxCell id="RasElPOEb2YVtqg3I1Uv-4" value="" style="rounded=1;whiteSpace=wrap;html=1;" parent="1" vertex="1">
          <mxGeometry x="-1640" y="1650" width="650" height="40" as="geometry" />
        </mxCell>
        <mxCell id="RasElPOEb2YVtqg3I1Uv-6" value="" style="rounded=0;whiteSpace=wrap;html=1;fillColor=#ffe6cc;strokeColor=#d79b00;" parent="1" vertex="1">
          <mxGeometry x="-1570" y="1640" width="30" height="60" as="geometry" />
        </mxCell>
        <mxCell id="RasElPOEb2YVtqg3I1Uv-7" value="" style="rounded=0;whiteSpace=wrap;html=1;fillColor=#ffe6cc;strokeColor=#d79b00;" parent="1" vertex="1">
          <mxGeometry x="-1350" y="1640" width="30" height="60" as="geometry" />
        </mxCell>
        <mxCell id="RasElPOEb2YVtqg3I1Uv-8" value="" style="rounded=0;whiteSpace=wrap;html=1;fillColor=#ffe6cc;strokeColor=#d79b00;" parent="1" vertex="1">
          <mxGeometry x="-1500" y="1640" width="30" height="60" as="geometry" />
        </mxCell>
        <mxCell id="RasElPOEb2YVtqg3I1Uv-9" value="" style="rounded=0;whiteSpace=wrap;html=1;fillColor=#ffe6cc;strokeColor=#d79b00;" parent="1" vertex="1">
          <mxGeometry x="-1420" y="1640" width="30" height="60" as="geometry" />
        </mxCell>
        <mxCell id="RasElPOEb2YVtqg3I1Uv-10" value="" style="rounded=0;whiteSpace=wrap;html=1;fillColor=#ffe6cc;strokeColor=#d79b00;" parent="1" vertex="1">
          <mxGeometry x="-1290" y="1640" width="30" height="60" as="geometry" />
        </mxCell>
        <mxCell id="RasElPOEb2YVtqg3I1Uv-11" value="" style="rounded=0;whiteSpace=wrap;html=1;fillColor=#ffe6cc;strokeColor=#d79b00;" parent="1" vertex="1">
          <mxGeometry x="-1215" y="1640" width="30" height="60" as="geometry" />
        </mxCell>
        <mxCell id="RasElPOEb2YVtqg3I1Uv-12" value="" style="rounded=0;whiteSpace=wrap;html=1;fillColor=#ffe6cc;strokeColor=#d79b00;" parent="1" vertex="1">
          <mxGeometry x="-1140" y="1640" width="30" height="60" as="geometry" />
        </mxCell>
        <mxCell id="RasElPOEb2YVtqg3I1Uv-15" value="岸桥区域" style="text;html=1;align=center;verticalAlign=middle;whiteSpace=wrap;rounded=0;" parent="1" vertex="1">
          <mxGeometry x="-1070" y="1655" width="60" height="30" as="geometry" />
        </mxCell>
        <mxCell id="2caM5ZW2NGvnum37pTTT-4" value="" style="rounded=0;whiteSpace=wrap;html=1;" parent="1" vertex="1">
          <mxGeometry x="-1656.25" y="2413.44" width="690" height="688.12" as="geometry" />
        </mxCell>
        <mxCell id="2caM5ZW2NGvnum37pTTT-6" value="&lt;font data-sider-select-id=&quot;66cb3327-f222-4130-a8b8-7b737f186345&quot; style=&quot;font-size: 15px;&quot;&gt;激光点云地图构建更新及定位技术&lt;/font&gt;&lt;div style=&quot;font-size: 15px;&quot;&gt;&lt;font style=&quot;font-size: 15px;&quot;&gt;整体架构&lt;/font&gt;&lt;/div&gt;" style="text;html=1;align=center;verticalAlign=middle;whiteSpace=wrap;rounded=0;" parent="1" vertex="1">
          <mxGeometry x="-1412.5" y="2430" width="250" height="30" as="geometry" />
        </mxCell>
        <mxCell id="Wk8eWu7CTbSuLLYJRfCE-83" value="" style="edgeStyle=orthogonalEdgeStyle;rounded=0;orthogonalLoop=1;jettySize=auto;html=1;dashed=1;dashPattern=8 8;" parent="1" source="2caM5ZW2NGvnum37pTTT-18" target="Wk8eWu7CTbSuLLYJRfCE-55" edge="1">
          <mxGeometry relative="1" as="geometry" />
        </mxCell>
        <mxCell id="2caM5ZW2NGvnum37pTTT-18" value="" style="rounded=1;whiteSpace=wrap;html=1;fillColor=#ffcccc;strokeColor=#36393d;" parent="1" vertex="1">
          <mxGeometry x="-1531.25" y="2625" width="160" height="165" as="geometry" />
        </mxCell>
        <mxCell id="Wk8eWu7CTbSuLLYJRfCE-33" value="&lt;b data-sider-select-id=&quot;86dc3552-63c6-4bf1-abc0-a4cbe72980dc&quot;&gt;主要模块构成&lt;/b&gt;" style="swimlane;fontStyle=0;childLayout=stackLayout;horizontal=1;startSize=30;horizontalStack=0;resizeParent=1;resizeParentMax=0;resizeLast=0;collapsible=1;marginBottom=0;whiteSpace=wrap;html=1;" parent="1" vertex="1">
          <mxGeometry x="-1640" y="2440" width="85" height="150" as="geometry" />
        </mxCell>
        <mxCell id="Wk8eWu7CTbSuLLYJRfCE-34" value="雷达外参在线标定模块" style="text;strokeColor=#d79b00;fillColor=#ffe6cc;align=center;verticalAlign=middle;spacingLeft=4;spacingRight=4;overflow=hidden;points=[[0,0.5],[1,0.5]];portConstraint=eastwest;rotatable=0;whiteSpace=wrap;html=1;fontSize=9;" parent="Wk8eWu7CTbSuLLYJRfCE-33" vertex="1">
          <mxGeometry y="30" width="85" height="30" as="geometry" />
        </mxCell>
        <mxCell id="Wk8eWu7CTbSuLLYJRfCE-35" value="全局地图构建模块" style="text;strokeColor=#36393d;fillColor=#cce5ff;align=center;verticalAlign=middle;spacingLeft=4;spacingRight=4;overflow=hidden;points=[[0,0.5],[1,0.5]];portConstraint=eastwest;rotatable=0;whiteSpace=wrap;html=1;fontSize=9;" parent="Wk8eWu7CTbSuLLYJRfCE-33" vertex="1">
          <mxGeometry y="60" width="85" height="30" as="geometry" />
        </mxCell>
        <mxCell id="Wk8eWu7CTbSuLLYJRfCE-36" value="&lt;font data-sider-select-id=&quot;e6c6d979-5c06-403f-8498-a5dc9343b4cc&quot; style=&quot;font-size: 9px;&quot;&gt;地图更新模块&lt;/font&gt;" style="text;strokeColor=#36393d;fillColor=#cdeb8b;align=center;verticalAlign=middle;spacingLeft=4;spacingRight=4;overflow=hidden;points=[[0,0.5],[1,0.5]];portConstraint=eastwest;rotatable=0;whiteSpace=wrap;html=1;fontSize=9;" parent="Wk8eWu7CTbSuLLYJRfCE-33" vertex="1">
          <mxGeometry y="90" width="85" height="30" as="geometry" />
        </mxCell>
        <mxCell id="Wk8eWu7CTbSuLLYJRfCE-37" value="&lt;font data-sider-select-id=&quot;f56f49c8-30f4-4ab2-b601-5af51047c601&quot; style=&quot;font-size: 9px;&quot;&gt;激光匹配定位模块&lt;/font&gt;" style="text;strokeColor=#36393d;fillColor=#ffcccc;align=center;verticalAlign=middle;spacingLeft=4;spacingRight=4;overflow=hidden;points=[[0,0.5],[1,0.5]];portConstraint=eastwest;rotatable=0;whiteSpace=wrap;html=1;fontSize=9;" parent="Wk8eWu7CTbSuLLYJRfCE-33" vertex="1">
          <mxGeometry y="120" width="85" height="30" as="geometry" />
        </mxCell>
        <mxCell id="Wk8eWu7CTbSuLLYJRfCE-42" value="" style="rounded=1;whiteSpace=wrap;html=1;fillColor=#cdeb8b;strokeColor=#36393d;" parent="1" vertex="1">
          <mxGeometry x="-1197.5" y="2460" width="230" height="372.5" as="geometry" />
        </mxCell>
        <mxCell id="Wk8eWu7CTbSuLLYJRfCE-56" value="" style="edgeStyle=orthogonalEdgeStyle;rounded=0;orthogonalLoop=1;jettySize=auto;html=1;dashed=1;dashPattern=8 8;" parent="1" target="Wk8eWu7CTbSuLLYJRfCE-55" edge="1">
          <mxGeometry relative="1" as="geometry">
            <mxPoint x="-1432.4565217391305" y="2567.5" as="sourcePoint" />
          </mxGeometry>
        </mxCell>
        <mxCell id="Wk8eWu7CTbSuLLYJRfCE-58" value="" style="edgeStyle=orthogonalEdgeStyle;rounded=0;orthogonalLoop=1;jettySize=auto;html=1;dashed=1;" parent="1" source="Wk8eWu7CTbSuLLYJRfCE-40" target="Wk8eWu7CTbSuLLYJRfCE-57" edge="1">
          <mxGeometry relative="1" as="geometry" />
        </mxCell>
        <mxCell id="Wk8eWu7CTbSuLLYJRfCE-40" value="" style="rounded=1;whiteSpace=wrap;html=1;fillColor=#cce5ff;strokeColor=#36393d;" parent="1" vertex="1">
          <mxGeometry x="-1512.5" y="2520" width="131.25" height="50" as="geometry" />
        </mxCell>
        <mxCell id="Wk8eWu7CTbSuLLYJRfCE-41" value="&lt;font size=&quot;1&quot; style=&quot;&quot; data-sider-select-id=&quot;9f94194b-4627-4175-987e-f6ca4d9d5718&quot;&gt;&lt;b data-sider-select-id=&quot;3693fbb6-d1cf-421d-bc7f-e9e48df0ed42&quot; style=&quot;&quot;&gt;初次全局地图构建模块&lt;/b&gt;&lt;/font&gt;" style="text;html=1;align=center;verticalAlign=middle;whiteSpace=wrap;rounded=0;fontSize=11;" parent="1" vertex="1">
          <mxGeometry x="-1508.43" y="2520" width="124.38" height="30" as="geometry" />
        </mxCell>
        <mxCell id="Wk8eWu7CTbSuLLYJRfCE-43" value="&lt;font size=&quot;1&quot; style=&quot;&quot; data-sider-select-id=&quot;9f94194b-4627-4175-987e-f6ca4d9d5718&quot;&gt;&lt;b data-sider-select-id=&quot;3693fbb6-d1cf-421d-bc7f-e9e48df0ed42&quot; style=&quot;font-size: 13px;&quot;&gt;地图更新模块&lt;/b&gt;&lt;/font&gt;" style="text;html=1;align=center;verticalAlign=middle;whiteSpace=wrap;rounded=0;fontSize=11;" parent="1" vertex="1">
          <mxGeometry x="-1133.75" y="2460" width="102.5" height="30" as="geometry" />
        </mxCell>
        <mxCell id="Wk8eWu7CTbSuLLYJRfCE-115" value="" style="rounded=0;whiteSpace=wrap;html=1;fillColor=#ffff88;strokeColor=#36393d;" parent="1" vertex="1">
          <mxGeometry x="-1635" y="2614.38" width="90" height="186.25" as="geometry" />
        </mxCell>
        <mxCell id="Wk8eWu7CTbSuLLYJRfCE-74" style="edgeStyle=orthogonalEdgeStyle;rounded=0;orthogonalLoop=1;jettySize=auto;html=1;exitX=1;exitY=0.5;exitDx=0;exitDy=0;" parent="1" source="Wk8eWu7CTbSuLLYJRfCE-49" target="2caM5ZW2NGvnum37pTTT-18" edge="1">
          <mxGeometry relative="1" as="geometry" />
        </mxCell>
        <mxCell id="Wk8eWu7CTbSuLLYJRfCE-49" value="激光点云" style="rounded=1;whiteSpace=wrap;html=1;fontSize=8;" parent="1" vertex="1">
          <mxGeometry x="-1622.5" y="2657.5" width="50" height="20" as="geometry" />
        </mxCell>
        <mxCell id="Wk8eWu7CTbSuLLYJRfCE-75" style="edgeStyle=orthogonalEdgeStyle;rounded=0;orthogonalLoop=1;jettySize=auto;html=1;exitX=1;exitY=0.5;exitDx=0;exitDy=0;" parent="1" source="Wk8eWu7CTbSuLLYJRfCE-50" edge="1">
          <mxGeometry relative="1" as="geometry">
            <mxPoint x="-1532.5" y="2707.521739130435" as="targetPoint" />
          </mxGeometry>
        </mxCell>
        <mxCell id="Wk8eWu7CTbSuLLYJRfCE-50" value="RTK" style="rounded=1;whiteSpace=wrap;html=1;fontSize=8;" parent="1" vertex="1">
          <mxGeometry x="-1622.5" y="2697.5" width="50" height="20" as="geometry" />
        </mxCell>
        <mxCell id="Wk8eWu7CTbSuLLYJRfCE-76" style="edgeStyle=orthogonalEdgeStyle;rounded=0;orthogonalLoop=1;jettySize=auto;html=1;exitX=1;exitY=0.5;exitDx=0;exitDy=0;entryX=0;entryY=0.5;entryDx=0;entryDy=0;" parent="1" source="Wk8eWu7CTbSuLLYJRfCE-51" target="2caM5ZW2NGvnum37pTTT-18" edge="1">
          <mxGeometry relative="1" as="geometry" />
        </mxCell>
        <mxCell id="Wk8eWu7CTbSuLLYJRfCE-51" value="IMU" style="rounded=1;whiteSpace=wrap;html=1;fontSize=8;" parent="1" vertex="1">
          <mxGeometry x="-1622.5" y="2742.5" width="50" height="20" as="geometry" />
        </mxCell>
        <mxCell id="Wk8eWu7CTbSuLLYJRfCE-55" value="SLAM方法" style="text;html=1;align=center;verticalAlign=middle;whiteSpace=wrap;rounded=0;" parent="1" vertex="1">
          <mxGeometry x="-1481.25" y="2540" width="60" height="30" as="geometry" />
        </mxCell>
        <mxCell id="Wk8eWu7CTbSuLLYJRfCE-82" style="edgeStyle=orthogonalEdgeStyle;rounded=0;orthogonalLoop=1;jettySize=auto;html=1;exitX=1;exitY=0.5;exitDx=0;exitDy=0;dashed=1;dashPattern=8 8;" parent="1" source="Wk8eWu7CTbSuLLYJRfCE-57" target="Wk8eWu7CTbSuLLYJRfCE-66" edge="1">
          <mxGeometry relative="1" as="geometry">
            <Array as="points">
              <mxPoint x="-1210" y="2545" />
              <mxPoint x="-1210" y="2545" />
            </Array>
          </mxGeometry>
        </mxCell>
        <mxCell id="Wk8eWu7CTbSuLLYJRfCE-103" style="edgeStyle=orthogonalEdgeStyle;rounded=0;orthogonalLoop=1;jettySize=auto;html=1;exitX=0.5;exitY=1;exitDx=0;exitDy=0;entryX=0.75;entryY=0;entryDx=0;entryDy=0;" parent="1" source="Wk8eWu7CTbSuLLYJRfCE-57" target="Wk8eWu7CTbSuLLYJRfCE-67" edge="1">
          <mxGeometry relative="1" as="geometry" />
        </mxCell>
        <mxCell id="Wk8eWu7CTbSuLLYJRfCE-57" value="全局瓦片地图" style="whiteSpace=wrap;html=1;fillColor=#cce5ff;strokeColor=#36393d;rounded=1;" parent="1" vertex="1">
          <mxGeometry x="-1352.5" y="2530" width="82.5" height="30" as="geometry" />
        </mxCell>
        <mxCell id="Wk8eWu7CTbSuLLYJRfCE-106" style="edgeStyle=orthogonalEdgeStyle;rounded=0;orthogonalLoop=1;jettySize=auto;html=1;exitX=0.5;exitY=0;exitDx=0;exitDy=0;entryX=0.5;entryY=1;entryDx=0;entryDy=0;" parent="1" source="Wk8eWu7CTbSuLLYJRfCE-65" target="Wk8eWu7CTbSuLLYJRfCE-66" edge="1">
          <mxGeometry relative="1" as="geometry" />
        </mxCell>
        <mxCell id="Wk8eWu7CTbSuLLYJRfCE-65" value="&lt;br data-sider-select-id=&quot;ebf2ff32-2fbd-4b77-97f9-60d23c35bbf7&quot;&gt;&lt;span style=&quot;color: rgb(0, 0, 0); font-family: Helvetica; font-size: 9px; font-style: normal; font-variant-ligatures: normal; font-variant-caps: normal; font-weight: 400; letter-spacing: normal; orphans: 2; text-align: center; text-indent: 0px; text-transform: none; widows: 2; word-spacing: 0px; -webkit-text-stroke-width: 0px; white-space: normal; background-color: rgb(251, 251, 251); text-decoration-thickness: initial; text-decoration-style: initial; text-decoration-color: initial; display: inline !important; float: none;&quot;&gt;①纯激光定位与RTK定位校验&lt;/span&gt;&lt;div&gt;&lt;span style=&quot;font-size: 10px;&quot;&gt;②环境变化检测&lt;/span&gt;&lt;font size=&quot;1&quot;&gt;&lt;br&gt;&lt;/font&gt;&lt;span data-sider-select-id=&quot;5677e9a2-2464-471a-8d9d-235e093edd13&quot; style=&quot;font-size: 10px;&quot;&gt;③关键帧特征点云质量评估&lt;/span&gt;&lt;br&gt;&lt;/div&gt;&lt;div&gt;&lt;span data-sider-select-id=&quot;5677e9a2-2464-471a-8d9d-235e093edd13&quot; style=&quot;font-size: 10px;&quot;&gt;④实时异步更新&lt;/span&gt;&lt;/div&gt;&lt;div&gt;&lt;span data-sider-select-id=&quot;5677e9a2-2464-471a-8d9d-235e093edd13&quot; style=&quot;font-size: 10px;&quot;&gt;⑤&lt;/span&gt;&lt;span style=&quot;font-size: 9px; background-color: initial;&quot;&gt;单次作业结束，增量地图上传&lt;/span&gt;&lt;/div&gt;" style="rounded=1;whiteSpace=wrap;html=1;" parent="1" vertex="1">
          <mxGeometry x="-1182.5" y="2605" width="200" height="205" as="geometry" />
        </mxCell>
        <mxCell id="Wk8eWu7CTbSuLLYJRfCE-84" style="edgeStyle=orthogonalEdgeStyle;rounded=0;orthogonalLoop=1;jettySize=auto;html=1;exitX=0;exitY=0.25;exitDx=0;exitDy=0;entryX=1;entryY=0.25;entryDx=0;entryDy=0;" parent="1" source="Wk8eWu7CTbSuLLYJRfCE-66" target="Wk8eWu7CTbSuLLYJRfCE-57" edge="1">
          <mxGeometry relative="1" as="geometry">
            <Array as="points">
              <mxPoint x="-1182" y="2538" />
              <mxPoint x="-1238" y="2538" />
            </Array>
          </mxGeometry>
        </mxCell>
        <mxCell id="Wk8eWu7CTbSuLLYJRfCE-66" value="" style="rounded=1;whiteSpace=wrap;html=1;" parent="1" vertex="1">
          <mxGeometry x="-1182.5" y="2490" width="200" height="90" as="geometry" />
        </mxCell>
        <mxCell id="Wk8eWu7CTbSuLLYJRfCE-67" value="&lt;font size=&quot;1&quot; style=&quot;&quot; data-sider-select-id=&quot;9f94194b-4627-4175-987e-f6ca4d9d5718&quot;&gt;&lt;b data-sider-select-id=&quot;3693fbb6-d1cf-421d-bc7f-e9e48df0ed42&quot; style=&quot;&quot;&gt;激光匹配定位模块&lt;/b&gt;&lt;/font&gt;" style="text;html=1;align=center;verticalAlign=middle;whiteSpace=wrap;rounded=0;fontSize=11;" parent="1" vertex="1">
          <mxGeometry x="-1497.49" y="2625" width="102.5" height="30" as="geometry" />
        </mxCell>
        <mxCell id="Wk8eWu7CTbSuLLYJRfCE-85" value="&lt;font data-sider-select-id=&quot;e6755fdb-b7ea-401f-a8c6-a33c99e0401b&quot; style=&quot;font-size: 9px;&quot;&gt;融合定位结果输出&lt;/font&gt;" style="rounded=0;whiteSpace=wrap;html=1;fillColor=none;strokeColor=none;" parent="1" vertex="1">
          <mxGeometry x="-1332.5" y="2680" width="100" height="27.5" as="geometry" />
        </mxCell>
        <mxCell id="Wk8eWu7CTbSuLLYJRfCE-87" value="&lt;font data-sider-select-id=&quot;65d6b97b-90cd-4e4c-963a-bedcf55d614f&quot; style=&quot;font-size: 9px;&quot;&gt;特征点云输出&lt;/font&gt;" style="rounded=0;whiteSpace=wrap;html=1;fillColor=none;strokeColor=none;" parent="1" vertex="1">
          <mxGeometry x="-1332.5" y="2707.5" width="100" height="22.5" as="geometry" />
        </mxCell>
        <mxCell id="Wk8eWu7CTbSuLLYJRfCE-92" value="&lt;b data-sider-select-id=&quot;bde609af-e9c3-471f-a22d-4c7228936603&quot;&gt;&lt;font data-sider-select-id=&quot;745e85fc-6bbf-4a70-9cb1-868c46ce117e&quot; style=&quot;font-size: 11px;&quot;&gt;车端地图实时更新模块&lt;/font&gt;&lt;/b&gt;" style="text;html=1;align=center;verticalAlign=middle;whiteSpace=wrap;rounded=0;" parent="1" vertex="1">
          <mxGeometry x="-1142.5" y="2790" width="120" height="27.5" as="geometry" />
        </mxCell>
        <mxCell id="Wk8eWu7CTbSuLLYJRfCE-96" style="edgeStyle=orthogonalEdgeStyle;rounded=0;orthogonalLoop=1;jettySize=auto;html=1;exitX=1;exitY=0.5;exitDx=0;exitDy=0;" parent="1" source="2caM5ZW2NGvnum37pTTT-18" target="Wk8eWu7CTbSuLLYJRfCE-65" edge="1">
          <mxGeometry relative="1" as="geometry" />
        </mxCell>
        <mxCell id="Wk8eWu7CTbSuLLYJRfCE-126" style="edgeStyle=orthogonalEdgeStyle;rounded=0;orthogonalLoop=1;jettySize=auto;html=1;exitX=0.5;exitY=1;exitDx=0;exitDy=0;entryX=0.5;entryY=0;entryDx=0;entryDy=0;" parent="1" source="Wk8eWu7CTbSuLLYJRfCE-104" target="Wk8eWu7CTbSuLLYJRfCE-111" edge="1">
          <mxGeometry relative="1" as="geometry" />
        </mxCell>
        <mxCell id="Wk8eWu7CTbSuLLYJRfCE-104" value="纯激光匹配定位" style="text;html=1;align=center;verticalAlign=middle;whiteSpace=wrap;rounded=0;fillColor=default;strokeColor=default;" parent="1" vertex="1">
          <mxGeometry x="-1520" y="2692.5" width="90" height="27.5" as="geometry" />
        </mxCell>
        <mxCell id="Wk8eWu7CTbSuLLYJRfCE-108" value="&lt;font data-sider-select-id=&quot;98ab4b98-1c55-45a7-a483-d32527c61ec2&quot; style=&quot;font-size: 9px;&quot;&gt;单次作业前，下发最新地图&lt;/font&gt;" style="text;html=1;align=center;verticalAlign=middle;whiteSpace=wrap;rounded=0;" parent="1" vertex="1">
          <mxGeometry x="-1312.5" y="2570" width="60" height="30" as="geometry" />
        </mxCell>
        <mxCell id="Wk8eWu7CTbSuLLYJRfCE-110" style="edgeStyle=orthogonalEdgeStyle;rounded=0;orthogonalLoop=1;jettySize=auto;html=1;exitX=0.5;exitY=1;exitDx=0;exitDy=0;entryX=0.5;entryY=0;entryDx=0;entryDy=0;" parent="1" source="Wk8eWu7CTbSuLLYJRfCE-109" target="Wk8eWu7CTbSuLLYJRfCE-104" edge="1">
          <mxGeometry relative="1" as="geometry" />
        </mxCell>
        <mxCell id="Wk8eWu7CTbSuLLYJRfCE-109" value="点云去畸变" style="rounded=1;whiteSpace=wrap;html=1;fontSize=10;" parent="1" vertex="1">
          <mxGeometry x="-1522.5" y="2651.25" width="95" height="21.25" as="geometry" />
        </mxCell>
        <mxCell id="Wk8eWu7CTbSuLLYJRfCE-120" style="edgeStyle=orthogonalEdgeStyle;rounded=0;orthogonalLoop=1;jettySize=auto;html=1;exitX=1;exitY=0.5;exitDx=0;exitDy=0;entryX=1;entryY=0.5;entryDx=0;entryDy=0;" parent="1" source="Wk8eWu7CTbSuLLYJRfCE-111" target="Wk8eWu7CTbSuLLYJRfCE-109" edge="1">
          <mxGeometry relative="1" as="geometry">
            <Array as="points">
              <mxPoint x="-1400" y="2758" />
              <mxPoint x="-1400" y="2662" />
            </Array>
          </mxGeometry>
        </mxCell>
        <mxCell id="Wk8eWu7CTbSuLLYJRfCE-128" style="edgeStyle=orthogonalEdgeStyle;rounded=0;orthogonalLoop=1;jettySize=auto;html=1;entryX=1;entryY=0.5;entryDx=0;entryDy=0;" parent="1" source="Wk8eWu7CTbSuLLYJRfCE-111" target="Wk8eWu7CTbSuLLYJRfCE-104" edge="1">
          <mxGeometry relative="1" as="geometry">
            <Array as="points">
              <mxPoint x="-1400" y="2758" />
              <mxPoint x="-1400" y="2706" />
            </Array>
          </mxGeometry>
        </mxCell>
        <mxCell id="Wk8eWu7CTbSuLLYJRfCE-129" style="edgeStyle=orthogonalEdgeStyle;rounded=0;orthogonalLoop=1;jettySize=auto;html=1;entryX=0;entryY=0.5;entryDx=0;entryDy=0;" parent="1" source="Wk8eWu7CTbSuLLYJRfCE-111" target="Wk8eWu7CTbSuLLYJRfCE-65" edge="1">
          <mxGeometry relative="1" as="geometry">
            <Array as="points">
              <mxPoint x="-1400" y="2758" />
              <mxPoint x="-1400" y="2708" />
            </Array>
          </mxGeometry>
        </mxCell>
        <mxCell id="Wk8eWu7CTbSuLLYJRfCE-111" value="位姿递推+轨迹平滑" style="rounded=1;whiteSpace=wrap;html=1;" parent="1" vertex="1">
          <mxGeometry x="-1527.5" y="2742.5" width="105" height="30" as="geometry" />
        </mxCell>
        <mxCell id="Wk8eWu7CTbSuLLYJRfCE-116" value="传感器数据" style="text;html=1;align=center;verticalAlign=middle;whiteSpace=wrap;rounded=0;fontSize=10;" parent="1" vertex="1">
          <mxGeometry x="-1627.5" y="2780" width="67.5" height="20.63" as="geometry" />
        </mxCell>
        <mxCell id="Wk8eWu7CTbSuLLYJRfCE-119" style="edgeStyle=orthogonalEdgeStyle;rounded=0;orthogonalLoop=1;jettySize=auto;html=1;exitX=1;exitY=0.5;exitDx=0;exitDy=0;entryX=0;entryY=0.5;entryDx=0;entryDy=0;" parent="1" source="Wk8eWu7CTbSuLLYJRfCE-118" target="2caM5ZW2NGvnum37pTTT-18" edge="1">
          <mxGeometry relative="1" as="geometry" />
        </mxCell>
        <mxCell id="Wk8eWu7CTbSuLLYJRfCE-118" value="轮速" style="rounded=1;whiteSpace=wrap;html=1;fontSize=8;" parent="1" vertex="1">
          <mxGeometry x="-1622.5" y="2625" width="50" height="20" as="geometry" />
        </mxCell>
        <mxCell id="Wk8eWu7CTbSuLLYJRfCE-130" value="技术点" style="swimlane;whiteSpace=wrap;html=1;" parent="1" vertex="1">
          <mxGeometry x="-1173.75" y="2615" width="182.5" height="165" as="geometry" />
        </mxCell>
        <mxCell id="Wk8eWu7CTbSuLLYJRfCE-132" value="" style="endArrow=none;dashed=1;html=1;dashPattern=1 3;strokeWidth=2;rounded=0;" parent="1" edge="1">
          <mxGeometry width="50" height="50" relative="1" as="geometry">
            <mxPoint x="-1657.5" y="2870" as="sourcePoint" />
            <mxPoint x="-967.5" y="2870.5" as="targetPoint" />
          </mxGeometry>
        </mxCell>
        <mxCell id="Wk8eWu7CTbSuLLYJRfCE-134" value="云端" style="ellipse;shape=cloud;whiteSpace=wrap;html=1;" parent="1" vertex="1">
          <mxGeometry x="-1390" y="2890" width="120" height="80" as="geometry" />
        </mxCell>
        <mxCell id="Wk8eWu7CTbSuLLYJRfCE-135" value="车1" style="rounded=0;whiteSpace=wrap;html=1;" parent="1" vertex="1">
          <mxGeometry x="-1602.5" y="3050" width="72.5" height="30" as="geometry" />
        </mxCell>
        <mxCell id="Wk8eWu7CTbSuLLYJRfCE-136" value="车2" style="rounded=0;whiteSpace=wrap;html=1;" parent="1" vertex="1">
          <mxGeometry x="-1356.25" y="3050" width="72.5" height="30" as="geometry" />
        </mxCell>
        <mxCell id="Wk8eWu7CTbSuLLYJRfCE-137" value="车3" style="rounded=0;whiteSpace=wrap;html=1;" parent="1" vertex="1">
          <mxGeometry x="-1191.25" y="3050" width="72.5" height="30" as="geometry" />
        </mxCell>
        <mxCell id="Wk8eWu7CTbSuLLYJRfCE-145" value="&lt;span data-sider-select-id=&quot;5cc8946e-6c89-493d-8aa2-872667a84a48&quot; style=&quot;font-size: 8px;&quot;&gt;变化瓦片的点云上传&lt;/span&gt;" style="text;html=1;align=center;verticalAlign=middle;whiteSpace=wrap;rounded=0;fontSize=8;" parent="1" vertex="1">
          <mxGeometry x="-1591" y="2990" width="100" height="30" as="geometry" />
        </mxCell>
        <mxCell id="Wk8eWu7CTbSuLLYJRfCE-148" value="&lt;font data-sider-select-id=&quot;a558b2f5-cdbd-43c1-8b88-2ce050578114&quot; style=&quot;font-size: 11px;&quot;&gt;&lt;b data-sider-select-id=&quot;14817b5c-2c58-4a2b-907b-20923eb2bf9f&quot;&gt;云端地图更新模块&lt;/b&gt;&lt;/font&gt;" style="text;html=1;align=center;verticalAlign=middle;whiteSpace=wrap;rounded=0;" parent="1" vertex="1">
          <mxGeometry x="-1131.25" y="2490" width="100" height="20" as="geometry" />
        </mxCell>
        <mxCell id="Wk8eWu7CTbSuLLYJRfCE-150" value="&lt;font style=&quot;font-size: 11px;&quot; data-sider-select-id=&quot;7378fdec-35eb-496c-80ea-ef87dbe071cc&quot;&gt;技术点：&lt;/font&gt;&lt;div style=&quot;font-size: 11px;&quot;&gt;&lt;font style=&quot;font-size: 11px;&quot; data-sider-select-id=&quot;7378fdec-35eb-496c-80ea-ef87dbe071cc&quot;&gt;①云端地图管理、下发&lt;/font&gt;&lt;div style=&quot;&quot;&gt;&lt;font style=&quot;font-size: 11px;&quot; data-sider-select-id=&quot;24456beb-949d-45f0-859d-a4f485ab1f4a&quot;&gt;②全局瓦片地图与增量点云地图融合，&lt;/font&gt;&lt;/div&gt;&lt;div style=&quot;&quot;&gt;&lt;font style=&quot;font-size: 11px;&quot; data-sider-select-id=&quot;24456beb-949d-45f0-859d-a4f485ab1f4a&quot;&gt;根据增量地图完成对全局瓦片地图的更新，并完成下发&lt;/font&gt;&lt;/div&gt;&lt;/div&gt;" style="text;html=1;align=center;verticalAlign=middle;whiteSpace=wrap;rounded=0;" parent="1" vertex="1">
          <mxGeometry x="-1180" y="2530" width="190" height="30" as="geometry" />
        </mxCell>
        <mxCell id="Wk8eWu7CTbSuLLYJRfCE-152" value="" style="endArrow=classic;html=1;rounded=0;entryX=0.13;entryY=0.77;entryDx=0;entryDy=0;entryPerimeter=0;" parent="1" target="Wk8eWu7CTbSuLLYJRfCE-134" edge="1">
          <mxGeometry width="50" height="50" relative="1" as="geometry">
            <mxPoint x="-1570" y="3050" as="sourcePoint" />
            <mxPoint x="-1520" y="3000" as="targetPoint" />
          </mxGeometry>
        </mxCell>
        <mxCell id="Wk8eWu7CTbSuLLYJRfCE-153" value="" style="endArrow=classic;html=1;rounded=0;entryX=0.75;entryY=0;entryDx=0;entryDy=0;exitX=0.31;exitY=0.8;exitDx=0;exitDy=0;exitPerimeter=0;" parent="1" source="Wk8eWu7CTbSuLLYJRfCE-134" target="Wk8eWu7CTbSuLLYJRfCE-135" edge="1">
          <mxGeometry width="50" height="50" relative="1" as="geometry">
            <mxPoint x="-1380" y="2950" as="sourcePoint" />
            <mxPoint x="-1330" y="2900" as="targetPoint" />
          </mxGeometry>
        </mxCell>
        <mxCell id="Wk8eWu7CTbSuLLYJRfCE-154" value="&lt;font data-sider-select-id=&quot;001aaa27-d8e4-439d-a351-bcd6a3ff9c4e&quot; style=&quot;font-size: 8px;&quot;&gt;变化瓦片下发&lt;/font&gt;" style="text;html=1;align=center;verticalAlign=middle;whiteSpace=wrap;rounded=0;" parent="1" vertex="1">
          <mxGeometry x="-1490" y="3010" width="60" height="30" as="geometry" />
        </mxCell>
        <mxCell id="Wk8eWu7CTbSuLLYJRfCE-156" value="" style="endArrow=classic;html=1;rounded=0;entryX=0.5;entryY=0;entryDx=0;entryDy=0;exitX=0.8;exitY=0.8;exitDx=0;exitDy=0;exitPerimeter=0;" parent="1" source="Wk8eWu7CTbSuLLYJRfCE-134" target="Wk8eWu7CTbSuLLYJRfCE-137" edge="1">
          <mxGeometry width="50" height="50" relative="1" as="geometry">
            <mxPoint x="-1300" y="2955" as="sourcePoint" />
            <mxPoint x="-1250" y="2905" as="targetPoint" />
          </mxGeometry>
        </mxCell>
        <mxCell id="Wk8eWu7CTbSuLLYJRfCE-157" value="" style="endArrow=classic;html=1;rounded=0;entryX=0.8;entryY=0.8;entryDx=0;entryDy=0;entryPerimeter=0;" parent="1" source="Wk8eWu7CTbSuLLYJRfCE-137" target="Wk8eWu7CTbSuLLYJRfCE-134" edge="1">
          <mxGeometry width="50" height="50" relative="1" as="geometry">
            <mxPoint x="-1333.75" y="3040" as="sourcePoint" />
            <mxPoint x="-1283.75" y="2990" as="targetPoint" />
          </mxGeometry>
        </mxCell>
        <mxCell id="Wk8eWu7CTbSuLLYJRfCE-158" value="&lt;span data-sider-select-id=&quot;5cc8946e-6c89-493d-8aa2-872667a84a48&quot; style=&quot;font-size: 8px;&quot;&gt;点云上传&lt;/span&gt;" style="text;html=1;align=center;verticalAlign=middle;whiteSpace=wrap;rounded=0;fontSize=8;" parent="1" vertex="1">
          <mxGeometry x="-1265" y="3000" width="50" height="30" as="geometry" />
        </mxCell>
        <mxCell id="Wk8eWu7CTbSuLLYJRfCE-160" value="&lt;font data-sider-select-id=&quot;001aaa27-d8e4-439d-a351-bcd6a3ff9c4e&quot; style=&quot;font-size: 8px;&quot;&gt;变化瓦片下发&lt;/font&gt;" style="text;html=1;align=center;verticalAlign=middle;whiteSpace=wrap;rounded=0;" parent="1" vertex="1">
          <mxGeometry x="-1220" y="2990" width="60" height="30" as="geometry" />
        </mxCell>
      </root>
    </mxGraphModel>
  </diagram>
</mxfile>
